<?xml version="1.0" standalone="no"?>
<!DOCTYPE svg PUBLIC "-//W3C//DTD SVG 1.1//EN" "http://www.w3.org/Graphics/SVG/1.1/DTD/svg11.dtd" >
<svg xmlns="http://www.w3.org/2000/svg" xmlns:xlink="http://www.w3.org/1999/xlink" version="1.1">
<metadata></metadata>
<defs>
<font id="heuristicaitalic" horiz-adv-x="1085" >
<font-face units-per-em="2048" ascent="1536" descent="-512" />
<missing-glyph horiz-adv-x="460" />
<glyph unicode="&#xfb01;" horiz-adv-x="1243" d="M-147 -377q0 39 28.5 71t63.5 32q25 0 55 -45q66 -100 109 -101q39 0 65 139l238 1207h-183l23 78h178l23 75q61 207 170.5 324t320.5 117q156 0 243 -67t91 -144q2 -47 -34 -75t-79 -28q-47 0 -61 49q-51 193 -186 193q-109 0 -170.5 -94t-112.5 -297l-14 -53h223 q150 0 395 24l8 -10l-225 -823q-31 -113 20 -113q39 0 92.5 71.5t92.5 145.5l49 -29q-57 -129 -142 -212t-188 -83q-82 0 -107.5 54.5t-0.5 146.5l176 655q16 53 4 74t-74 21h-338l-190 -863q-68 -307 -148 -433t-229 -126q-74 0 -129 35t-57 84z" />
<glyph unicode="&#xfb02;" horiz-adv-x="1234" d="M-147 -377q0 39 28.5 71t63.5 32q25 0 55 -45q66 -100 109 -101q39 0 65 139l238 1207h-185l23 78h178l23 75q131 440 489 441q154 0 238 -99l151 99l29 -19l-320 -1308q-27 -111 21 -111q35 0 92 69.5t96 147.5l49 -29q-53 -125 -142 -210t-191 -85q-156 0 -107 201 l262 1073q-14 88 -64 143.5t-136 55.5q-106 0 -170 -95.5t-115 -295.5l-15 -53h265l-21 -78h-256l-190 -863q-68 -307 -148 -433t-229 -126q-74 0 -129 35t-57 84z" />
<glyph horiz-adv-x="0" />
<glyph unicode="&#xd;" horiz-adv-x="681" />
<glyph unicode=" "  horiz-adv-x="460" />
<glyph unicode="&#x09;" horiz-adv-x="460" />
<glyph unicode="&#xa0;" horiz-adv-x="460" />
<glyph unicode="!" horiz-adv-x="491" d="M141 92q0 63 37 100t96 39q53 -2 86 -34.5t31 -79.5q0 -63 -37 -102.5t-96 -39.5q-53 0 -86 33t-31 84zM307 428l113 891q8 63 38.5 96t106.5 33q78 0 94.5 -39t-8.5 -100l-286 -881h-58z" />
<glyph unicode="&#x22;" horiz-adv-x="823" d="M421 961l25 452q4 55 29.5 81t83.5 26q123 0 84 -107l-164 -452h-58zM770 961l25 452q4 55 29.5 81t83.5 26q123 0 84 -107l-164 -452h-58z" />
<glyph unicode="#" d="M182 473l35 98h213l94 269h-215l35 98h215l152 430h114l-149 -430h270l152 430h112l-149 -430h209l-31 -98h-213l-94 -269h211l-31 -98h-215l-166 -473h-115l166 473h-270l-166 -473h-117l166 473h-213zM547 571h270l94 269h-270z" />
<glyph unicode="$" d="M135 246q2 45 31 73.5t65 28.5q41 0 58 -49q68 -203 223 -223l131 571q-293 121 -293 340q0 176 129 279.5t332 101.5l37 154h82l-35 -158q127 -10 217 -70.5t88 -146.5q-2 -41 -32.5 -66.5t-65.5 -25.5q-45 0 -58 53q-41 164 -165 184l-117 -501q150 -70 232.5 -158 t82.5 -234q0 -180 -137 -290.5t-360 -108.5l-48 -223h-86l52 227q-160 10 -262.5 82t-100.5 160zM514 1049q0 -82 42 -131.5t128 -92.5l111 471q-127 0 -204 -67t-77 -180zM598 72q135 -4 219 71.5t84 202.5q0 178 -182 264z" />
<glyph unicode="%" horiz-adv-x="1691" d="M272 915q0 72 22.5 150t68 153.5t129 125t190.5 49.5q121 0 219 -74q33 -27 94 -27h367q86 6 174 94l51 52l62 -49l-1239 -1440l-64 57l1045 1217h-443q10 -39 10 -111q0 -55 -12 -113.5t-42 -123t-73 -115.5t-114.5 -84t-159.5 -33q-145 0 -215 79.5t-70 192.5zM430 868 q0 -164 129 -163q68 0 119 57t75.5 140t36 151.5t11.5 113.5q0 164 -121 164q-63 0 -114.5 -57t-79 -138t-42 -152t-14.5 -116zM1014 248q0 72 22.5 149.5t67.5 153.5t129 125t190 49q137 0 207 -78t70 -203q0 -55 -12.5 -113.5t-42 -123t-72.5 -115.5t-115 -84t-160 -33 q-145 0 -214.5 80t-69.5 193zM1171 201q0 -164 129 -164q68 0 119 57.5t76 140t36 151.5t11 114q0 164 -121 164q-63 0 -114.5 -57.5t-79 -138.5t-42 -151.5t-14.5 -115.5z" />
<glyph unicode="&#x26;" horiz-adv-x="1484" d="M195 332q0 72 26.5 135t59 102t93 80t95.5 58.5t98 48.5q-31 51 -51 125.5t-20 128.5q0 174 105.5 278.5t252.5 104.5q125 0 210 -70t85 -193q0 -70 -28.5 -126t-90 -100t-118 -71.5t-148.5 -64.5q119 -213 332 -442q213 221 241 528q86 41 158 33q37 -106 -14 -211 q-106 -197 -340 -404q6 -6 45 -41.5t55 -50t55 -44.5t66 -45t65.5 -31.5t75.5 -22.5l-8 -51l-102 4q-211 8 -373 164q-215 -178 -434 -179q-188 0 -289.5 106t-101.5 251zM389 352q0 -109 78 -192.5t203 -83.5q166 0 303 127q-213 221 -373 491q-70 -29 -140.5 -116 t-70.5 -226zM659 1073q0 -137 74 -252q111 53 183.5 139.5t72.5 194.5q0 68 -37 117t-110 49q-72 0 -127.5 -68.5t-55.5 -179.5z" />
<glyph unicode="'" horiz-adv-x="442" d="M401 961l25 452q4 55 29.5 81t83.5 26q123 0 84 -107l-164 -452h-58z" />
<glyph unicode="(" horiz-adv-x="716" d="M328 616q84 377 257 593t425 208l-11 -51q-160 -27 -302 -206t-224 -533q-45 -215 -46 -369t35 -256t80 -154.5t91 -62.5l-12 -47q-207 14 -290 266t-3 612z" />
<glyph unicode=")" horiz-adv-x="716" d="M-23 -262l11 47q160 27 302 208t224 535q45 215 46 368t-35 255t-80 153.5t-91 61.5l13 51q207 -14 289.5 -266t2.5 -612q-84 -377 -257 -593t-425 -208z" />
<glyph unicode="*" horiz-adv-x="843" d="M299 903q-33 72 35 94l246 84q18 6 18 17.5t-20 19.5l-177 64q-37 12 -41 41.5t19 60.5q49 70 94 25l139 -144q12 -12 21.5 -7t9.5 26l-4 200q0 63 84 64q41 0 56.5 -17.5t0.5 -48.5l-90 -198q-8 -20 0 -26.5t27 7.5l186 146q57 41 92 -23q41 -74 -24 -94l-244 -80 q-39 -14 -27 -31l13 -6l196 -80q27 -10 29 -36.5t-25 -61.5q-51 -63 -94 -14l-129 145q-14 14 -24.5 7t-10.5 -25l4 -215q2 -37 -19.5 -52.5t-61.5 -15.5q-45 0 -60.5 23.5t0.5 58.5l90 201q10 20 2 27.5t-30 -9.5l-172 -145q-70 -60 -109 18z" />
<glyph unicode="+" horiz-adv-x="1167" d="M190 453v118h426v433h140v-433h426v-118h-426v-453h-140v453h-426z" />
<glyph unicode="," horiz-adv-x="542" d="M94 -238q135 131 146 236q4 45 -23 102q-25 59 -24 82q0 43 32.5 76t81.5 33q53 2 86 -42t33 -97q0 -66 -24.5 -125.5t-81 -121t-87 -90t-104.5 -89.5z" />
<glyph unicode="-" horiz-adv-x="802" d="M240 442l28 144h502l-29 -144h-501z" />
<glyph unicode="." horiz-adv-x="542" d="M168 92q0 63 37 101t96 38q53 0 85 -33.5t32 -80.5q0 -63 -37 -102.5t-96 -39.5q-53 0 -85 33t-32 84z" />
<glyph unicode="/" horiz-adv-x="552" d="M72 -31l553 1479h145l-553 -1479h-145z" />
<glyph unicode="0" d="M195 418q0 162 39.5 331t109.5 300q186 344 469 344q367 0 367 -449q0 -129 -36 -300t-106 -314q-84 -174 -196.5 -264.5t-270.5 -90.5q-137 0 -225 67t-119.5 161t-31.5 215zM379 332q0 -285 192 -285q117 0 195 120t137 325q45 150 68.5 310.5t23.5 233.5 q0 135 -40 210t-140 75q-102 0 -187 -112.5t-145 -299.5q-104 -315 -104 -577z" />
<glyph unicode="1" d="M223 0l13 59l186 15q53 4 67 73l232 1037q12 61 -25 67l-198 21l16 49l420 72l16 -13l-278 -1233q-16 -74 43 -77l182 -11l-12 -59h-662z" />
<glyph unicode="2" d="M68 20q45 129 150.5 249t326.5 272q223 152 323.5 276.5t100.5 267.5q0 236 -193 236q-178 0 -274 -272q-16 -51 -60 -52q-37 0 -68.5 28t-31.5 71q0 98 126 197.5t312 99.5q176 0 285 -86t109 -250q0 -90 -29 -161t-106.5 -137.5t-127 -99t-174.5 -104.5q-6 -4 -10 -6 t-10 -6t-10 -6q-336 -195 -431 -385h512q68 0 103 21.5t86 94.5l61 -12l-110 -256h-838z" />
<glyph unicode="3" d="M111 227q0 47 32.5 80t71.5 33q43 0 61 -64q59 -229 267 -229q119 0 215 99.5t96 310.5q0 41 -9 82t-31.5 83t-68 68.5t-108.5 26.5q-51 0 -115.5 -10.5t-70.5 -10.5q-39 0 -39 45q0 29 13 52.5t32 23.5q10 0 77.5 -11t120.5 -11q123 0 206 92t83 223q0 82 -41 146.5 t-149 64.5q-158 0 -242 -215q-23 -55 -63 -55q-31 0 -61 25.5t-30 68.5q0 90 120 169t286 79q92 0 173 -25t144.5 -96.5t63.5 -184.5q0 -152 -110.5 -231.5t-252.5 -89.5v-6q109 -14 197 -95t88 -229q0 -223 -154.5 -342t-375.5 -119q-199 0 -312.5 82t-113.5 170z" />
<glyph unicode="4" d="M137 422q475 594 824 946h139l-187 -891h201l-20 -94h-201l-51 -246q-14 -70 41 -71l102 -7l-14 -59h-541l16 59l152 11q57 4 70 67l51 246h-563zM309 477h430l150 697l-4 4q-265 -283 -576 -701z" />
<glyph unicode="5" d="M121 221q0 47 33.5 81t74.5 34t58 -60q61 -229 268 -229q131 0 229.5 120t98.5 304q0 143 -65.5 226t-178.5 83q-158 0 -270 -135l-50 25l150 682l20 16h699l10 -22l-86 -129h-508q-29 0 -43 -9.5t-22 -40.5l-111 -383l4 -4q117 94 275 94q180 0 284.5 -100t104.5 -278 q0 -221 -160 -371t-395 -150q-197 0 -308.5 78t-111.5 168z" />
<glyph unicode="6" d="M186 424q0 215 71 431t179 343q168 195 410 195q182 0 268 -72t86 -150q0 -41 -36 -67.5t-72 -26.5q-49 0 -60 58q-39 186 -192 186q-145 0 -258 -165t-174 -464h4q156 168 342 168q178 0 270 -101.5t92 -269.5q0 -125 -53 -238.5t-173 -194.5t-282 -81 q-223 0 -322.5 125t-99.5 324zM377 344q0 -51 8 -96t30.5 -94.5t72 -78t118.5 -28.5q127 0 219.5 124t92.5 335q0 115 -60.5 184.5t-165.5 69.5q-147 0 -231 -110.5t-84 -305.5z" />
<glyph unicode="7" d="M338 1085l86 283h860l16 -22q-39 -92 -93 -180.5t-88 -132.5t-127 -154.5t-126 -151.5q-119 -141 -187.5 -293.5t-105.5 -374.5q-8 -49 -31.5 -66.5t-78.5 -17.5q-98 0 -98 76q0 119 96 286t342 447q242 272 299 433h-494q-76 0 -113.5 -18.5t-62.5 -59.5l-33 -54h-61z " />
<glyph unicode="8" d="M166 326q0 180 107.5 296.5t258.5 135.5v8q-168 72 -167 258q0 176 125.5 272.5t302.5 96.5q195 0 284.5 -92.5t89.5 -215.5q0 -139 -81.5 -223t-202.5 -108v-6q82 -29 148.5 -113t66.5 -211q0 -199 -129 -324t-371 -125q-215 0 -323.5 102t-108.5 249zM362 309 q0 -123 65 -192.5t179 -69.5q137 0 216 117t79 289q0 117 -61.5 183t-167.5 66q-135 0 -222.5 -115.5t-87.5 -277.5zM547 977q0 -86 45 -141.5t143 -55.5q104 0 177 101.5t73 253.5q0 80 -47 133t-137 53q-123 0 -188.5 -109.5t-65.5 -234.5z" />
<glyph unicode="9" d="M176 197q0 51 32 82.5t68 31.5q43 0 60 -61q53 -203 209 -203q174 0 286 236q90 190 123 409h-4q-147 -147 -315 -147q-156 0 -259.5 98t-103.5 256q0 223 138.5 358.5t332.5 135.5q426 0 426 -521q0 -174 -55 -367.5t-164 -328.5q-160 -201 -411 -201q-162 0 -262.5 72 t-100.5 150zM463 926q0 -123 59.5 -201t194.5 -78q117 0 187.5 80t70.5 213q0 178 -51.5 279.5t-184.5 101.5q-117 0 -196.5 -104.5t-79.5 -290.5z" />
<glyph unicode=":" horiz-adv-x="542" d="M168 92q0 63 37 101t96 38q53 0 85 -33.5t32 -80.5q0 -63 -37 -102.5t-96 -39.5q-53 0 -85 33t-32 84zM330 864q0 63 37 101t96 38q53 0 85 -33.5t32 -80.5q0 -63 -37 -102.5t-96 -39.5q-53 0 -85 33t-32 84z" />
<glyph unicode=";" horiz-adv-x="542" d="M94 -238q135 131 146 236q4 45 -23 102q-25 59 -24 82q0 43 32.5 76t81.5 33q53 2 86 -42t33 -97q0 -66 -24.5 -125.5t-81 -121t-87 -90t-104.5 -89.5zM330 864q0 63 37 101t96 38q53 0 85 -33.5t32 -80.5q0 -63 -37 -102.5t-96 -39.5q-53 0 -85 33t-32 84z" />
<glyph unicode="&#x3c;" horiz-adv-x="1167" d="M176 424v166l979 428v-141l-858 -369l858 -369v-137z" />
<glyph unicode="=" horiz-adv-x="1167" d="M190 228v118h992v-118h-992zM190 678v118h992v-118h-992z" />
<glyph unicode="&#x3e;" horiz-adv-x="1167" d="M176 2v137l858 369l-858 369v141l979 -428v-166z" />
<glyph unicode="?" horiz-adv-x="870" d="M307 92q0 63 37 100t96 39q51 -2 84 -34.5t33 -79.5q0 -63 -37 -102.5t-96 -39.5q-51 0 -84 33t-33 84zM328 584q0 129 213 252q139 82 206.5 184t67.5 207q0 68 -30.5 108.5t-90.5 40.5q-121 0 -205 -213q-14 -39 -63 -39q-29 0 -59.5 25t-30.5 65q0 76 96 154t252 80 q147 0 233.5 -71.5t88.5 -188.5q-2 -121 -63.5 -188.5t-199.5 -137.5q-115 -55 -174 -112.5t-59 -131.5q0 -61 37 -89.5t94 -28.5q14 0 88 6l12 -35q-88 -63 -200 -63q-86 -2 -149.5 43t-63.5 133z" />
<glyph unicode="@" horiz-adv-x="1626" d="M252 621q0 250 120 442t305 288.5t400 96.5q285 0 456 -172t171 -428q0 -207 -138.5 -351.5t-322.5 -144.5q-100 0 -130 59.5t15 221.5l-4 2q-55 -98 -162.5 -191.5t-211.5 -91.5q-55 2 -95.5 41t-40.5 129q0 49 18.5 118t59.5 148.5t98.5 146t146.5 112t193 45.5 q61 0 113 -27l8 16h133l-135 -528q-31 -123 70 -123q104 0 193.5 126t89.5 282q4 244 -144.5 385t-376.5 141q-199 0 -354.5 -106.5t-235 -272.5t-79.5 -356q0 -102 29.5 -197.5t94 -184.5t186.5 -143.5t286 -54.5q197 0 346 64l16 -52q-168 -92 -420 -92q-131 0 -254 41 t-223 118t-160.5 205t-60.5 288zM782 553q0 -104 70 -104q100 0 222 195.5t155 359.5q-43 29 -96 28q-76 0 -144.5 -56t-111.5 -136t-69 -159t-26 -128z" />
<glyph unicode="A" horiz-adv-x="1277" d="M-47 0l12 59l68 9q49 4 83 30.5t81 104.5q6 10 350 610l344 604h145l152 -1233q8 -68 22.5 -91t59.5 -27l78 -7l-13 -59h-504l13 59l108 11q33 4 44.5 20t7.5 60l-48 397h-458q-59 -109 -211 -402q-11 -25 -11 -41q0 -31 37 -34l113 -11l-12 -59h-461zM539 625h407 l-72 602h-4q-245 -442 -331 -602z" />
<glyph unicode="B" horiz-adv-x="1294" d="M78 0l12 59l115 13q37 4 56.5 25.5t29.5 72.5l241 1077q7 29 7 48q0 15 -5 25q-10 20 -45 26l-120 12l12 59h493h27q234 0 344 -67q129 -76 129 -242q0 -127 -97 -222t-290 -118l-2 -6q131 -25 220 -108t89 -230q0 -74 -24.5 -140.5t-85 -134t-184 -108.5t-300.5 -41 h-622zM496 203q-5 -22 -5 -40q-1 -39 23 -61q34 -30 174 -30q193 0 289 106.5t96 257.5q0 291 -381 291h-80zM627 799h133q184 0 284 75q121 96 121 242q0 109 -69.5 169.5t-198.5 60.5q-100 0 -126 -12.5t-36 -59.5z" />
<glyph unicode="C" horiz-adv-x="1353" d="M233 563q0 287 140 512q100 164 280.5 268.5t446.5 104.5q117 0 243.5 -28.5t208.5 -80.5l-73 -307h-62q1 16 1 32q0 150 -70 227q-78 85 -265 85q-309 0 -483 -291q-72 -119 -109.5 -274.5t-37.5 -300.5q0 -229 111.5 -349t295.5 -120q174 0 273.5 82t195.5 258h62 l-101 -326q-172 -86 -416 -86q-147 0 -260.5 36t-184.5 94.5t-116 138t-62.5 159.5t-17.5 166z" />
<glyph unicode="D" horiz-adv-x="1562" d="M82 0l12 59l115 13q37 2 55.5 24.5t28.5 73.5l244 1077q5 26 5 45q0 18 -4 30q-10 24 -44 26l-121 10l12 59h551q356 0 530 -147q86 -72 131 -185.5t45 -242.5q0 -264 -137 -471q-246 -371 -794 -371h-629zM489 176q-3 -15 -3 -28q0 -40 32 -56q43 -20 139 -20 q242 0 390.5 82t242.5 237q133 219 133 496q0 59 -6 110.5t-33.5 118t-74.5 113.5t-137.5 80.5t-210.5 36.5q-135 0 -173 -12.5t-51 -63.5z" />
<glyph unicode="E" horiz-adv-x="1220" d="M78 0l12 59l115 13q37 2 54 23.5t30 74.5l246 1081q6 28 6 47q-1 17 -5 27q-10 21 -47 25l-122 8l14 59h1036l-78 -342h-61q7 61 7 109q0 24 -2 44q-5 60 -59.5 89t-179.5 29h-247q-27 0 -38 -11.5t-20 -48.5l-116 -510h268q90 0 136 16.5t68.5 48t51.5 109.5h61 l-94 -428h-61q1 19 1 35q0 79 -24 107q-29 34 -156 34h-268l-104 -448q-15 -66 -15 -97q1 -3 1 -5q2 -30 24 -50q34 -26 215 -26h14q197 0 285 53t164 235h61l-104 -360h-1069z" />
<glyph unicode="F" horiz-adv-x="1169" d="M78 0l12 59l115 11q35 2 54.5 24.5t29.5 69.5l246 1089q5 20 5 36q0 52 -51 57l-120 12l12 59h1042l-77 -338h-62q7 60 7 106q0 23 -2 43q-5 60 -59 89t-179 29h-252q-29 0 -40 -11.5t-20 -50.5l-123 -536h271q129 0 172 31.5t84 144.5h61l-94 -430h-61q1 19 1 35 q0 79 -24 107q-29 34 -156 34h-270l-115 -506q-5 -20 -5 -36q0 -53 52 -58l154 -11l-12 -59h-596z" />
<glyph unicode="G" horiz-adv-x="1452" d="M233 584q0 322 195 569q231 295 684 295q270 0 459 -102l-74 -320h-61q2 29 2 55q0 41 -6 75q-9 56 -40.5 109.5t-102 82t-179.5 28.5q-141 0 -255 -53t-186.5 -136t-120.5 -192.5t-68.5 -215t-20.5 -210.5q0 -262 117.5 -395t312.5 -133q143 0 192 27.5t62 83.5l76 309 q7 27 7 47q0 47 -42 51l-154 14l12 60h539l-12 -60l-90 -8q-41 -4 -64 -104l-96 -414q-211 -78 -434 -78q-301 0 -477 152q-175 152 -175 463z" />
<glyph unicode="H" horiz-adv-x="1587" d="M82 0l12 59l113 13q37 2 55.5 23.5t30.5 74.5l246 1077q5 23 5 40q0 57 -50 63l-121 8l14 59h561l-14 -59l-113 -10q-37 -2 -55 -25t-31 -76l-108 -471h684l106 471q5 23 5 40q0 57 -50 63l-121 8l15 59h561l-15 -59l-112 -10q-37 -2 -55.5 -25t-30.5 -76l-246 -1077 q-6 -24 -6 -43q0 -55 51 -59l121 -9l-12 -59h-561l12 59l112 13q37 2 55.5 23.5t30.5 74.5l121 528h-684l-119 -528q-6 -27 -6 -47q1 -17 5 -29q10 -24 47 -26l120 -9l-12 -59h-561z" />
<glyph unicode="I" horiz-adv-x="706" d="M82 0l12 59l113 13q37 2 56.5 25.5t29.5 72.5l246 1077q6 24 6 43q0 55 -51 60l-121 8l14 59h561l-14 -59l-113 -10q-37 -2 -55 -27t-31 -74l-246 -1077q-6 -24 -6 -42q0 -55 52 -60l120 -9l-12 -59h-561z" />
<glyph unicode="J" horiz-adv-x="720" d="M-88 -188q162 16 256 102q96 90 164 381l223 958q5 23 5 41t-5 29q-10 23 -47 25l-121 10l14 59h564l-15 -59l-112 -8q-37 -2 -56.5 -24.5t-29.5 -72.5l-240 -1030q-66 -281 -215 -387q-115 -80 -317 -80q-23 0 -68 4v52z" />
<glyph unicode="K" horiz-adv-x="1331" d="M82 0l12 59l113 13q37 2 56.5 25.5t29.5 72.5l246 1077q6 24 6 43q0 55 -51 60l-121 8l14 59h561l-14 -59l-113 -10q-37 -2 -55 -27t-31 -74l-110 -485l4 -4q469 397 610 526q32 31 32 48t-30 20l-78 6l8 59h510l-8 -59q-117 -8 -176 -31.5t-156 -91.5 q-217 -152 -542 -426q176 -367 362 -602q66 -80 113 -116t127 -42l-15 -59l-100 2q-119 4 -194.5 43t-149.5 137q-125 170 -319 567h-5l-129 -569q-6 -24 -6 -42q0 -55 52 -60l120 -9l-12 -59h-561z" />
<glyph unicode="L" horiz-adv-x="1157" d="M82 0l12 59l113 13q37 4 55.5 24.5t30.5 73.5l246 1077q6 24 6 42q0 54 -51 59l-121 10l14 59h571l-14 -59l-123 -8q-37 -2 -56.5 -26t-31.5 -77l-227 -997q-14 -64 -14 -95v-7q2 -30 24 -50q34 -26 215 -26h14q182 0 267.5 53t161.5 235h61l-105 -360h-1048z" />
<glyph unicode="M" horiz-adv-x="1884" d="M63 0l11 59l63 7q49 4 76 22t45 66q37 102 72 254l192 839q6 23 6 41q0 53 -51 58l-121 12l15 59h397q29 -154 117 -547l114 -567h7l362 553q246 375 354 561h402l-15 -59l-112 -8q-37 -2 -55.5 -26t-30.5 -77l-246 -1077q-7 -27 -7 -46q0 -16 5 -26q10 -24 47 -26 l121 -13l-12 -59h-557l12 59l112 13q37 2 55.5 23.5t31.5 74.5l251 1071h-6l-796 -1216h-58l-246 1216h-4l-188 -833q-33 -147 -43 -254q-1 -7 -1 -13q0 -35 20 -51q22 -20 75 -24l80 -7l-10 -59h-484z" />
<glyph unicode="N" horiz-adv-x="1562" d="M63 0l11 59l63 7q92 8 121 88q37 102 72 254l192 839q6 23 6 41q0 53 -51 58l-121 12l15 59h389q172 -383 524 -1149h8l168 742q33 147 43 254q1 7 1 14q0 36 -18 49q-22 16 -77 23l-80 8l10 59h484l-11 -59l-63 -6q-92 -8 -121 -88q-37 -102 -72 -254l-229 -1010h-133 q-377 831 -569 1247h-7l-192 -839q-33 -147 -43 -254q-1 -7 -1 -13q0 -35 20 -51q22 -20 75 -24l80 -7l-10 -59h-484z" />
<glyph unicode="O" horiz-adv-x="1542" d="M233 553q0 279 142 518q227 377 649 377q268 0 430 -149.5t162 -450.5q0 -256 -129 -490q-98 -178 -251 -283.5t-402 -105.5q-295 0 -448 160t-153 424zM449 471q0 -209 98 -319.5t268 -110.5q332 0 490 410q96 250 96 503q0 211 -97.5 316.5t-271.5 105.5 q-291 0 -457 -344q-126 -268 -126 -561z" />
<glyph unicode="P" horiz-adv-x="1257" d="M82 0l12 59l113 13q37 2 55.5 23.5t30.5 74.5l246 1077q6 24 6 42q0 54 -51 59l-121 10l14 59h479q233 0 363 -74q166 -94 166 -303q0 -115 -54.5 -213t-152.5 -157q-158 -96 -455 -97h-151l-93 -403q-6 -26 -6 -45q1 -17 5 -27q10 -24 47 -26l141 -13l-12 -59h-582z M609 689q-1 -11 10.5 -24.5t39 -16.5t80.5 -3q211 0 326 108.5t115 323.5q0 268 -308 269q-74 0 -97 -14.5t-34 -57.5l-125 -543q-6 -31 -7 -42z" />
<glyph unicode="Q" horiz-adv-x="1542" d="M233 553q0 279 142 518q227 377 649 377q268 0 430 -149.5t162 -450.5q0 -256 -129 -490q-184 -334 -529 -381q49 -78 136 -163q162 -162 327 -162h4l7 -35q-55 -33 -154 -33q-188 0 -348 135q-135 113 -211 258q-240 31 -363 184.5t-123 391.5zM449 471 q0 -209 98 -319.5t268 -110.5q332 0 490 410q96 250 96 503q0 211 -97.5 316.5t-271.5 105.5q-291 0 -457 -344q-126 -268 -126 -561z" />
<glyph unicode="R" horiz-adv-x="1310" d="M82 0l12 59l113 13q37 4 55.5 24.5t30.5 73.5l246 1077q6 24 6 42q0 54 -51 59l-121 10l14 59h553q446 0 446 -330q0 -150 -115.5 -252t-305.5 -128v-5q53 -14 91 -41.5t56 -56.5t28.5 -77t11.5 -82.5t1 -96.5q0 -18 -1 -34q0 -136 30 -183q37 -59 164 -72l-19 -59h-160 q-184 0 -206 158q-10 78 -10 207q1 6 1 13v21q0 119 -6 142q-12 70 -65 100q-41 27 -156 27h-123l-113 -498q-6 -28 -6 -48q1 -16 5 -26q10 -22 47 -26l120 -11l-12 -59h-561zM618 739h132q201 0 311 94.5t110 274.5q0 125 -71.5 181.5t-184.5 56.5q-109 0 -136 -14.5 t-40 -63.5z" />
<glyph unicode="S" horiz-adv-x="1091" d="M141 137l54 314h59q-1 -15 -1 -29q0 -174 91 -274q98 -108 250 -107q145 0 227 89t82 208q0 117 -64.5 190.5t-197.5 141.5q-141 68 -219 153.5t-78 218.5q0 70 24.5 137.5t76 130t147.5 100.5t223 38q233 0 367 -105l-74 -286h-59q4 37 4 69q0 250 -252 250 q-131 0 -208 -73.5t-77 -186.5q0 -45 18.5 -85t38 -64.5t65.5 -55t66.5 -42t75.5 -40.5q160 -82 233.5 -177t73.5 -230q0 -88 -26.5 -164t-82.5 -142.5t-160.5 -105.5t-248.5 -41q-121 0 -246 46t-182 122z" />
<glyph unicode="T" horiz-adv-x="1241" d="M281 1075l77 342h1164l-78 -342h-62q6 58 6 103q0 28 -2 50q-6 60 -60 89t-177 29h-129l-266 -1180q-6 -24 -6 -42t6 -30q12 -24 53 -26l149 -9l-14 -59h-631l15 59l133 9q45 2 66.5 25.5t31.5 72.5l266 1180h-141q-150 0 -220.5 -56.5t-119.5 -214.5h-61z" />
<glyph unicode="U" horiz-adv-x="1626" d="M362 524l173 723q6 24 6 42q0 54 -52 59l-120 10l14 59h561l-14 -59l-113 -8q-37 -2 -55.5 -26t-30.5 -77l-162 -696q-27 -117 -27 -207q0 -303 308 -303q197 0 295 128t153 363l166 715q6 24 6 42q0 54 -51 59l-121 10l15 59h561l-14 -59l-113 -10q-37 -2 -55.5 -25 t-30.5 -76l-174 -741q-33 -139 -85 -238.5t-110.5 -157t-137.5 -90t-149.5 -42t-164.5 -9.5q-284 0 -416 132q-87 86 -86 241q0 81 24 182z" />
<glyph unicode="V" horiz-adv-x="1304" d="M268 1358l11 59h512l-11 -59l-131 -12q-36 -3 -36 -53q0 -7 1 -15q25 -266 62 -528l72 -545h4l292 510q252 438 314 569q16 35 10 47t-35 17l-112 10l10 59h450l-10 -59q-84 -6 -118.5 -22.5t-67.5 -67.5q-123 -190 -340 -561l-416 -707h-141l-86 655q-12 102 -38 302 t-38 294q-8 53 -23.5 72.5t-52.5 24.5z" />
<glyph unicode="W" horiz-adv-x="1937" d="M248 1358l12 59h518l-14 -59l-133 -12q-44 -2 -44 -53q0 -6 1 -13l67 -1030h11l555 1130h143l104 -1130h9l245 514q176 367 234 510q9 23 9 38q0 27 -28 31l-133 15l11 59h458l-10 -59q-94 -8 -125 -27.5t-74 -95.5q-55 -96 -256 -504l-356 -731h-143l-107 1128h-10 l-561 -1128h-144l-90 1262q-4 47 -15 65.5t-44 20.5z" />
<glyph unicode="X" horiz-adv-x="1294" d="M-2 0l12 59q100 10 140 24.5t88 66.5q127 135 483 565q-39 88 -120 286.5t-114 268.5q-23 51 -57.5 65.5t-132.5 22.5l12 59h533l-13 -59l-106 -8q-43 -4 -43 -39q0 -15 8 -35q127 -311 168 -408h4q168 193 340 418q18 24 18 39q0 21 -36 25l-88 8l12 59h471l-12 -59 q-139 -10 -197 -60q-199 -182 -475 -514q254 -571 276 -620q29 -63 66 -79.5t145 -25.5l-12 -59h-553l10 59l107 11q44 4 44 38q0 15 -9 35q-27 68 -61 148t-77 179t-67 155h-8q-238 -293 -379 -496q-13 -18 -13 -31q0 -22 41 -26l117 -13l-12 -59h-510z" />
<glyph unicode="Y" horiz-adv-x="1210" d="M268 1358l13 59h510l-13 -59l-112 -10q-41 -5 -41 -41q0 -9 2 -19l186 -629h6q307 416 432 631q10 19 10 32q0 26 -40 28l-107 8l12 59h469l-12 -59q-86 -6 -123 -24.5t-92 -80.5q-190 -217 -471 -624q-41 -55 -57 -123l-78 -346q-5 -22 -5 -38.5t5 -27.5q10 -20 47 -22 l156 -13l-13 -59h-635l13 59l147 15q39 4 56.5 23.5t27.5 62.5l78 344q7 30 7 57t-7 51q-158 528 -201 652q-20 59 -46 72.5t-124 21.5z" />
<glyph unicode="Z" horiz-adv-x="1273" d="M31 27q500 549 1194 1319h-400q-174 0 -245.5 -50.5t-133.5 -224.5h-61l76 346h1040l10 -26q-662 -725 -1196 -1319h416q248 0 344 51t176 237h62l-105 -360h-1169z" />
<glyph unicode="[" horiz-adv-x="675" d="M213 -262l381 1679h326l-11 -55q-137 -8 -172 -25.5t-51 -87.5l-307 -1343q-14 -70 11.5 -87.5t158.5 -25.5l-10 -55h-326z" />
<glyph unicode="\" horiz-adv-x="798" d="M254 1448h145l432 -1479h-145z" />
<glyph unicode="]" horiz-adv-x="675" d="M29 -262l10 55q139 8 173 25.5t50 87.5l307 1343q16 70 -9 87.5t-161 25.5l11 55h325l-381 -1679h-325z" />
<glyph unicode="^" horiz-adv-x="1167" d="M242 467l401 901h158l391 -901h-156l-315 752l-324 -752h-155z" />
<glyph unicode="_" horiz-adv-x="1024" d="M0 -154h1024v-102h-1024v102z" />
<glyph unicode="`" horiz-adv-x="819" d="M371 1393q0 29 27.5 58.5t52.5 29.5q49 0 131 -84l243 -246l-30 -41l-310 172q-114 62 -114 111z" />
<glyph unicode="a" horiz-adv-x="1148" d="M135 219q0 84 27.5 187.5t87 214t141.5 200.5t204 148.5t261 58.5q88 0 150 -43l10 27h172l-217 -817q-12 -43 -11 -69q0 -44 31 -44q39 0 92.5 71.5t92.5 145.5l49 -29q-57 -129 -144.5 -212t-195.5 -83q-110 0 -110 112q0 48 20 118l69 233h-4q-264 -463 -528 -463 q-98 0 -147.5 71t-49.5 173zM338 225q0 -143 90 -143q133 0 338 311q147 221 219 518q-49 45 -125 45q-113 0 -216 -81.5t-166.5 -199.5t-101.5 -240t-38 -210z" />
<glyph unicode="b" horiz-adv-x="1144" d="M168 0l301 1309q8 37 8 58q0 11 -3 19q-7 18 -46 23l-117 14l13 47l366 50l10 -11l-227 -903h4q115 203 254 312.5t262 109.5q111 0 165 -69.5t54 -188.5q0 -84 -32.5 -208t-102.5 -247q-84 -150 -215 -245t-299 -95q-88 0 -159.5 40t-98.5 104l-63 -119h-74zM420 223 q0 -78 45 -127t123 -49q104 0 191 88t134.5 211t73 231.5t25.5 174.5q0 170 -111 170q-88 0 -191.5 -101.5t-181.5 -238.5q-108 -197 -108 -359z" />
<glyph unicode="c" horiz-adv-x="903" d="M166 303q0 172 70.5 336t210 276.5t313.5 112.5q115 0 189.5 -52t74.5 -130q0 -47 -45 -81t-86 -34q-53 0 -59 62q-16 163 -122 163h-1q-90 0 -171 -98t-126 -238.5t-45 -275.5q0 -125 38.5 -196.5t141.5 -71.5q152 0 328 239l49 -39q-180 -301 -467 -301q-123 0 -208 78 t-85 250z" />
<glyph unicode="d" horiz-adv-x="1202" d="M147 246q0 78 26 176t83 205.5t136 196.5t198 146.5t254 57.5q106 0 172 -35l4 4l78 330q8 33 8 51q0 8 -2 14q-6 16 -43 19l-123 12l12 47l365 50l10 -11l-324 -1314q-11 -41 -11 -68q0 -45 32 -45q39 0 92 71.5t92 145.5l49 -29q-57 -129 -143 -212t-190 -83h-5 q-75 1 -97 59q-10 27 -10 62q0 46 17 107l68 243h-4q-260 -471 -539 -471q-205 1 -205 271zM350 229q0 -147 103 -147q76 0 168 90t174 223q150 242 202 520q-45 41 -141 41q-115 0 -216 -81.5t-161.5 -199.5t-94.5 -238t-34 -208z" />
<glyph unicode="e" horiz-adv-x="927" d="M164 311q0 274 170 484q188 233 448 233q121 0 187.5 -59.5t66.5 -145.5q0 -111 -86 -196q-160 -147 -581 -234q-2 -14 -2 -33q0 -284 185 -284h1q55 0 105.5 21.5t95.5 61.5t72.5 71.5t64.5 78.5l47 -41q-180 -293 -469 -293q-51 0 -98 13.5t-97.5 46.5t-80 103.5 t-29.5 172.5zM373 463q244 51 357.5 152.5t113.5 220.5q0 53 -33 86.5t-86 33.5q-119 0 -222 -150t-130 -343z" />
<glyph unicode="f" horiz-adv-x="645" d="M-147 -377q0 39 28.5 71t63.5 32q25 0 55 -45q66 -100 109 -101q39 0 65 139l238 1207h-183l23 78h178l21 75q51 197 133 299q111 141 286 142q92 0 163 -47.5t71 -112.5q0 -37 -34 -63.5t-66 -26.5q-37 0 -56 35q-35 76 -65.5 109.5t-71.5 33.5q-43 0 -74.5 -49 t-60.5 -164l-58 -231h267l-21 -78h-258l-190 -863q-68 -307 -148 -433t-229 -126q-74 0 -129 35t-57 84z" />
<glyph unicode="g" horiz-adv-x="1021" d="M61 -197q0 117 95.5 187.5t220.5 93.5v4q-145 68 -146 154q0 76 175 147l12 6v4q-61 23 -116.5 87.5t-55.5 164.5q0 59 22.5 121t68.5 121t136 97t209 38q160 0 254 -61l297 82l12 -19l-67 -129l-172 -24q43 -55 43 -142q0 -162 -117 -264t-326 -102q-70 0 -110 6 q-90 -23 -90 -80q0 -41 55 -67.5t192 -59.5q358 -86 359 -322q0 -162 -141.5 -252t-358.5 -90q-199 0 -325 82t-126 217zM250 -178q0 -111 86 -178.5t221 -67.5q121 0 201 59.5t80 171.5q0 190 -371 244q-78 -12 -147.5 -70.5t-69.5 -158.5zM438 616q0 -78 45 -127t125 -49 q113 0 182.5 99.5t69.5 244.5q0 94 -51 133t-113 39q-90 0 -151.5 -60t-84 -133t-22.5 -147z" />
<glyph unicode="h" horiz-adv-x="1243" d="M188 -25l299 1334q8 37 8 58q0 11 -3 19q-7 18 -46 23l-116 14l12 47l369 50l10 -11l-229 -938h6q102 195 252.5 326t289.5 131q119 0 153 -88q15 -39 15 -84q0 -57 -24 -125l-162 -536q-14 -44 -14 -71q0 -42 34 -42q39 0 92.5 71.5t92.5 145.5l49 -29 q-57 -129 -141 -212t-185 -83q-124 0 -124 117q0 44 18 105l168 581q9 32 9 58q-1 26 -9 46q-18 40 -66 40q-82 0 -178 -87t-162.5 -190.5t-101.5 -193.5q-53 -135 -137 -451z" />
<glyph unicode="i" horiz-adv-x="649" d="M246 176l172 641q9 34 9 54q0 13 -3 19q-8 20 -49 21l-117 11l12 49l373 57l10 -10l-223 -823q-12 -42 -11 -69q0 -44 32 -44q39 0 92 71.5t92 145.5l49 -29q-57 -129 -142 -212t-190 -83q-80 1 -106 55q-13 28 -12 64q0 36 12 82zM500 1329q0 53 35.5 94t97.5 41 q47 0 78.5 -28.5t31.5 -83.5q0 -61 -35.5 -99.5t-95.5 -38.5q-49 0 -80.5 30t-31.5 85z" />
<glyph unicode="j" horiz-adv-x="632" d="M-123 -377q0 39 28.5 71t63.5 32q27 0 54 -41q74 -109 116 -109q33 0 47 64l250 1169q10 39 10 62q0 8 -1 15q-5 23 -39 25l-127 11l12 49l366 57l11 -10l-232 -1024q-63 -281 -145 -387q-82 -102 -219 -103q-80 0 -136.5 34t-58.5 85zM504 1329q0 53 35.5 94t97.5 41 q47 0 79 -28.5t32 -83.5q0 -61 -36 -99.5t-96 -38.5q-49 0 -80.5 30t-31.5 85z" />
<glyph unicode="k" horiz-adv-x="1116" d="M188 -25l318 1334q8 37 8 58q0 11 -3 19q-7 18 -46 23l-117 14l12 47l367 50l10 -11l-360 -1509zM522 547q154 186 318 330q179 152 286 152v-1q106 0 107 -100q0 -41 -29.5 -76t-70.5 -35q-29 0 -58 17q-61 38 -98 38h-2q-82 0 -291 -239q57 -205 154 -400 q39 -82 63.5 -113.5t50.5 -31.5q70 0 164 203l51 -27q-102 -289 -282 -289q-72 0 -121 46.5t-96 148.5q-95 207 -146 377z" />
<glyph unicode="l" horiz-adv-x="626" d="M238 176l280 1133q9 38 9 59q0 12 -3 18q-8 18 -47 23l-117 14l13 47l366 50l11 -11l-330 -1316q-10 -40 -10 -66q0 -45 30 -45q35 0 92.5 69.5t96.5 147.5l49 -29q-53 -125 -142.5 -210t-191.5 -85q-118 0 -118 116q0 37 12 85z" />
<glyph unicode="m" horiz-adv-x="1867" d="M201 -25l211 838q11 38 11 61q0 6 -1 12q-4 24 -39 25l-125 11l12 49l371 57l10 -10l-129 -424h6q109 199 246 316.5t275 117.5q106 0 138 -79q13 -32 12 -74q0 -64 -28 -152l-41 -129h9q113 203 248 318.5t270 115.5q82 0 125 -41t44 -107v-7q0 -64 -20 -142l-157 -536 q-12 -43 -12 -69q0 -44 32 -44q39 0 92.5 71.5t91.5 145.5l50 -29q-57 -129 -143.5 -212t-190.5 -83q-77 -1 -105 53q-14 28 -15 66q0 36 13 82l176 602q10 34 10 61q0 25 -9 44q-19 39 -70 39q-80 0 -171 -84t-155.5 -184.5t-107.5 -200.5q-51 -119 -146 -453l-178 -25 l53 201l152 574q13 51 13 87q0 85 -75 85q-115 0 -245.5 -162t-194.5 -324q-39 -100 -135 -436z" />
<glyph unicode="n" horiz-adv-x="1265" d="M201 -25l215 838q12 36 12 58q0 9 -2 15q-6 24 -41 25l-127 11l12 49l375 57l10 -10l-133 -447h6q98 190 245 323.5t288 133.5q119 0 153 -88q15 -39 16 -85q0 -57 -24 -124l-159 -536q-12 -43 -12 -69q0 -44 32 -44q39 0 92 71.5t92 145.5l49 -29q-57 -129 -143 -212 t-194 -83q-80 -1 -107 57q-13 28 -13 63q0 37 15 81l176 600q9 30 9 57q0 25 -8 45q-17 44 -68 44q-78 0 -170 -85t-159 -188.5t-110 -202.5q-63 -152 -147 -446z" />
<glyph unicode="o" horiz-adv-x="1099" d="M172 346q0 61 15.5 139t57.5 176.5t106.5 178.5t175 134t247.5 54q68 0 128.5 -17.5t116.5 -55t89 -111.5t33 -174q0 -229 -129 -432q-166 -262 -463 -263q-186 0 -281.5 100.5t-95.5 270.5zM371 264q0 -217 184 -217q80 0 147.5 58.5t110.5 143.5t74 185.5t43 179 t12 127.5q0 215 -170 215q-96 0 -176 -75.5t-127 -188t-72.5 -226.5t-25.5 -202z" />
<glyph unicode="p" horiz-adv-x="1208" d="M117 -496l286 1309q8 35 9.5 52.5t-7 30.5t-32.5 15l-127 11l12 49l371 57l10 -10l-117 -432h6q113 211 253.5 326.5t262.5 115.5q227 0 228 -274q0 -55 -17.5 -141.5t-64.5 -200t-114.5 -208.5t-184.5 -162t-258 -67q-147 0 -221 45l-113 -491zM432 109q72 -61 180 -62 q117 0 211.5 86t144.5 208t75.5 230.5t25.5 180.5q0 170 -111 170q-82 0 -183 -98.5t-181 -237.5q-101 -178 -162 -477z" />
<glyph unicode="q" horiz-adv-x="1144" d="M150 219q0 88 24.5 191.5t81.5 214t137 199.5t204 146.5t269 57.5q121 0 201 -45l88 92h78l-365 -1530l-190 -41l203 885h-7q-113 -188 -257 -301t-273 -113q-84 0 -139 59.5t-55 184.5zM352 252q0 -170 99 -170q129 0 311 237q174 233 250 594q-59 43 -144 43 q-119 0 -222 -80.5t-164.5 -197.5t-95.5 -230.5t-34 -195.5z" />
<glyph unicode="r" horiz-adv-x="823" d="M213 -25l188 838q8 39 9.5 55.5t-7 28.5t-32.5 14l-127 11l12 49l352 57l10 -10l-92 -340h4q82 164 180.5 257t186.5 93q47 0 71 -24q22 -22 21 -59v-7q0 -45 -29.5 -86t-66.5 -41q-33 0 -73 25.5t-70 25.5q-59 0 -129 -122t-125 -322q-18 -66 -55.5 -216.5t-51.5 -201.5 z" />
<glyph unicode="s" horiz-adv-x="796" d="M111 170q0 43 30.5 77t75.5 34q47 0 66 -62q25 -80 76 -126t108 -46q66 0 106.5 41t40.5 113q0 127 -141 239q-180 145 -180 287q0 129 90 215t242 86q125 0 192.5 -51t67.5 -109q0 -43 -32 -68.5t-67 -25.5q-41 0 -57 41q-63 141 -164 141q-55 0 -91 -41t-36 -92 q0 -106 146 -225q102 -84 145 -155.5t43 -157.5q0 -131 -96 -220.5t-258 -89.5q-137 0 -222 61.5t-85 133.5z" />
<glyph unicode="t" horiz-adv-x="698" d="M254 32q-12 27 -12 61q0 37 14 83l184 750h-170l23 78h166l26 100l199 158l25 -15l-70 -243h260l-22 -78h-256l-183 -746q-8 -30 -8 -51q0 -47 39 -47q43 0 106.5 70.5t108.5 146.5l45 -35q-68 -127 -165 -208t-212 -81q-73 1 -98 57z" />
<glyph unicode="u" horiz-adv-x="1265" d="M258 922l12 49l373 57l10 -10l-196 -756q-15 -58 -15 -98q0 -82 66 -82q117 0 237.5 147.5t200.5 331.5q59 139 146 443l182 24l-219 -835q-10 -38 -10 -63q0 -48 36 -48q61 0 189 217l49 -31q-59 -125 -148.5 -209t-193.5 -84q-112 0 -112 112q0 46 18 110l67 233h-4 q-98 -190 -245.5 -322.5t-288.5 -132.5q-158 0 -158 161q0 58 20 136l142 541q10 35 10 57q0 8 -1 14q-5 24 -40 27z" />
<glyph unicode="v" horiz-adv-x="1044" d="M244 922l12 49l362 57l11 -10l-178 -793q-7 -31 -7 -56q0 -31 11 -51q20 -36 61 -36h3q81 0 183 100q104 102 179 257t84 290q0 170 -25 256q70 43 150 43q8 0 23 -22.5t27.5 -61.5t12.5 -76q-2 -96 -68.5 -246.5t-171.5 -291.5q-262 -354 -495 -355q-92 0 -131 67 q-23 39 -23 101q0 45 12 101l125 569q8 36 8 58q0 9 -1 15q-5 22 -37 25z" />
<glyph unicode="w" horiz-adv-x="1607" d="M250 922l10 49l367 57l10 -10l-180 -770q-10 -42 -10 -73t10 -52q20 -41 63 -41q111 0 262 229q111 168 232 635q10 35 14 51l176 13l-143 -645q-20 -91 -20 -153q0 -130 87 -130q80 0 177.5 106.5t166 266t68.5 295.5q0 150 -24 235q70 43 147 43q8 0 23.5 -21.5 t27.5 -60.5t12 -78q-2 -92 -65.5 -243.5t-163.5 -296.5q-242 -352 -457 -353q-88 0 -130 54.5t-42 144.5q0 51 33 219l-4 4q-94 -188 -222 -305t-253 -117q-92 0 -135 70q-25 40 -25 103q0 47 14 106l130 559q10 37 10 59q0 10 -2 16q-6 22 -39 23z" />
<glyph unicode="x" horiz-adv-x="1056" d="M63 80q0 39 25 70.5t64 31.5q20 0 81 -30q33 -18 60 -19q61 0 213 256l57 98l-74 297q-16 68 -30.5 86.5t-42.5 16.5l-154 -10l-6 49l338 102l12 -8l82 -344h4l90 139q133 213 273 213q104 0 104 -88q0 -41 -26.5 -69.5t-61.5 -28.5q-25 0 -65 16q-31 16 -58 16 q-72 0 -237 -294l65 -269q35 -141 53.5 -185t47.5 -44q20 0 40.5 15.5t45 53t36 58t39.5 74.5l54 -29q-31 -63 -52.5 -99t-57.5 -84t-81 -72t-98 -24q-74 0 -112 59.5t-70 192.5l-37 160h-4l-82 -135q-39 -61 -52.5 -84t-49.5 -71t-60.5 -66.5t-62 -37t-78.5 -18.5 q-59 0 -95.5 30t-36.5 75z" />
<glyph unicode="y" horiz-adv-x="958" d="M-10 -383q0 45 32.5 83t71.5 40q35 0 72 -49q47 -63 84 -64q31 0 66.5 40t64.5 106q49 119 49 254q0 238 -68 716q-12 84 -25 113t-46 27l-139 -4l-7 51l344 98l17 -8q53 -281 82 -895h6q250 430 289 569q27 96 27 236q0 23 -1 47q76 51 160 51q8 0 16.5 -13.5t14.5 -41 t6 -60.5q0 -16 -6 -39.5t-22.5 -57.5t-31 -61.5t-42 -74.5t-44 -74.5t-51.5 -84t-49 -81.5q-57 -92 -117.5 -196.5t-112.5 -194.5t-61 -104q-68 -117 -99.5 -169t-77.5 -118t-79.5 -91.5t-78 -44t-95.5 -18.5q-66 0 -107.5 35t-41.5 78z" />
<glyph unicode="z" horiz-adv-x="958" d="M80 36.5q0 61.5 49 110.5q45 47 719 725h-361q-35 0 -60.5 -9t-50 -39.5t-37.5 -52t-46 -81.5l-51 23q61 195 137 291h665l17 -29q-252 -246 -709 -723q51 -6 193 -57q158 -59 231 -60q43 0 81 41t57.5 83t54.5 126l57 -14q-49 -193 -104.5 -294.5t-145.5 -101.5 q-94 0 -301 82q-49 18 -101 44t-81 38.5t-43 12.5q-27 0 -27 -37v-90q0 -23 -33.5 -36.5t-62.5 -13.5q-47 0 -47 61.5z" />
<glyph unicode="{" horiz-adv-x="696" d="M276 -80q-2 92 93 299q25 55 34 77.5t24 72t11 73t-15 52t-47 42t-93 15.5l16 53q66 2 111 22.5t68.5 49.5t35.5 77t14 87t4 96v16q4 84 13.5 146.5t34 126t64.5 102.5t105.5 64.5t153.5 25.5h35l-14 -51q-170 -12 -217 -131q-25 -70 -29 -221q-6 -205 -29 -269 q-43 -123 -215 -161v-13q76 -16 112 -51t30.5 -97.5t-27 -121.5t-68.5 -160q-78 -176 -75 -237q6 -104 161 -115l-16 -51h-23q-102 0 -175 43t-77 139z" />
<glyph unicode="|" horiz-adv-x="552" d="M338 -512v2048h139v-2048h-139z" />
<glyph unicode="}" horiz-adv-x="696" d="M31 -262l14 51q170 12 217 131q23 61 29 221q6 205 28 269q43 123 216 161v13q-76 16 -112 51t-31 97.5t26.5 121.5t68.5 160q78 166 76 237q-6 104 -162 115l17 51h20q102 0 175 -43t77 -139q2 -86 -92 -299q-25 -55 -34 -77.5t-24.5 -72t-11.5 -73t15.5 -52t47.5 -42 t93 -15.5l-16 -53q-63 -2 -107.5 -23.5t-67 -42t-37 -77t-15.5 -79t-5 -96.5q-2 -20 -2 -30q-6 -109 -20.5 -181.5t-51 -143.5t-111.5 -105.5t-188 -34.5h-32z" />
<glyph unicode="~" horiz-adv-x="1167" d="M272 412q47 100 106.5 158.5t160.5 58.5q70 0 190 -47q133 -47 172 -47q51 0 81 23.5t77 92.5l82 -51q-94 -207 -246 -207q-57 0 -195 47q-125 47 -184 47q-55 0 -90 -29.5t-70 -97.5z" />
<glyph unicode="&#xa1;" horiz-adv-x="491" d="M40 -405.5q-17 38.5 9 100.5l287 880h57l-112 -890q-8 -63 -39 -96t-107 -33q-78 0 -95 38.5zM309 887q0 63 37 102t96 39q53 0 85 -32.5t32 -84.5q0 -63 -37 -101t-96 -38q-53 0 -85 34t-32 81z" />
<glyph unicode="&#xa2;" d="M264 563q4 250 163 453t411 211l30 143l84 -2l-28 -141q117 -4 210 -60.5t91 -142.5q0 -45 -38 -69.5t-77 -22.5q-45 0 -55 51q-18 78 -60.5 123t-87.5 47l-202 -889q199 0 348 187l45 -39q-150 -229 -414 -234l-49 -221h-84l49 221q-55 2 -109.5 21.5t-108.5 60.5 t-87 120t-31 183zM459 567q-4 -242 166 -284l196 870q-111 0 -196.5 -104.5t-124.5 -234.5t-41 -247z" />
<glyph unicode="&#xa3;" d="M90 10l47 82q141 49 236.5 109.5t126.5 156.5q33 96 0 238h-250l18 78h219q-53 158 -51 303q4 176 116 296t316 120q154 0 242 -65.5t86 -135.5q0 -49 -34 -73.5t-70 -24.5q-39 0 -52 51q-51 176 -209 176q-98 0 -157.5 -71.5t-63.5 -186.5q-2 -49 5.5 -104.5t15.5 -90 t26.5 -101.5t24.5 -93h303l-18 -78h-277q4 -57 -8 -121q-33 -188 -268 -319l2 -9h444q25 0 46.5 6.5t35.5 11.5t30.5 20.5t22.5 21.5t21.5 25.5t17.5 23.5l53 -20l-131 -236h-860z" />
<glyph unicode="&#xa5;" d="M219 383l21 74h307l33 180h-306l21 74h266l-137 514q-20 78 -62 80l-71 4l14 59h451l-13 -59l-86 -4q-61 -2 -49 -58l123 -536h4q53 78 183.5 263t175.5 257q41 68 -4 69l-105 9l12 59h396l-13 -59l-43 -2q-76 -2 -149 -103l-371 -493h285l-19 -74h-319l-43 -180h334 l-19 -74h-331l-56 -254q-10 -53 51 -59l123 -11l-12 -59h-541l13 59l123 11q55 4 67 59l57 254h-311z" />
<glyph unicode="&#xa7;" d="M184 -47q0 49 33 73.5t65.5 24.5t55.5 -53q68 -162 211 -162q72 0 124 50.5t54 131.5q0 37 -5 66t-24.5 74t-69.5 95t-130 101q-106 70 -166 145.5t-73 127t-11 110.5q2 127 78.5 240t197.5 194q12 98 102.5 187.5t256.5 89.5q133 0 206.5 -52.5t73.5 -113.5 q-2 -41 -32.5 -61.5t-65.5 -20.5q-31 0 -53 51q-55 125 -172 125q-72 0 -125 -50t-56 -124q0 -143 203 -272q139 -90 200.5 -182.5t59.5 -217.5q-4 -229 -250 -450q-14 -141 -110 -228.5t-262 -87.5q-141 0 -229.5 59.5t-86.5 129.5zM371 831q-4 -178 211 -329 q258 -178 284 -328q135 102 138 250q2 195 -207 344q-248 172 -269 309q-66 -35 -110.5 -99.5t-46.5 -146.5z" />
<glyph unicode="&#xa8;" horiz-adv-x="819" d="M424 1272q0 55 34.5 90t86.5 35q45 0 71.5 -30t26.5 -71q0 -53 -33 -89t-86 -36q-47 0 -73.5 28t-26.5 73zM850 1272q0 55 34.5 90t86.5 35q45 0 71.5 -30t26.5 -71q0 -53 -33 -89t-86 -36q-47 0 -73.5 28t-26.5 73z" />
<glyph unicode="&#xa9;" horiz-adv-x="1712" d="M258 708.5q0 307.5 218 523.5t527.5 216t527.5 -216t218 -523.5t-218 -523.5t-527.5 -216t-527.5 216t-218 523.5zM389 708.5q0 -272.5 178 -460t436.5 -187.5t436.5 187.5t178 460t-178 460t-436.5 187.5t-436.5 -187.5t-178 -460zM614 713q0 190 112 301.5t321 111.5 q174 0 272 -63v-201h-41q-18 98 -68.5 152.5t-167.5 54.5q-133 0 -197.5 -96t-64.5 -242q0 -70 13.5 -131t43 -116.5t85 -88.5t131.5 -33q98 0 155.5 50.5t85.5 160.5h41l-22 -204q-86 -63 -281 -64q-215 0 -316.5 111t-101.5 297z" />
<glyph unicode="&#xaa;" horiz-adv-x="870" d="M229 698.5q0 67.5 32 151.5t88.5 166t152.5 137t209 55q68 0 112 -26l6 16h150l-143 -493q-23 -76 8 -76q45 0 129 131l41 -25q-43 -86 -110.5 -139t-143.5 -53q-49 0 -69.5 35.5t-2.5 97.5l41 139h-6q-178 -272 -356 -272q-70 0 -104 44t-34 111.5zM391 700 q0 -72 62 -71q45 0 103 52t110 130q92 137 147 313q-20 27 -86 27q-94 0 -175 -84t-121 -186.5t-40 -180.5z" />
<glyph unicode="&#xab;" horiz-adv-x="946" d="M239 457q-23 33 8 63l347 371l40 -35l-208 -334q-20 -33 -9 -69l113 -338l-47 -31zM639 457q-23 33 8 63l347 371l40 -35l-208 -334q-20 -33 -9 -69l113 -338l-47 -31z" />
<glyph unicode="&#xac;" horiz-adv-x="1167" d="M190 678v119h992v-588h-140v469h-852z" />
<glyph unicode="&#xad;" horiz-adv-x="802" d="M240 442l28 144h502l-29 -144h-501z" />
<glyph unicode="&#xae;" horiz-adv-x="1712" d="M258 708.5q0 307.5 218 523.5t527.5 216t527.5 -216t218 -523.5t-218 -523.5t-527.5 -216t-527.5 216t-218 523.5zM389 708.5q0 -272.5 178 -460t436.5 -187.5t436.5 187.5t178 460t-178 460t-436.5 187.5t-436.5 -187.5t-178 -460zM666 326v41l63 8q41 4 41 57v563 q0 31 -8 44.5t-33 17.5l-63 8v41h368q266 0 266 -193q0 -82 -54 -131t-144 -63v-4q84 -20 114.5 -66.5t45.5 -130.5q14 -80 55 -127q20 -20 72 -35v-30h-91q-119 0 -149 88q-14 43 -29.5 116.5t-23.5 92.5q-29 61 -123 61h-70v-252q0 -53 45 -57l62 -8v-41h-344zM903 741h78 q176 0 176 156q0 152 -162 152q-59 0 -75.5 -9.5t-16.5 -33.5v-265z" />
<glyph unicode="&#xaf;" horiz-adv-x="819" d="M467 1223l37 120h569l-37 -120h-569z" />
<glyph unicode="&#xb0;" horiz-adv-x="819" d="M383 1110q-2 115 82 199t201 84q115 0 198.5 -84t83.5 -199q0 -117 -84 -200t-198 -83q-117 0 -200 83t-83 200zM498 1110q0 -78 49 -131t119 -53q68 0 118 53t50 131t-50.5 131t-119.5 53q-68 0 -118 -53t-48 -131z" />
<glyph unicode="&#xb1;" horiz-adv-x="1167" d="M190 0v119h992v-119h-992zM190 637v119h428v383h140v-383h424v-119h-424v-404h-140v404h-428z" />
<glyph unicode="&#xb4;" horiz-adv-x="819" d="M510 1151l244 246q82 84 131 84q25 0 52.5 -30t27.5 -58q0 -49 -115 -111l-309 -172z" />
<glyph unicode="&#xb5;" horiz-adv-x="1265" d="M100 -383l316 1196q14 47 9 71.5t-40 26.5l-127 11l12 49l373 57l10 -10l-196 -756q-47 -180 51 -180q117 0 237.5 147.5t200.5 331.5q59 139 146 443l182 24l-219 -835q-29 -111 26 -111q61 0 189 217l49 -31q-59 -125 -148.5 -209t-193.5 -84q-158 0 -94 222l67 233h-4 q-96 -188 -242.5 -321.5t-277.5 -133.5q-61 0 -111 48l-16 -66q-23 -82 -4 -180q23 -104 22 -125q0 -49 -59 -88t-111 -39q-72 0 -47 92z" />
<glyph unicode="&#xb6;" horiz-adv-x="1146" d="M295 895q0 213 160.5 367.5t394.5 154.5h24l-188 -905h-22q-162 0 -265.5 108.5t-103.5 274.5zM485 -207l11 53l155 19q33 4 49.5 21.5t24.5 60.5l307 1470h344l-10 -53l-143 -18q-33 -4 -48.5 -18.5t-23.5 -57.5l-309 -1477h-357z" />
<glyph unicode="&#xb7;" horiz-adv-x="542" d="M254 500q0 63 37 101t96 38q53 0 85 -33.5t32 -80.5q0 -63 -37 -102.5t-96 -39.5q-53 0 -85 33t-32 84z" />
<glyph unicode="&#xb8;" horiz-adv-x="819" d="M199 -451l8 50q82 -10 141.5 11t59.5 89q0 43 -31 73.5t-82 32.5l-6 19l123 176h92l-90 -123q74 -10 117.5 -66.5t29.5 -132.5q-14 -68 -78.5 -108.5t-148.5 -40.5t-135 20z" />
<glyph unicode="&#xba;" horiz-adv-x="796" d="M248 784q0 139 82 256q113 168 321 168q117 0 199 -57t82 -195q0 -125 -80 -245q-117 -168 -332 -168q-131 0 -201.5 66t-70.5 175zM408 735q0 -66 30.5 -100.5t83.5 -34.5q115 0 191 168q59 133 59 244q0 139 -113 139q-109 0 -180 -145.5t-71 -270.5z" />
<glyph unicode="&#xbb;" horiz-adv-x="946" d="M131 119l209 334q20 33 8 69l-113 338l47 31l244 -373q23 -33 -8 -63l-346 -371zM531 119l209 334q20 33 8 69l-113 338l47 31l244 -373q23 -33 -8 -63l-346 -371z" />
<glyph unicode="&#xbf;" horiz-adv-x="870" d="M78 -184q0 121 62.5 188.5t199.5 136.5q115 57 174 113.5t59 130.5q0 61 -36.5 90t-94.5 29q-14 0 -88 -6l-12 34q88 63 201 64q86 0 149.5 -44t63.5 -132q0 -129 -213 -252q-139 -82 -207 -185.5t-68 -205.5q0 -68 31 -109t90 -41q121 0 205 213q14 39 63 39 q29 0 60 -24.5t31 -65.5q0 -76 -96.5 -154.5t-252.5 -78.5q-147 0 -234 71.5t-87 188.5zM526 887q0 63 37 102t96 39q53 0 85 -32.5t32 -84.5q0 -63 -37 -101t-96 -38q-53 0 -85 34t-32 81z" />
<glyph unicode="&#xc0;" horiz-adv-x="1277" d="M-47 0l12 59l68 9q49 4 83 30.5t81 104.5q6 10 350 610l344 604h145l152 -1233q8 -68 22.5 -91t59.5 -27l78 -7l-13 -59h-504l13 59l108 11q33 4 44.5 20t7.5 60l-48 397h-458q-59 -109 -211 -402q-31 -70 26 -75l113 -11l-12 -59h-461zM539 625h407l-72 602h-4 q-245 -442 -331 -602zM629 1722q0 29 22.5 66t57.5 37q33 0 119 -58l297 -202l-23 -45l-348 114q-49 14 -70.5 23.5t-38 25.5t-16.5 39z" />
<glyph unicode="&#xc1;" horiz-adv-x="1277" d="M-47 0l12 59l68 9q49 4 83 30.5t81 104.5q6 10 350 610l344 604h145l152 -1233q8 -68 22.5 -91t59.5 -27l78 -7l-13 -59h-504l13 59l108 11q33 4 44.5 20t7.5 60l-48 397h-458q-59 -109 -211 -402q-31 -70 26 -75l113 -11l-12 -59h-461zM539 625h407l-72 602h-4 q-245 -442 -331 -602zM799 1565l297 202q86 57 119 58q35 0 57.5 -37t22.5 -66q0 -23 -16.5 -39t-38 -25t-70.5 -24l-349 -114z" />
<glyph unicode="&#xc2;" horiz-adv-x="1277" d="M-47 0l12 59l68 9q49 4 83 30.5t81 104.5q6 10 350 610l344 604h145l152 -1233q8 -68 22.5 -91t59.5 -27l78 -7l-13 -59h-504l13 59l108 11q33 4 44.5 20t7.5 60l-48 397h-458q-59 -109 -211 -402q-31 -70 26 -75l113 -11l-12 -59h-461zM539 625h407l-72 602h-4 q-245 -442 -331 -602zM645 1520l287 227q57 47 86 47q27 0 68 -51l186 -225l-37 -39l-184 120q-43 33 -66 33q-20 0 -73 -28l-240 -125z" />
<glyph unicode="&#xc3;" horiz-adv-x="1277" d="M-47 0l12 59l68 9q49 4 83 30.5t81 104.5q6 10 350 610l344 604h145l152 -1233q8 -68 22.5 -91t59.5 -27l78 -7l-13 -59h-504l13 59l108 11q33 4 44.5 20t7.5 60l-48 397h-458q-59 -109 -211 -402q-31 -70 26 -75l113 -11l-12 -59h-461zM539 625h407l-72 602h-4 q-245 -442 -331 -602zM612 1508q23 45 37 68.5t43 60.5t66 54t84 17q57 0 161 -39q121 -39 156 -38q41 0 67.5 18t71.5 76l41 -23q-51 -100 -97 -147t-116 -47q-39 0 -164 39q-113 39 -163 38q-49 0 -81 -23.5t-67 -80.5z" />
<glyph unicode="&#xc4;" horiz-adv-x="1277" d="M-47 0l12 59l68 9q49 4 83 30.5t81 104.5q6 10 350 610l344 604h145l152 -1233q8 -68 22.5 -91t59.5 -27l78 -7l-13 -59h-504l13 59l108 11q33 4 44.5 20t7.5 60l-48 397h-458q-59 -109 -211 -402q-31 -70 26 -75l113 -11l-12 -59h-461zM539 625h407l-72 602h-4 q-245 -442 -331 -602zM655 1612q0 55 34.5 90t86.5 35q45 0 71.5 -30t26.5 -71q0 -53 -33 -89t-86 -36q-47 0 -73.5 28t-26.5 73zM1081 1612q0 55 34.5 90t86.5 35q45 0 71.5 -30t26.5 -71q0 -53 -33 -89t-86 -36q-47 0 -73.5 28t-26.5 73z" />
<glyph unicode="&#xc5;" horiz-adv-x="1277" d="M-47 0l12 59l68 9q49 4 83 30.5t81 104.5q6 10 350 610l319 551q-111 43 -110 162q0 33 10 67.5t33.5 75.5t78 67.5t128.5 26.5q80 0 136 -49t56 -137q0 -92 -45 -145.5t-111 -69.5l146 -1178q8 -68 22.5 -91t59.5 -27l78 -7l-13 -59h-504l13 59l108 11q33 4 44.5 20 t7.5 60l-48 397h-458q-59 -109 -211 -402q-31 -70 26 -75l113 -11l-12 -59h-461zM539 625h407l-72 602h-4q-274 -493 -331 -602zM872 1526q0 -53 24 -81t60 -28q51 0 82 39t37 74t6 67q0 45 -23.5 72t-58.5 27q-66 0 -96.5 -58.5t-30.5 -111.5z" />
<glyph unicode="&#xc6;" horiz-adv-x="1802" d="M-109 0l17 59l69 7q41 4 69 24.5t65 65.5q246 299 815 1071q86 115 24 119l-137 12l18 59h1168l-78 -342h-61q10 92 5 152.5t-59.5 89.5t-179.5 29h-248q-27 0 -38 -11.5t-19 -48.5l-117 -510h269q90 0 136 16.5t68.5 48t51.5 109.5h61l-94 -428h-62q6 109 -22.5 142.5 t-155.5 33.5h-268l-105 -448q-16 -72 -14 -102.5t25 -49.5q35 -27 229 -26q197 0 285 53t164 235h61l-104 -360h-1070l13 59l114 13q37 2 54.5 23.5t29.5 74.5l119 528h-342q-238 -317 -387 -553q-45 -70 14 -75l121 -11l-16 -59h-488zM702 776h306l129 563h-11z" />
<glyph unicode="&#xc7;" horiz-adv-x="1353" d="M233 563q0 287 140 512q100 164 280.5 268.5t446.5 104.5q117 0 243.5 -28.5t208.5 -80.5l-73 -307h-62q8 174 -69.5 259t-264.5 85q-309 0 -483 -291q-72 -119 -109.5 -274.5t-37.5 -300.5q0 -229 111.5 -349t295.5 -120q174 0 273.5 82t195.5 258h62l-101 -326 q-172 -86 -416 -86h-14l-67 -92q74 -10 117.5 -66.5t29.5 -132.5q-14 -68 -78.5 -108.5t-148.5 -40.5t-135 20l8 50q82 -10 141 11t59 89q0 43 -30.5 73.5t-81.5 32.5l-6 19l104 151q-123 10 -218 52.5t-154.5 99.5t-98.5 132t-53.5 149.5t-14.5 154.5z" />
<glyph unicode="&#xc8;" horiz-adv-x="1220" d="M78 0l12 59l115 13q37 2 54 23.5t30 74.5l246 1081q12 53 1.5 74t-47.5 25l-122 8l14 59h1036l-78 -342h-61q10 92 5 152.5t-59.5 89.5t-179.5 29h-247q-27 0 -38 -11.5t-20 -48.5l-116 -510h268q90 0 136 16.5t68.5 48t51.5 109.5h61l-94 -428h-61q6 109 -23 142.5 t-156 33.5h-268l-104 -448q-16 -72 -14.5 -102.5t24.5 -49.5q35 -27 229 -26q197 0 285 53t164 235h61l-104 -360h-1069zM641 1722q0 29 22.5 66t57.5 37q33 0 119 -58l297 -202l-23 -45l-348 114q-49 14 -70.5 23.5t-38 25.5t-16.5 39z" />
<glyph unicode="&#xc9;" horiz-adv-x="1220" d="M78 0l12 59l115 13q37 2 54 23.5t30 74.5l246 1081q12 53 1.5 74t-47.5 25l-122 8l14 59h1036l-78 -342h-61q10 92 5 152.5t-59.5 89.5t-179.5 29h-247q-27 0 -38 -11.5t-20 -48.5l-116 -510h268q90 0 136 16.5t68.5 48t51.5 109.5h61l-94 -428h-61q6 109 -23 142.5 t-156 33.5h-268l-104 -448q-16 -72 -14.5 -102.5t24.5 -49.5q35 -27 229 -26q197 0 285 53t164 235h61l-104 -360h-1069zM817 1565l297 202q86 57 119 58q35 0 57.5 -37t22.5 -66q0 -23 -16.5 -39t-38 -25t-70.5 -24l-349 -114z" />
<glyph unicode="&#xca;" horiz-adv-x="1220" d="M78 0l12 59l115 13q37 2 54 23.5t30 74.5l246 1081q12 53 1.5 74t-47.5 25l-122 8l14 59h1036l-78 -342h-61q10 92 5 152.5t-59.5 89.5t-179.5 29h-247q-27 0 -38 -11.5t-20 -48.5l-116 -510h268q90 0 136 16.5t68.5 48t51.5 109.5h61l-94 -428h-61q6 109 -23 142.5 t-156 33.5h-268l-104 -448q-16 -72 -14.5 -102.5t24.5 -49.5q35 -27 229 -26q197 0 285 53t164 235h61l-104 -360h-1069zM628 1520l287 227q57 47 86 47q27 0 68 -51l186 -225l-37 -39l-184 120q-43 33 -66 33q-20 0 -73 -28l-240 -125z" />
<glyph unicode="&#xcb;" horiz-adv-x="1220" d="M78 0l12 59l115 13q37 2 54 23.5t30 74.5l246 1081q12 53 1.5 74t-47.5 25l-122 8l14 59h1036l-78 -342h-61q10 92 5 152.5t-59.5 89.5t-179.5 29h-247q-27 0 -38 -11.5t-20 -48.5l-116 -510h268q90 0 136 16.5t68.5 48t51.5 109.5h61l-94 -428h-61q6 109 -23 142.5 t-156 33.5h-268l-104 -448q-16 -72 -14.5 -102.5t24.5 -49.5q35 -27 229 -26q197 0 285 53t164 235h61l-104 -360h-1069zM627 1612q0 55 34.5 90t86.5 35q45 0 71.5 -30t26.5 -71q0 -53 -33 -89t-86 -36q-47 0 -73.5 28t-26.5 73zM1053 1612q0 55 34.5 90t86.5 35 q45 0 71.5 -30t26.5 -71q0 -53 -33 -89t-86 -36q-47 0 -73.5 28t-26.5 73z" />
<glyph unicode="&#xcc;" horiz-adv-x="706" d="M82 0l12 59l113 13q37 2 56.5 25.5t29.5 72.5l246 1077q23 96 -45 103l-121 8l14 59h561l-14 -59l-113 -10q-37 -2 -55 -27t-31 -74l-246 -1077q-23 -96 46 -102l120 -9l-12 -59h-561zM373 1722q0 29 22.5 66t57.5 37q33 0 119 -58l297 -202l-23 -45l-348 114 q-49 14 -70.5 23.5t-38 25.5t-16.5 39z" />
<glyph unicode="&#xcd;" horiz-adv-x="706" d="M82 0l12 59l113 13q37 2 56.5 25.5t29.5 72.5l246 1077q23 96 -45 103l-121 8l14 59h561l-14 -59l-113 -10q-37 -2 -55 -27t-31 -74l-246 -1077q-23 -96 46 -102l120 -9l-12 -59h-561zM500 1565l297 202q86 57 119 58q35 0 57.5 -37t22.5 -66q0 -23 -16.5 -39t-38 -25 t-70.5 -24l-349 -114z" />
<glyph unicode="&#xce;" horiz-adv-x="706" d="M82 0l12 59l113 13q37 2 56.5 25.5t29.5 72.5l246 1077q23 96 -45 103l-121 8l14 59h561l-14 -59l-113 -10q-37 -2 -55 -27t-31 -74l-246 -1077q-23 -96 46 -102l120 -9l-12 -59h-561zM372 1520l287 227q57 47 86 47q27 0 68 -51l186 -225l-37 -39l-184 120 q-43 33 -66 33q-20 0 -73 -28l-240 -125z" />
<glyph unicode="&#xcf;" horiz-adv-x="706" d="M82 0l12 59l113 13q37 2 56.5 25.5t29.5 72.5l246 1077q23 96 -45 103l-121 8l14 59h561l-14 -59l-113 -10q-37 -2 -55 -27t-31 -74l-246 -1077q-23 -96 46 -102l120 -9l-12 -59h-561zM371 1612q0 55 34.5 90t86.5 35q45 0 71.5 -30t26.5 -71q0 -53 -33 -89t-86 -36 q-47 0 -73.5 28t-26.5 73zM797 1612q0 55 34.5 90t86.5 35q45 0 71.5 -30t26.5 -71q0 -53 -33 -89t-86 -36q-47 0 -73.5 28t-26.5 73z" />
<glyph unicode="&#xd0;" horiz-adv-x="1576" d="M96 0l13 59l114 13q37 2 55.5 24.5t28.5 73.5l119 528h-219l20 78h217l107 471q10 51 1 75t-44 26l-121 10l12 59h551q356 0 531 -147q86 -72 131 -185.5t45 -242.5q0 -264 -137 -471q-246 -371 -795 -371h-629zM504 176q-14 -63 28.5 -83.5t139.5 -20.5q242 0 390 82 t243 237q133 219 133 496q0 59 -6.5 110.5t-34 118t-74.5 113.5t-137 80.5t-211 36.5q-129 0 -170 -12.5t-53 -63.5l-111 -494h281l-23 -78h-276z" />
<glyph unicode="&#xd1;" horiz-adv-x="1562" d="M63 0l11 59l63 7q92 8 121 88q37 102 72 254l192 839q23 92 -45 99l-121 12l15 59h389q172 -383 524 -1149h8l168 742q33 147 43 254q4 47 -17.5 63t-76.5 23l-80 8l10 59h484l-11 -59l-63 -6q-92 -8 -121 -88q-37 -102 -72 -254l-229 -1010h-133q-377 831 -569 1247h-7 l-192 -839q-33 -147 -43 -254q-4 -45 18.5 -64.5t75.5 -23.5l80 -7l-10 -59h-484zM755 1508q23 45 37 68.5t43 60.5t66 54t84 17q57 0 161 -39q121 -39 156 -38q41 0 67.5 18t71.5 76l41 -23q-51 -100 -97 -147t-116 -47q-39 0 -164 39q-113 39 -163 38q-49 0 -81 -23.5 t-67 -80.5z" />
<glyph unicode="&#xd2;" horiz-adv-x="1542" d="M233 553q0 279 142 518q227 377 649 377q268 0 430 -149.5t162 -450.5q0 -256 -129 -490q-98 -178 -251 -283.5t-402 -105.5q-295 0 -448 160t-153 424zM449 471q0 -209 98 -319.5t268 -110.5q332 0 490 410q96 250 96 503q0 211 -97.5 316.5t-271.5 105.5 q-291 0 -457 -344q-126 -268 -126 -561zM772 1722q0 29 22.5 66t57.5 37q33 0 119 -58l297 -202l-23 -45l-348 114q-49 14 -70.5 23.5t-38 25.5t-16.5 39z" />
<glyph unicode="&#xd3;" horiz-adv-x="1542" d="M233 553q0 279 142 518q227 377 649 377q268 0 430 -149.5t162 -450.5q0 -256 -129 -490q-98 -178 -251 -283.5t-402 -105.5q-295 0 -448 160t-153 424zM449 471q0 -209 98 -319.5t268 -110.5q332 0 490 410q96 250 96 503q0 211 -97.5 316.5t-271.5 105.5 q-291 0 -457 -344q-126 -268 -126 -561zM922 1565l297 202q86 57 119 58q35 0 57.5 -37t22.5 -66q0 -23 -16.5 -39t-38 -25t-70.5 -24l-349 -114z" />
<glyph unicode="&#xd4;" horiz-adv-x="1542" d="M233 553q0 279 142 518q227 377 649 377q268 0 430 -149.5t162 -450.5q0 -256 -129 -490q-98 -178 -251 -283.5t-402 -105.5q-295 0 -448 160t-153 424zM449 471q0 -209 98 -319.5t268 -110.5q332 0 490 410q96 250 96 503q0 211 -97.5 316.5t-271.5 105.5 q-291 0 -457 -344q-126 -268 -126 -561zM765 1520l287 227q57 47 86 47q27 0 68 -51l186 -225l-37 -39l-184 120q-43 33 -66 33q-20 0 -73 -28l-240 -125z" />
<glyph unicode="&#xd5;" horiz-adv-x="1542" d="M233 553q0 279 142 518q227 377 649 377q268 0 430 -149.5t162 -450.5q0 -256 -129 -490q-98 -178 -251 -283.5t-402 -105.5q-295 0 -448 160t-153 424zM449 471q0 -209 98 -319.5t268 -110.5q332 0 490 410q96 250 96 503q0 211 -97.5 316.5t-271.5 105.5 q-291 0 -457 -344q-126 -268 -126 -561zM721 1508q23 45 37 68.5t43 60.5t66 54t84 17q57 0 161 -39q121 -39 156 -38q41 0 67.5 18t71.5 76l41 -23q-51 -100 -97 -147t-116 -47q-39 0 -164 39q-113 39 -163 38q-49 0 -81 -23.5t-67 -80.5z" />
<glyph unicode="&#xd6;" horiz-adv-x="1542" d="M233 553q0 279 142 518q227 377 649 377q268 0 430 -149.5t162 -450.5q0 -256 -129 -490q-98 -178 -251 -283.5t-402 -105.5q-295 0 -448 160t-153 424zM449 471q0 -209 98 -319.5t268 -110.5q332 0 490 410q96 250 96 503q0 211 -97.5 316.5t-271.5 105.5 q-291 0 -457 -344q-126 -268 -126 -561zM789 1612q0 55 34.5 90t86.5 35q45 0 71.5 -30t26.5 -71q0 -53 -33 -89t-86 -36q-47 0 -73.5 28t-26.5 73zM1215 1612q0 55 34.5 90t86.5 35q45 0 71.5 -30t26.5 -71q0 -53 -33 -89t-86 -36q-47 0 -73.5 28t-26.5 73z" />
<glyph unicode="&#xd8;" horiz-adv-x="1542" d="M233 553q0 279 142 518q227 377 649 377q211 0 352 -90l119 149l66 -53l-117 -147q172 -152 172 -459q0 -256 -129 -490q-98 -178 -251 -283.5t-402 -105.5q-225 0 -369 99l-127 -160l-62 57l121 154q-164 153 -164 434zM449 471q0 -139 45 -231l811 1028 q-94 109 -273 108q-291 0 -457 -344q-126 -268 -126 -561zM539 162q96 -121 276 -121q332 0 490 410q96 250 96 503q0 143 -47 238z" />
<glyph unicode="&#xd9;" horiz-adv-x="1626" d="M362 524l173 723q23 94 -46 101l-120 10l14 59h561l-14 -59l-113 -8q-37 -2 -55.5 -26t-30.5 -77l-162 -696q-119 -510 281 -510q197 0 295 128t153 363l166 715q23 94 -45 101l-121 10l15 59h561l-14 -59l-113 -10q-37 -2 -55.5 -25t-30.5 -76l-174 -741 q-33 -139 -85 -238.5t-110.5 -157t-137.5 -90t-149.5 -42t-164.5 -9.5q-283 0 -415.5 132t-62.5 423zM741 1722q0 29 22.5 66t57.5 37q33 0 119 -58l297 -202l-23 -45l-348 114q-49 14 -70.5 23.5t-38 25.5t-16.5 39z" />
<glyph unicode="&#xda;" horiz-adv-x="1626" d="M362 524l173 723q23 94 -46 101l-120 10l14 59h561l-14 -59l-113 -8q-37 -2 -55.5 -26t-30.5 -77l-162 -696q-119 -510 281 -510q197 0 295 128t153 363l166 715q23 94 -45 101l-121 10l15 59h561l-14 -59l-113 -10q-37 -2 -55.5 -25t-30.5 -76l-174 -741 q-33 -139 -85 -238.5t-110.5 -157t-137.5 -90t-149.5 -42t-164.5 -9.5q-283 0 -415.5 132t-62.5 423zM1045 1565l297 202q86 57 119 58q35 0 57.5 -37t22.5 -66q0 -23 -16.5 -39t-38 -25t-70.5 -24l-349 -114z" />
<glyph unicode="&#xdb;" horiz-adv-x="1626" d="M362 524l173 723q23 94 -46 101l-120 10l14 59h561l-14 -59l-113 -8q-37 -2 -55.5 -26t-30.5 -77l-162 -696q-119 -510 281 -510q197 0 295 128t153 363l166 715q23 94 -45 101l-121 10l15 59h561l-14 -59l-113 -10q-37 -2 -55.5 -25t-30.5 -76l-174 -741 q-33 -139 -85 -238.5t-110.5 -157t-137.5 -90t-149.5 -42t-164.5 -9.5q-283 0 -415.5 132t-62.5 423zM827 1520l287 227q57 47 86 47q27 0 68 -51l186 -225l-37 -39l-184 120q-43 33 -66 33q-20 0 -73 -28l-240 -125z" />
<glyph unicode="&#xdc;" horiz-adv-x="1626" d="M362 524l173 723q23 94 -46 101l-120 10l14 59h561l-14 -59l-113 -8q-37 -2 -55.5 -26t-30.5 -77l-162 -696q-119 -510 281 -510q197 0 295 128t153 363l166 715q23 94 -45 101l-121 10l15 59h561l-14 -59l-113 -10q-37 -2 -55.5 -25t-30.5 -76l-174 -741 q-33 -139 -85 -238.5t-110.5 -157t-137.5 -90t-149.5 -42t-164.5 -9.5q-283 0 -415.5 132t-62.5 423zM840 1612q0 55 34.5 90t86.5 35q45 0 71.5 -30t26.5 -71q0 -53 -33 -89t-86 -36q-47 0 -73.5 28t-26.5 73zM1266 1612q0 55 34.5 90t86.5 35q45 0 71.5 -30t26.5 -71 q0 -53 -33 -89t-86 -36q-47 0 -73.5 28t-26.5 73z" />
<glyph unicode="&#xdd;" horiz-adv-x="1210" d="M268 1358l13 59h510l-13 -59l-112 -10q-51 -6 -39 -60l186 -629h6q307 416 432 631q31 57 -30 60l-107 8l12 59h469l-12 -59q-86 -6 -123 -24.5t-92 -80.5q-190 -217 -471 -624q-41 -55 -57 -123l-78 -346q-10 -45 0 -65.5t47 -22.5l156 -13l-13 -59h-635l13 59l147 15 q39 4 56.5 23.5t27.5 62.5l78 344q14 59 0 108q-158 528 -201 652q-20 59 -46 72.5t-124 21.5zM940 1565l297 202q86 57 119 58q35 0 57.5 -37t22.5 -66q0 -23 -16.5 -39t-38 -25t-70.5 -24l-349 -114z" />
<glyph unicode="&#xde;" horiz-adv-x="1236" d="M82 0l12 59l113 13q37 4 55.5 25.5t30.5 72.5l246 1077q23 92 -45 99l-121 12l14 59h561l-14 -59l-113 -10q-37 -2 -55 -25t-31 -76l-28 -127h151q213 0 345 -79.5t130 -260.5q-2 -102 -46 -179t-106.5 -119t-150.5 -68.5t-159.5 -33.5t-149.5 -7h-186l-46 -203 q-12 -47 -0.5 -71.5t50.5 -26.5l120 -13l-12 -59h-565zM568 478.5q3 -15.5 36 -25t101 -9.5q182 0 297.5 91.5t115.5 271.5q0 113 -68.5 177.5t-201.5 64.5q-98 0 -131 -15.5t-43 -58.5l-105 -461q-4 -20 -1 -35.5z" />
<glyph unicode="&#xdf;" horiz-adv-x="1181" d="M-147 -377q0 39 28.5 71t63.5 32q25 0 55 -45q66 -100 111 -101q37 0 47 62l252 1284h-181l23 78h178l14 45q25 84 64 157.5t103.5 150.5t167 121t231.5 42q168 0 260 -77t92 -202q0 -141 -150 -276q-154 2 -217 -50.5t-63 -121.5q0 -18 4 -37t14.5 -39.5t18.5 -34.5 t24.5 -36.5t23.5 -33t26.5 -34t23.5 -27.5q117 -147 117 -270q0 -129 -88 -217.5t-240 -88.5q-90 0 -161.5 37t-73.5 82q-2 37 25.5 64.5t58.5 27.5q33 0 55 -34q68 -100 155 -101q49 0 84 37t35 102q0 102 -135 265q-123 145 -123 262q0 125 85 203.5t210 85.5 q119 100 119 245q0 96 -58.5 146.5t-127.5 50.5q-158 0 -253.5 -160t-166.5 -479l-168 -746q-70 -307 -150 -433t-227 -126q-74 0 -129 35t-57 84z" />
<glyph unicode="&#xe0;" horiz-adv-x="1148" d="M135 219q0 84 27.5 187.5t87 214t141.5 200.5t204 148.5t261 58.5q88 0 150 -43l10 27h172l-217 -817q-31 -113 20 -113q39 0 92.5 71.5t92.5 145.5l49 -29q-57 -129 -144.5 -212t-195.5 -83q-158 0 -90 230l69 233h-4q-264 -463 -528 -463q-98 0 -147.5 71t-49.5 173z M338 225q0 -143 90 -143q133 0 338 311q147 221 219 518q-49 45 -125 45q-113 0 -216 -81.5t-166.5 -199.5t-101.5 -240t-38 -210zM557 1393q0 29 27.5 58.5t52.5 29.5q49 0 131 -84l243 -246l-30 -41l-310 172q-114 62 -114 111z" />
<glyph unicode="&#xe1;" horiz-adv-x="1148" d="M135 219q0 84 27.5 187.5t87 214t141.5 200.5t204 148.5t261 58.5q88 0 150 -43l10 27h172l-217 -817q-31 -113 20 -113q39 0 92.5 71.5t92.5 145.5l49 -29q-57 -129 -144.5 -212t-195.5 -83q-158 0 -90 230l69 233h-4q-264 -463 -528 -463q-98 0 -147.5 71t-49.5 173z M338 225q0 -143 90 -143q133 0 338 311q147 221 219 518q-49 45 -125 45q-113 0 -216 -81.5t-166.5 -199.5t-101.5 -240t-38 -210zM758 1151l244 246q82 84 131 84q25 0 52.5 -30t27.5 -58q0 -49 -115 -111l-309 -172z" />
<glyph unicode="&#xe2;" horiz-adv-x="1148" d="M135 219q0 84 27.5 187.5t87 214t141.5 200.5t204 148.5t261 58.5q88 0 150 -43l10 27h172l-217 -817q-31 -113 20 -113q39 0 92.5 71.5t92.5 145.5l49 -29q-57 -129 -144.5 -212t-195.5 -83q-158 0 -90 230l69 233h-4q-264 -463 -528 -463q-98 0 -147.5 71t-49.5 173z M338 225q0 -143 90 -143q133 0 338 311q147 221 219 518q-49 45 -125 45q-113 0 -216 -81.5t-166.5 -199.5t-101.5 -240t-38 -210zM572 1161l282 264q57 49 82 49.5t62 -49.5l182 -264l-47 -43l-174 154q-39 31 -57.5 31t-65.5 -31l-236 -154z" />
<glyph unicode="&#xe3;" horiz-adv-x="1148" d="M135 219q0 84 27.5 187.5t87 214t141.5 200.5t204 148.5t261 58.5q88 0 150 -43l10 27h172l-217 -817q-31 -113 20 -113q39 0 92.5 71.5t92.5 145.5l49 -29q-57 -129 -144.5 -212t-195.5 -83q-158 0 -90 230l69 233h-4q-264 -463 -528 -463q-98 0 -147.5 71t-49.5 173z M338 225q0 -143 90 -143q133 0 338 311q147 221 219 518q-49 45 -125 45q-113 0 -216 -81.5t-166.5 -199.5t-101.5 -240t-38 -210zM469 1180q23 45 37 68.5t43 60.5t66 54t84 17q57 0 161 -39q121 -39 156 -38q41 0 67.5 18t71.5 76l41 -23q-51 -100 -97 -147t-116 -47 q-39 0 -164 39q-113 39 -163 38q-49 0 -81 -23.5t-67 -80.5z" />
<glyph unicode="&#xe4;" horiz-adv-x="1148" d="M135 219q0 84 27.5 187.5t87 214t141.5 200.5t204 148.5t261 58.5q88 0 150 -43l10 27h172l-217 -817q-31 -113 20 -113q39 0 92.5 71.5t92.5 145.5l49 -29q-57 -129 -144.5 -212t-195.5 -83q-158 0 -90 230l69 233h-4q-264 -463 -528 -463q-98 0 -147.5 71t-49.5 173z M338 225q0 -143 90 -143q133 0 338 311q147 221 219 518q-49 45 -125 45q-113 0 -216 -81.5t-166.5 -199.5t-101.5 -240t-38 -210zM541 1272q0 55 34.5 90t86.5 35q45 0 71.5 -30t26.5 -71q0 -53 -33 -89t-86 -36q-47 0 -73.5 28t-26.5 73zM967 1272q0 55 34.5 90t86.5 35 q45 0 71.5 -30t26.5 -71q0 -53 -33 -89t-86 -36q-47 0 -73.5 28t-26.5 73z" />
<glyph unicode="&#xe5;" horiz-adv-x="1148" d="M135 219q0 84 27.5 187.5t87 214t141.5 200.5t204 148.5t261 58.5q88 0 150 -43l10 27h172l-217 -817q-31 -113 20 -113q39 0 92.5 71.5t92.5 145.5l49 -29q-57 -129 -144.5 -212t-195.5 -83q-158 0 -90 230l69 233h-4q-264 -463 -528 -463q-98 0 -147.5 71t-49.5 173z M338 225q0 -143 90 -143q133 0 338 311q147 221 219 518q-49 45 -125 45q-113 0 -216 -81.5t-166.5 -199.5t-101.5 -240t-38 -210zM619 1303q0 33 10 67.5t33.5 75.5t77 67.5t126.5 26.5q82 0 138.5 -49t56.5 -137q0 -90 -57.5 -159t-188.5 -69q-86 0 -141 46.5t-55 130.5z M735 1302.5q0 -53.5 23.5 -81t60.5 -27.5q51 0 82 39t37 73.5t6 67.5q0 45 -23.5 72t-58.5 27q-66 0 -96.5 -58.5t-30.5 -112z" />
<glyph unicode="&#xe6;" horiz-adv-x="1595" d="M141 219q0 78 27 176.5t85 206t139 196.5t205 147.5t265 58.5q80 0 160 -35l72 84h75l-51 -152l4 -4q145 131 322 131q125 0 192.5 -59.5t67.5 -145.5q0 -98 -90 -188q-160 -152 -576 -242q0 -4 -1 -16t-1 -17q0 -285 185 -284q72 0 141.5 42t108 86t85.5 107l48 -43 q-180 -293 -469 -293q-53 0 -99.5 13.5t-94.5 46.5t-76.5 103.5t-28.5 172.5q0 6 8 88h-4q-61 -104 -130 -191t-172.5 -160t-201.5 -73q-96 0 -145.5 71t-49.5 173zM344 225q0 -143 84 -143q72 0 167 93t183 235q139 223 207 483q-49 39 -131 39q-143 0 -266 -132 t-183.5 -293t-60.5 -282zM1042 463q242 51 355.5 152.5t113.5 218.5q0 55 -31.5 88.5t-86.5 33.5q-119 0 -221.5 -150t-129.5 -343z" />
<glyph unicode="&#xe7;" horiz-adv-x="903" d="M166 303q0 172 70.5 336t210 276.5t313.5 112.5q115 0 189.5 -52t74.5 -130q0 -47 -45 -81t-86 -34q-53 0 -59 62q-16 164 -123 163q-90 0 -171 -98t-126 -238.5t-45 -275.5q0 -125 38.5 -196.5t141.5 -71.5q152 0 328 239l49 -39q-150 -252 -379 -292l-78 -107 q74 -10 118 -66.5t29 -132.5q-14 -68 -78.5 -108.5t-148.5 -40.5t-135 20l8 50q82 -10 141.5 11t59.5 89q0 43 -31 73.5t-82 32.5l-6 19l107 151q-121 2 -203 80t-82 248z" />
<glyph unicode="&#xe8;" horiz-adv-x="927" d="M164 311q0 274 170 484q188 233 448 233q121 0 187.5 -59.5t66.5 -145.5q0 -111 -86 -196q-160 -147 -581 -234q-2 -14 -2 -33q0 -285 186 -284q55 0 105.5 21.5t95.5 61.5t72.5 71.5t64.5 78.5l47 -41q-180 -293 -469 -293q-51 0 -98 13.5t-97.5 46.5t-80 103.5 t-29.5 172.5zM373 463q244 51 357.5 152.5t113.5 220.5q0 53 -33 86.5t-86 33.5q-119 0 -222 -150t-130 -343zM396 1393q0 29 27.5 58.5t52.5 29.5q49 0 131 -84l243 -246l-30 -41l-310 172q-114 62 -114 111z" />
<glyph unicode="&#xe9;" horiz-adv-x="927" d="M164 311q0 274 170 484q188 233 448 233q121 0 187.5 -59.5t66.5 -145.5q0 -111 -86 -196q-160 -147 -581 -234q-2 -14 -2 -33q0 -285 186 -284q55 0 105.5 21.5t95.5 61.5t72.5 71.5t64.5 78.5l47 -41q-180 -293 -469 -293q-51 0 -98 13.5t-97.5 46.5t-80 103.5 t-29.5 172.5zM373 463q244 51 357.5 152.5t113.5 220.5q0 53 -33 86.5t-86 33.5q-119 0 -222 -150t-130 -343zM606 1151l244 246q82 84 131 84q25 0 52.5 -30t27.5 -58q0 -49 -115 -111l-309 -172z" />
<glyph unicode="&#xea;" horiz-adv-x="927" d="M164 311q0 274 170 484q188 233 448 233q121 0 187.5 -59.5t66.5 -145.5q0 -111 -86 -196q-160 -147 -581 -234q-2 -14 -2 -33q0 -285 186 -284q55 0 105.5 21.5t95.5 61.5t72.5 71.5t64.5 78.5l47 -41q-180 -293 -469 -293q-51 0 -98 13.5t-97.5 46.5t-80 103.5 t-29.5 172.5zM373 463q244 51 357.5 152.5t113.5 220.5q0 53 -33 86.5t-86 33.5q-119 0 -222 -150t-130 -343zM437 1161l282 264q57 49 82 49.5t62 -49.5l182 -264l-47 -43l-174 154q-39 31 -57.5 31t-65.5 -31l-236 -154z" />
<glyph unicode="&#xeb;" horiz-adv-x="927" d="M164 311q0 274 170 484q188 233 448 233q121 0 187.5 -59.5t66.5 -145.5q0 -111 -86 -196q-160 -147 -581 -234q-2 -14 -2 -33q0 -285 186 -284q55 0 105.5 21.5t95.5 61.5t72.5 71.5t64.5 78.5l47 -41q-180 -293 -469 -293q-51 0 -98 13.5t-97.5 46.5t-80 103.5 t-29.5 172.5zM373 463q244 51 357.5 152.5t113.5 220.5q0 53 -33 86.5t-86 33.5q-119 0 -222 -150t-130 -343zM430 1272q0 55 34.5 90t86.5 35q45 0 71.5 -30t26.5 -71q0 -53 -33 -89t-86 -36q-47 0 -73.5 28t-26.5 73zM856 1272q0 55 34.5 90t86.5 35q45 0 71.5 -30 t26.5 -71q0 -53 -33 -89t-86 -36q-47 0 -73.5 28t-26.5 73z" />
<glyph unicode="&#xec;" horiz-adv-x="649" d="M246 176l172 641q14 53 6 72.5t-49 21.5l-117 11l12 49l373 57l10 -10l-223 -823q-31 -113 21 -113q39 0 92 71.5t92 145.5l49 -29q-57 -129 -142 -212t-190 -83q-80 0 -105.5 54.5t-0.5 146.5zM267 1393q0 29 27.5 58.5t52.5 29.5q49 0 131 -84l243 -246l-30 -41 l-310 172q-114 62 -114 111z" />
<glyph unicode="&#xed;" horiz-adv-x="649" d="M246 176l172 641q14 53 6 72.5t-49 21.5l-117 11l12 49l373 57l10 -10l-223 -823q-31 -113 21 -113q39 0 92 71.5t92 145.5l49 -29q-57 -129 -142 -212t-190 -83q-80 0 -105.5 54.5t-0.5 146.5zM395 1151l244 246q82 84 131 84q25 0 52.5 -30t27.5 -58q0 -49 -115 -111 l-309 -172z" />
<glyph unicode="&#xee;" horiz-adv-x="649" d="M246 176l172 641q14 53 6 72.5t-49 21.5l-117 11l12 49l373 57l10 -10l-223 -823q-31 -113 21 -113q39 0 92 71.5t92 145.5l49 -29q-57 -129 -142 -212t-190 -83q-80 0 -105.5 54.5t-0.5 146.5zM248 1161l282 264q57 49 82 49.5t62 -49.5l182 -264l-47 -43l-174 154 q-39 31 -57.5 31t-65.5 -31l-236 -154z" />
<glyph unicode="&#xef;" horiz-adv-x="649" d="M242 1272q0 55 34.5 90t86.5 35q45 0 71.5 -30t26.5 -71q0 -53 -33 -89t-86 -36q-47 0 -73.5 28t-26.5 73zM246 176l172 641q14 53 6 72.5t-49 21.5l-117 11l12 49l373 57l10 -10l-223 -823q-31 -113 21 -113q39 0 92 71.5t92 145.5l49 -29q-57 -129 -142 -212t-190 -83 q-80 0 -105.5 54.5t-0.5 146.5zM668 1272q0 55 34.5 90t86.5 35q45 0 71.5 -30t26.5 -71q0 -53 -33 -89t-86 -36q-47 0 -73.5 28t-26.5 73z" />
<glyph unicode="&#xf0;" horiz-adv-x="1099" d="M168 346q0 59 16.5 137t60.5 176.5t109.5 178.5t179 135t252.5 55q25 0 72 -14v6q-33 78 -129 197l-274 -123l-47 65l270 121q-96 113 -189 193v12l78 35q106 -74 226 -189l262 117l47 -66l-250 -110q98 -102 143 -172q74 -111 109 -208t35 -226q0 -72 -17.5 -157 t-62.5 -181.5t-111.5 -173t-176 -128t-243.5 -51.5q-176 0 -268 100.5t-92 270.5zM367 256q0 -102 48 -155.5t138 -53.5q80 0 147.5 58.5t110.5 144.5t73.5 186.5t43 182t12.5 133.5q0 104 -40 154t-128 50q-98 0 -179 -75.5t-128 -189t-72.5 -228.5t-25.5 -207z" />
<glyph unicode="&#xf1;" horiz-adv-x="1265" d="M201 -25l215 838q16 49 10 72.5t-41 25.5l-127 11l12 49l375 57l10 -10l-133 -447h6q98 190 245 323.5t288 133.5q119 0 153.5 -88t-8.5 -209l-159 -536q-31 -113 20 -113q39 0 92 71.5t92 145.5l49 -29q-57 -129 -143 -212t-194 -83q-80 0 -107 57.5t2 143.5l176 600 q18 59 1 102.5t-68 43.5q-78 0 -170 -85t-159 -188.5t-110 -202.5q-63 -152 -147 -446zM489 1180q23 45 37 68.5t43 60.5t66 54t84 17q57 0 161 -39q121 -39 156 -38q41 0 67.5 18t71.5 76l41 -23q-51 -100 -97 -147t-116 -47q-39 0 -164 39q-113 39 -163 38 q-49 0 -81 -23.5t-67 -80.5z" />
<glyph unicode="&#xf2;" horiz-adv-x="1099" d="M172 346q0 61 15.5 139t57.5 176.5t106.5 178.5t175 134t247.5 54q68 0 128.5 -17.5t116.5 -55t89 -111.5t33 -174q0 -229 -129 -432q-166 -262 -463 -263q-186 0 -281.5 100.5t-95.5 270.5zM371 264q0 -217 184 -217q80 0 147.5 58.5t110.5 143.5t74 185.5t43 179 t12 127.5q0 215 -170 215q-96 0 -176 -75.5t-127 -188t-72.5 -226.5t-25.5 -202zM482 1393q0 29 27.5 58.5t52.5 29.5q49 0 131 -84l243 -246l-30 -41l-310 172q-114 62 -114 111z" />
<glyph unicode="&#xf3;" horiz-adv-x="1099" d="M172 346q0 61 15.5 139t57.5 176.5t106.5 178.5t175 134t247.5 54q68 0 128.5 -17.5t116.5 -55t89 -111.5t33 -174q0 -229 -129 -432q-166 -262 -463 -263q-186 0 -281.5 100.5t-95.5 270.5zM371 264q0 -217 184 -217q80 0 147.5 58.5t110.5 143.5t74 185.5t43 179 t12 127.5q0 215 -170 215q-96 0 -176 -75.5t-127 -188t-72.5 -226.5t-25.5 -202zM651 1151l244 246q82 84 131 84q25 0 52.5 -30t27.5 -58q0 -49 -115 -111l-309 -172z" />
<glyph unicode="&#xf4;" horiz-adv-x="1099" d="M172 346q0 61 15.5 139t57.5 176.5t106.5 178.5t175 134t247.5 54q68 0 128.5 -17.5t116.5 -55t89 -111.5t33 -174q0 -229 -129 -432q-166 -262 -463 -263q-186 0 -281.5 100.5t-95.5 270.5zM371 264q0 -217 184 -217q80 0 147.5 58.5t110.5 143.5t74 185.5t43 179 t12 127.5q0 215 -170 215q-96 0 -176 -75.5t-127 -188t-72.5 -226.5t-25.5 -202zM490 1161l282 264q57 49 82 49.5t62 -49.5l182 -264l-47 -43l-174 154q-39 31 -57.5 31t-65.5 -31l-236 -154z" />
<glyph unicode="&#xf5;" horiz-adv-x="1099" d="M172 346q0 61 15.5 139t57.5 176.5t106.5 178.5t175 134t247.5 54q68 0 128.5 -17.5t116.5 -55t89 -111.5t33 -174q0 -229 -129 -432q-166 -262 -463 -263q-186 0 -281.5 100.5t-95.5 270.5zM371 264q0 -217 184 -217q80 0 147.5 58.5t110.5 143.5t74 185.5t43 179 t12 127.5q0 215 -170 215q-96 0 -176 -75.5t-127 -188t-72.5 -226.5t-25.5 -202zM420 1180q23 45 37 68.5t43 60.5t66 54t84 17q57 0 161 -39q121 -39 156 -38q41 0 67.5 18t71.5 76l41 -23q-51 -100 -97 -147t-116 -47q-39 0 -164 39q-113 39 -163 38q-49 0 -81 -23.5 t-67 -80.5z" />
<glyph unicode="&#xf6;" horiz-adv-x="1099" d="M172 346q0 61 15.5 139t57.5 176.5t106.5 178.5t175 134t247.5 54q68 0 128.5 -17.5t116.5 -55t89 -111.5t33 -174q0 -229 -129 -432q-166 -262 -463 -263q-186 0 -281.5 100.5t-95.5 270.5zM371 264q0 -217 184 -217q80 0 147.5 58.5t110.5 143.5t74 185.5t43 179 t12 127.5q0 215 -170 215q-96 0 -176 -75.5t-127 -188t-72.5 -226.5t-25.5 -202zM516 1272q0 55 34.5 90t86.5 35q45 0 71.5 -30t26.5 -71q0 -53 -33 -89t-86 -36q-47 0 -73.5 28t-26.5 73zM942 1272q0 55 34.5 90t86.5 35q45 0 71.5 -30t26.5 -71q0 -53 -33 -89t-86 -36 q-47 0 -73.5 28t-26.5 73z" />
<glyph unicode="&#xf7;" horiz-adv-x="1167" d="M190 453v118h992v-118h-992zM563 176q-2 49 35 84t88 35t84 -35t33 -84t-33 -86t-84 -37t-88 35t-35 88zM563 852q-2 49 35 84t88 35t84 -35t33 -84t-33 -86t-84 -37t-88 35t-35 88z" />
<glyph unicode="&#xf8;" horiz-adv-x="1099" d="M172 346q0 61 15.5 139t57.5 176.5t106.5 178.5t175 134t247.5 54q119 0 203 -47l82 102l59 -51l-78 -98q100 -90 101 -264q0 -229 -129 -432q-166 -262 -463 -263q-137 0 -223 58l-90 -113l-56 55l84 105q-92 98 -92 266zM360 264q0 -6 7 -55l544 688q-43 59 -139 59 q-98 0 -181 -75.5t-131 -188t-74 -225.5t-26 -203zM397 123q45 -76 158 -76q82 0 152.5 58.5t113.5 143.5t74 185.5t44 179t13 127.5q0 29 -8 70z" />
<glyph unicode="&#xf9;" horiz-adv-x="1265" d="M258 922l12 49l373 57l10 -10l-196 -756q-47 -180 51 -180q117 0 237.5 147.5t200.5 331.5q59 139 146 443l182 24l-219 -835q-29 -111 26 -111q61 0 189 217l49 -31q-59 -125 -148.5 -209t-193.5 -84q-158 0 -94 222l67 233h-4q-98 -190 -245.5 -322.5t-288.5 -132.5 q-215 0 -138 297l142 541q14 47 9 71.5t-40 26.5zM512 1393q0 29 27.5 58.5t52.5 29.5q49 0 131 -84l243 -246l-30 -41l-310 172q-114 62 -114 111z" />
<glyph unicode="&#xfa;" horiz-adv-x="1265" d="M258 922l12 49l373 57l10 -10l-196 -756q-47 -180 51 -180q117 0 237.5 147.5t200.5 331.5q59 139 146 443l182 24l-219 -835q-29 -111 26 -111q61 0 189 217l49 -31q-59 -125 -148.5 -209t-193.5 -84q-158 0 -94 222l67 233h-4q-98 -190 -245.5 -322.5t-288.5 -132.5 q-215 0 -138 297l142 541q14 47 9 71.5t-40 26.5zM743 1151l244 246q82 84 131 84q25 0 52.5 -30t27.5 -58q0 -49 -115 -111l-309 -172z" />
<glyph unicode="&#xfb;" horiz-adv-x="1265" d="M258 922l12 49l373 57l10 -10l-196 -756q-47 -180 51 -180q117 0 237.5 147.5t200.5 331.5q59 139 146 443l182 24l-219 -835q-29 -111 26 -111q61 0 189 217l49 -31q-59 -125 -148.5 -209t-193.5 -84q-158 0 -94 222l67 233h-4q-98 -190 -245.5 -322.5t-288.5 -132.5 q-215 0 -138 297l142 541q14 47 9 71.5t-40 26.5zM555 1161l282 264q57 49 82 49.5t62 -49.5l182 -264l-47 -43l-174 154q-39 31 -57.5 31t-65.5 -31l-236 -154z" />
<glyph unicode="&#xfc;" horiz-adv-x="1265" d="M258 922l12 49l373 57l10 -10l-196 -756q-47 -180 51 -180q117 0 237.5 147.5t200.5 331.5q59 139 146 443l182 24l-219 -835q-29 -111 26 -111q61 0 189 217l49 -31q-59 -125 -148.5 -209t-193.5 -84q-158 0 -94 222l67 233h-4q-98 -190 -245.5 -322.5t-288.5 -132.5 q-215 0 -138 297l142 541q14 47 9 71.5t-40 26.5zM574 1272q0 55 34.5 90t86.5 35q45 0 71.5 -30t26.5 -71q0 -53 -33 -89t-86 -36q-47 0 -73.5 28t-26.5 73zM1000 1272q0 55 34.5 90t86.5 35q45 0 71.5 -30t26.5 -71q0 -53 -33 -89t-86 -36q-47 0 -73.5 28t-26.5 73z" />
<glyph unicode="&#xfd;" horiz-adv-x="958" d="M-10 -383q0 45 32.5 83t71.5 40q35 0 72 -49q47 -63 84 -64q31 0 66.5 40t64.5 106q49 119 49 254q0 238 -68 716q-12 84 -25 113t-46 27l-139 -4l-7 51l344 98l17 -8q53 -281 82 -895h6q250 430 289 569q31 111 26 283q76 51 160 51q8 0 16.5 -13.5t14.5 -41t6 -60.5 q0 -16 -6 -39.5t-22.5 -57.5t-31 -61.5t-42 -74.5t-44 -74.5t-51.5 -84t-49 -81.5q-57 -92 -117.5 -196.5t-112.5 -194.5t-61 -104q-68 -117 -99.5 -169t-77.5 -118t-79.5 -91.5t-78 -44t-95.5 -18.5q-66 0 -107.5 35t-41.5 78zM621 1151l244 246q82 84 131 84 q25 0 52.5 -30t27.5 -58q0 -49 -115 -111l-309 -172z" />
<glyph unicode="&#xfe;" horiz-adv-x="1196" d="M104 -496l375 1715q12 47 5 71.5t-42 26.5l-127 10l13 49l370 58l11 -11l-199 -837h6q113 211 253 326.5t263 115.5q227 0 228 -274q0 -55 -17.5 -141.5t-65 -200t-115 -208.5t-184 -162t-257.5 -67q-147 0 -222 45l-112 -491zM420 109q72 -61 180 -62q117 0 211 86 t144.5 208t76 230.5t25.5 180.5q0 170 -111 170q-82 0 -183 -98.5t-181 -237.5q-101 -178 -162 -477z" />
<glyph unicode="&#xff;" horiz-adv-x="958" d="M-10 -383q0 45 32.5 83t71.5 40q35 0 72 -49q47 -63 84 -64q31 0 66.5 40t64.5 106q49 119 49 254q0 238 -68 716q-12 84 -25 113t-46 27l-139 -4l-7 51l344 98l17 -8q53 -281 82 -895h6q250 430 289 569q31 111 26 283q76 51 160 51q8 0 16.5 -13.5t14.5 -41t6 -60.5 q0 -16 -6 -39.5t-22.5 -57.5t-31 -61.5t-42 -74.5t-44 -74.5t-51.5 -84t-49 -81.5q-57 -92 -117.5 -196.5t-112.5 -194.5t-61 -104q-68 -117 -99.5 -169t-77.5 -118t-79.5 -91.5t-78 -44t-95.5 -18.5q-66 0 -107.5 35t-41.5 78zM494 1272q0 55 34.5 90t86.5 35 q45 0 71.5 -30t26.5 -71q0 -53 -33 -89t-86 -36q-47 0 -73.5 28t-26.5 73zM920 1272q0 55 34.5 90t86.5 35q45 0 71.5 -30t26.5 -71q0 -53 -33 -89t-86 -36q-47 0 -73.5 28t-26.5 73z" />
<glyph unicode="&#x131;" horiz-adv-x="649" d="M246 176l172 641q14 53 6 72.5t-49 21.5l-117 11l12 49l373 57l10 -10l-223 -823q-31 -113 21 -113q39 0 92 71.5t92 145.5l49 -29q-57 -129 -142 -212t-190 -83q-80 0 -105.5 54.5t-0.5 146.5z" />
<glyph unicode="&#x152;" horiz-adv-x="2088" d="M233 600q0 223 132 430q117 184 308 283.5t515 103.5h1098l-78 -342h-62q10 92 5 152.5t-59 89.5t-179 29h-248q-27 0 -38 -11.5t-19 -48.5l-117 -510h268q90 0 136.5 16.5t69 48t50.5 109.5h62l-95 -428h-61q6 109 -22.5 142.5t-155.5 33.5h-268l-105 -448 q-16 -72 -14 -102.5t24 -49.5q35 -27 230 -26q197 0 284.5 53t163.5 235h62l-105 -360h-1048q-369 0 -551.5 146.5t-182.5 453.5zM455 561q0 -254 135 -371.5t354 -117.5q109 0 155 24.5t66 114.5l230 1008q18 80 -17 103.5t-184 23.5q-152 0 -276.5 -46.5t-208.5 -124 t-142.5 -179t-85 -211t-26.5 -224.5z" />
<glyph unicode="&#x153;" horiz-adv-x="1650" d="M172 346q0 61 15.5 139t57.5 176.5t106.5 178.5t175 134t247.5 54q98 0 190.5 -51t129.5 -164q184 215 411 215q121 0 187.5 -59.5t66.5 -145.5q0 -111 -86 -196q-160 -147 -581 -234q-2 -14 -2 -33q0 -285 186 -284q55 0 105.5 21.5t95.5 61.5t72.5 71.5t64.5 78.5 l47 -41q-180 -293 -469 -293q-78 0 -152.5 41t-107.5 146q-162 -186 -387 -187q-184 0 -278.5 100.5t-94.5 270.5zM371 264q0 -217 184 -217q80 0 147.5 58.5t110.5 143.5t74 185.5t43 179t12 127.5q0 215 -170 215q-96 0 -176 -75.5t-127 -188t-72.5 -226.5t-25.5 -202z M1096 463q244 51 357.5 152.5t113.5 220.5q0 53 -33 86.5t-86 33.5q-119 0 -222 -150t-130 -343z" />
<glyph unicode="&#x178;" horiz-adv-x="1210" d="M268 1358l13 59h510l-13 -59l-112 -10q-51 -6 -39 -60l186 -629h6q307 416 432 631q31 57 -30 60l-107 8l12 59h469l-12 -59q-86 -6 -123 -24.5t-92 -80.5q-190 -217 -471 -624q-41 -55 -57 -123l-78 -346q-10 -45 0 -65.5t47 -22.5l156 -13l-13 -59h-635l13 59l147 15 q39 4 56.5 23.5t27.5 62.5l78 344q14 59 0 108q-158 528 -201 652q-20 59 -46 72.5t-124 21.5zM623 1612q0 55 34.5 90t86.5 35q45 0 71.5 -30t26.5 -71q0 -53 -33 -89t-86 -36q-47 0 -73.5 28t-26.5 73zM1049 1612q0 55 34.5 90t86.5 35q45 0 71.5 -30t26.5 -71 q0 -53 -33 -89t-86 -36q-47 0 -73.5 28t-26.5 73z" />
<glyph unicode="&#x192;" d="M80 -158q2 35 28.5 58.5t53.5 23.5q33 0 57 -43q45 -86 96 -86q43 0 72 123l193 836h-201l18 73h201l25 88q59 225 139 340q115 160 289 160q109 0 167 -43t58 -94q-2 -37 -30.5 -59.5t-59.5 -22.5q-35 0 -53 39q-55 109 -125 108q-45 0 -83 -65.5t-79 -230.5l-55 -220 h276l-18 -73h-281l-43 -176q-129 -512 -201 -662q-92 -193 -266 -192q-74 0 -126 36.5t-52 81.5z" />
<glyph unicode="&#x2c6;" horiz-adv-x="819" d="M455 1161l282 264q57 49 82 49.5t62 -49.5l182 -264l-47 -43l-174 154q-39 31 -57.5 31t-65.5 -31l-236 -154z" />
<glyph unicode="&#x2c7;" horiz-adv-x="819" d="M508 1454l47 43l174 -154q39 -31 57 -30q20 0 66 30l235 154l29 -43l-282 -264q-57 -49 -82 -49t-62 49z" />
<glyph unicode="&#x2d8;" horiz-adv-x="819" d="M537 1323q0 55 22 107h49q-2 -20 2 -40t18.5 -44.5t55.5 -40t104 -15.5q180 0 256 140h54q-29 -125 -103.5 -196t-242.5 -71q-215 0 -215 160z" />
<glyph unicode="&#x2d9;" horiz-adv-x="823" d="M588 1268q0 55 34.5 90t86.5 35q45 0 71.5 -30t26.5 -71q0 -53 -33 -89t-86 -36q-47 0 -73.5 28t-26.5 73z" />
<glyph unicode="&#x2da;" horiz-adv-x="819" d="M453 1303q0 33 10 67.5t33.5 75.5t77 67.5t126.5 26.5q82 0 138.5 -49t56.5 -137q0 -90 -57.5 -159t-188.5 -69q-86 0 -141 46.5t-55 130.5zM569 1302.5q0 -53.5 23.5 -81t60.5 -27.5q51 0 82 39t37 73.5t6 67.5q0 45 -23.5 72t-58.5 27q-66 0 -96.5 -58.5t-30.5 -112z " />
<glyph unicode="&#x2db;" horiz-adv-x="716" d="M211 -287q0 82 60.5 161t152.5 126h84q-162 -129 -162 -258q0 -51 33 -77.5t82 -26.5q51 0 104 22l15 -33q-78 -76 -191 -76q-178 0 -178 162z" />
<glyph unicode="&#x2dc;" horiz-adv-x="819" d="M352 1180q23 45 37 68.5t43 60.5t66 54t84 17q57 0 161 -39q121 -39 156 -38q41 0 67.5 18t71.5 76l41 -23q-51 -100 -97 -147t-116 -47q-39 0 -164 39q-113 39 -163 38q-49 0 -81 -23.5t-67 -80.5z" />
<glyph unicode="&#x2dd;" horiz-adv-x="819" d="M432 1145l94 295q16 49 34 72.5t50 23.5q41 0 72 -22.5t31 -55.5q0 -43 -64 -127l-168 -213zM723 1145l94 295q16 49 33.5 72.5t50.5 23.5q41 0 72 -22.5t31 -55.5q0 -43 -64 -127l-168 -213z" />
<glyph unicode="&#x400;" horiz-adv-x="1220" d="M78 0l12 59l115 13q37 2 54 23.5t30 74.5l246 1081q12 53 1.5 74t-47.5 25l-122 8l14 59h1036l-78 -342h-61q10 92 5 152.5t-59.5 89.5t-179.5 29h-247q-27 0 -38 -11.5t-20 -48.5l-116 -510h268q90 0 136 16.5t68.5 48t51.5 109.5h61l-94 -428h-61q6 109 -23 142.5 t-156 33.5h-268l-104 -448q-16 -72 -14.5 -102.5t24.5 -49.5q35 -27 229 -26q197 0 285 53t164 235h61l-104 -360h-1069zM694 1722q0 29 22.5 66t57.5 37q33 0 119 -58l297 -202l-23 -45l-348 114q-49 14 -70.5 23.5t-38 25.5t-16.5 39z" />
<glyph unicode="&#x401;" horiz-adv-x="1220" d="M78 0l12 59l115 13q37 2 54 23.5t30 74.5l246 1081q12 53 1.5 74t-47.5 25l-122 8l14 59h1036l-78 -342h-61q10 92 5 152.5t-59.5 89.5t-179.5 29h-247q-27 0 -38 -11.5t-20 -48.5l-116 -510h268q90 0 136 16.5t68.5 48t51.5 109.5h61l-94 -428h-61q6 109 -23 142.5 t-156 33.5h-268l-104 -448q-16 -72 -14.5 -102.5t24.5 -49.5q35 -27 229 -26q197 0 285 53t164 235h61l-104 -360h-1069zM627 1612q0 55 34.5 90t86.5 35q45 0 71.5 -30t26.5 -71q0 -53 -33 -89t-86 -36q-47 0 -73.5 28t-26.5 73zM1053 1612q0 55 34.5 90t86.5 35 q45 0 71.5 -30t26.5 -71q0 -53 -33 -89t-86 -36q-47 0 -73.5 28t-26.5 73z" />
<glyph unicode="&#x402;" horiz-adv-x="1587" d="M270 0l15 59l133 9q45 2 66.5 25.5t31.5 72.5l266 1180h-100q-150 0 -220.5 -56.5t-119.5 -214.5h-61l77 342h1164l-78 -342h-62q10 92 4 152.5t-60 89.5t-177 29h-170l-139 -613h4q90 63 205.5 110.5t203.5 47.5q102 0 176 -38t110 -101.5t50.5 -126t14.5 -131.5 q0 -254 -143.5 -386.5t-352.5 -132.5q-100 0 -156.5 58.5t-56.5 138.5q0 76 31.5 127t89.5 51q39 0 66.5 -23.5t27.5 -52.5q0 -45 -21.5 -90t-21.5 -73q0 -20 2 -31.5t15.5 -22t39.5 -10.5q78 0 135.5 64.5t83 155.5t36 158t10.5 99q0 240 -183 240q-147 0 -223 -29 q-139 -53 -174 -143l-133 -592h-406z" />
<glyph unicode="&#x403;" horiz-adv-x="1120" d="M78 0l12 59l115 11q35 2 54.5 24.5t29.5 69.5l246 1089q20 86 -46 93l-120 12l12 59h1030l-80 -350h-61q10 92 2 153.5t-66.5 93.5t-179.5 32h-227q-29 0 -40 -11.5t-20 -50.5l-254 -1120q-20 -88 47 -94l154 -11l-12 -59h-596zM780 1565l297 202q86 57 119 58 q35 0 57.5 -37t22.5 -66q0 -23 -16.5 -39t-38 -25t-70.5 -24l-349 -114z" />
<glyph unicode="&#x404;" horiz-adv-x="1353" d="M233 563q0 172 53.5 328t157 281.5t272.5 200.5t384 75q117 0 243.5 -28.5t208.5 -80.5l-73 -307h-62q8 174 -69.5 259t-264.5 85q-125 0 -229 -49t-176 -135t-120 -187.5t-75 -220.5h637l-16 -77h-635q-16 -109 -16 -197q0 -229 111.5 -349t295.5 -120q166 0 262.5 73.5 t192.5 241.5h67l-92 -301q-172 -86 -416 -86q-147 0 -260.5 36t-184.5 94.5t-116 138t-62.5 159.5t-17.5 166z" />
<glyph unicode="&#x405;" horiz-adv-x="1091" d="M141 137l54 314h59q-8 -195 90 -302.5t250 -107.5q145 0 227 89t82 208q0 117 -64.5 190.5t-197.5 141.5q-141 68 -219 153.5t-78 218.5q0 70 24.5 137.5t76 130t147.5 100.5t223 38q233 0 367 -105l-74 -286h-59q37 319 -248 319q-131 0 -208 -73.5t-77 -186.5 q0 -45 18.5 -85t38 -64.5t65.5 -55t66.5 -42t75.5 -40.5q160 -82 233.5 -177t73.5 -230q0 -88 -26.5 -164t-82.5 -142.5t-160.5 -105.5t-248.5 -41q-121 0 -246 46t-182 122z" />
<glyph unicode="&#x406;" horiz-adv-x="706" d="M82 0l12 59l113 13q37 2 56.5 25.5t29.5 72.5l246 1077q23 96 -45 103l-121 8l14 59h561l-14 -59l-113 -10q-37 -2 -55 -27t-31 -74l-246 -1077q-23 -96 46 -102l120 -9l-12 -59h-561z" />
<glyph unicode="&#x407;" horiz-adv-x="706" d="M82 0l12 59l113 13q37 2 56.5 25.5t29.5 72.5l246 1077q23 96 -45 103l-121 8l14 59h561l-14 -59l-113 -10q-37 -2 -55 -27t-31 -74l-246 -1077q-23 -96 46 -102l120 -9l-12 -59h-561zM371 1612q0 55 34.5 90t86.5 35q45 0 71.5 -30t26.5 -71q0 -53 -33 -89t-86 -36 q-47 0 -73.5 28t-26.5 73zM797 1612q0 55 34.5 90t86.5 35q45 0 71.5 -30t26.5 -71q0 -53 -33 -89t-86 -36q-47 0 -73.5 28t-26.5 73z" />
<glyph unicode="&#x408;" horiz-adv-x="720" d="M-88 -188q162 16 256 102q96 90 164 381l223 958q10 47 0 70t-47 25l-121 10l14 59h564l-15 -59l-112 -8q-37 -2 -56.5 -24.5t-29.5 -72.5l-240 -1030q-66 -281 -215 -387q-115 -80 -317 -80q-23 0 -68 4v52z" />
<glyph unicode="&#x409;" horiz-adv-x="2101" d="M82 172q0 63 30.5 123.5t102.5 60.5q41 0 65.5 -21.5t24.5 -55.5q0 -45 -25.5 -94.5t-25.5 -82.5q0 -55 43 -55q129 0 306 340t292 860q8 39 -2 70t-43 33l-121 8l14 59h1033l-15 -59l-123 -8q-37 -2 -55 -27t-31 -76l-106 -469q70 20 223 21q193 0 319 -99.5t126 -255.5 q0 -47 -7.5 -92t-42 -113.5t-94 -116.5t-177.5 -85t-280 -37h-614l12 59l113 13q37 2 56.5 25.5t29.5 72.5l242 1061q18 80 -6.5 97.5t-131.5 17.5h-36q-111 0 -142.5 -16.5t-48.5 -92.5q-133 -575 -322.5 -918.5t-363.5 -343.5q-106 0 -162.5 59.5t-56.5 137.5zM1315 203 q-16 -70 18.5 -100.5t173.5 -30.5q111 0 193 40t121 101t55 115.5t16 105.5q0 125 -76.5 209t-207.5 84q-113 0 -181 -27z" />
<glyph unicode="&#x40a;" horiz-adv-x="2162" d="M82 0l12 59l113 13q37 2 55.5 23.5t30.5 74.5l246 1077q20 96 -45 103l-121 8l14 59h561l-14 -59l-113 -10q-37 -2 -55 -25t-31 -76l-108 -471h684l106 471q23 96 -45 103l-121 8l15 59h571l-14 -59l-123 -8q-37 -2 -55.5 -26t-30.5 -77l-107 -469q70 20 224 21 q193 0 318.5 -99.5t125.5 -255.5q0 -47 -7 -92t-42 -113.5t-94.5 -116.5t-177 -85t-279.5 -37h-614l12 59l112 13q37 2 56.5 25.5t29.5 72.5l121 528h-684l-119 -528q-12 -51 -1.5 -75.5t47.5 -26.5l120 -9l-12 -59h-561zM1376 203q-16 -70 19 -100.5t174 -30.5 q111 0 192.5 40t120.5 101t55.5 115.5t16.5 105.5q0 125 -77 209t-208 84q-113 0 -180 -27z" />
<glyph unicode="&#x40b;" horiz-adv-x="1712" d="M270 0l15 59l133 9q45 2 66.5 25.5t31.5 72.5l266 1180h-100q-150 0 -220.5 -56.5t-119.5 -214.5h-61l77 342h1164l-78 -342h-62q10 92 4 152.5t-60 89.5t-177 29h-170l-139 -613h4q233 158 487 158q117 0 182.5 -68.5t71.5 -172t-18 -222.5l-62 -258q-23 -96 45 -102 l121 -9l-14 -59h-541l14 61l93 9q37 2 55 25.5t31 74.5l77 319q66 274 -155 275q-113 0 -209 -16q-55 -8 -129 -58.5t-86 -105.5l-94 -418q-12 -47 0 -71.5t53 -26.5l149 -9l-14 -59h-631z" />
<glyph unicode="&#x40c;" horiz-adv-x="1462" d="M82 0l12 59l113 13q37 2 56.5 25.5t29.5 72.5l246 1077q23 96 -45 103l-121 8l14 59h561l-14 -59l-113 -10q-37 -2 -55 -27t-31 -74l-106 -469h35q104 0 214.5 94.5t174.5 227.5q84 174 157.5 261t165.5 87q111 0 164 -53.5t53 -128.5q0 -147 -114 -148q-41 0 -68 22.5 t-27 53.5q0 27 14.5 74t14.5 73q0 35 -47 35q-39 0 -97.5 -72.5t-107.5 -181.5q-70 -158 -152.5 -248t-162.5 -114v-6q139 -2 239.5 -123t100.5 -281q0 -176 41 -242.5t178 -66.5l-16 -72h-115q-150 0 -220.5 65.5t-72.5 215.5q-4 225 -23 293q-41 139 -202 153q-23 2 -47 2 h-99l-121 -528q-23 -96 46 -102l120 -9l-12 -59h-561zM842 1565l297 202q86 57 119 58q35 0 57.5 -37t22.5 -66q0 -23 -16.5 -39t-38 -25t-70.5 -24l-349 -114z" />
<glyph unicode="&#x40d;" horiz-adv-x="1599" d="M82 0l12 59l113 13q37 2 56.5 25.5t29.5 72.5l246 1077q23 96 -45 103l-121 8l14 59h561l-14 -59l-113 -10q-37 -2 -55 -27t-31 -74l-194 -852l874 791l15 61q23 96 -46 103l-120 8l14 59h561l-14 -59l-113 -10q-37 -2 -55.5 -27t-30.5 -74l-246 -1077q-23 -96 45 -102 l121 -9l-12 -59h-561l12 59l113 13q37 2 56.5 25.5t29.5 72.5l205 897l-875 -791l-25 -106q-23 -96 46 -102l120 -9l-12 -59h-561zM881 1722q0 29 22.5 66t57.5 37q33 0 119 -58l297 -202l-23 -45l-348 114q-49 14 -70.5 23.5t-38 25.5t-16.5 39z" />
<glyph unicode="&#x40e;" horiz-adv-x="1376" d="M193 164q0 90 32.5 143t93.5 53q47 0 74 -24.5t27 -65.5q0 -31 -24.5 -83t-24.5 -70q0 -70 67 -70q53 0 121 38t103 97l14 25l-227 964q-4 20 -11.5 50t-9.5 42.5t-8 31t-11.5 25.5t-13.5 15t-19 11.5t-28 3.5l-82 8l15 59h516l-15 -59l-88 -10q-53 -4 -53 -78 q0 -78 72 -385l104 -451h2l299 467q74 115 146.5 253t72.5 165q0 23 -55 29l-98 10l12 59h453l-13 -59q-14 -2 -41.5 -6t-36 -6.5t-27 -7.5t-24.5 -10t-19 -15t-23.5 -25.5t-24.5 -36.5l-676 -1071q-131 -205 -322 -205q-113 0 -181 59.5t-68 129.5zM691 1710q0 68 23.5 121 t80.5 53q47 0 78 -22.5t31 -55.5q0 -37 -16.5 -74.5t-16.5 -64.5q0 -63 104 -63q115 0 197 55t201 207l47 -37q-113 -160 -209 -228.5t-252 -68.5q-121 0 -194.5 57.5t-73.5 120.5z" />
<glyph unicode="&#x40f;" horiz-adv-x="1568" d="M82 0l14 59l113 11q37 2 55.5 26.5t30.5 73.5l246 1077q23 96 -45 103l-121 8l12 59h561l-12 -59l-113 -12q-37 -2 -56 -26t-30 -73l-241 -1061q-18 -80 6 -97t131 -17h332q111 0 142.5 16t47.5 92l244 1067q23 96 -45 103l-121 8l12 59h561l-12 -59l-113 -12 q-37 -2 -56 -26t-30 -73l-245 -1077q-23 -96 45 -102l121 -9l-15 -59h-262q-143 0 -218 -11.5t-130 -59.5t-81 -113.5t-62 -204.5h-66q14 125 14 182q0 121 -72.5 164t-293.5 43h-248z" />
<glyph unicode="&#x410;" horiz-adv-x="1277" d="M-47 0l12 59l68 9q49 4 83 30.5t81 104.5q6 10 350 610l344 604h145l152 -1233q8 -68 22.5 -91t59.5 -27l78 -7l-13 -59h-504l13 59l108 11q33 4 44.5 20t7.5 60l-48 397h-458q-59 -109 -211 -402q-31 -70 26 -75l113 -11l-12 -59h-461zM539 625h407l-72 602h-4 q-245 -442 -331 -602z" />
<glyph unicode="&#x411;" horiz-adv-x="1296" d="M82 0l12 59l113 13q37 2 56.5 25.5t29.5 72.5l246 1077q23 96 -45 103l-121 8l14 59h983l-80 -350h-61q10 92 2 153.5t-66.5 93.5t-179.5 32h-180q-29 0 -41 -12.5t-21 -49.5l-110 -487q70 20 223 20q195 0 323 -101.5t128 -262.5q0 -49 -6.5 -93.5t-40 -115t-94 -119.5 t-182.5 -87t-288 -38h-614zM498 203q-16 -70 18.5 -100.5t173.5 -30.5q117 0 200 41t123 103.5t56 118.5t16 107q0 123 -78.5 213t-211.5 90q-115 0 -181 -26z" />
<glyph unicode="&#x412;" horiz-adv-x="1294" d="M78 0l12 59l115 13q37 4 56.5 25.5t29.5 72.5l241 1077q12 53 2 73.5t-45 25.5l-120 12l12 59h493q254 4 371 -67q129 -76 129 -242q0 -127 -97 -222t-290 -118l-2 -6q131 -25 220 -108t89 -230q0 -74 -24.5 -140.5t-85 -134t-184 -108.5t-300.5 -41h-622zM496 203 q-16 -70 18.5 -100.5t173.5 -30.5q193 0 289 106.5t96 257.5q0 291 -381 291h-80zM627 799h133q184 0 284 75q121 96 121 242q0 109 -69.5 169.5t-198.5 60.5q-100 0 -126 -12.5t-36 -59.5z" />
<glyph unicode="&#x413;" horiz-adv-x="1120" d="M78 0l12 59l115 11q35 2 54.5 24.5t29.5 69.5l246 1089q20 86 -46 93l-120 12l12 59h1030l-80 -350h-61q10 92 2 153.5t-66.5 93.5t-179.5 32h-227q-29 0 -40 -11.5t-20 -50.5l-254 -1120q-20 -88 47 -94l154 -11l-12 -59h-596z" />
<glyph unicode="&#x414;" horiz-adv-x="1449" d="M-61 -389l118 461h37q63 0 159.5 78.5t201 219t206 374t160.5 503.5q8 39 -2 70t-43 33l-121 8l15 59h1022l-15 -59l-112 -10q-37 -2 -55.5 -27t-30.5 -74l-242 -1061q-18 -80 6.5 -97t130.5 -17h27l-96 -461h-64q14 125 14 182q0 121 -72.5 164t-293.5 43h-352 q-145 0 -230.5 -15.5t-140.5 -64.5t-82 -103.5t-70 -170.5q-2 -8 -4 -12.5t-4 -10.5l-4 -12h-63zM360.5 90.5q24.5 -18.5 133.5 -18.5h354q111 0 142.5 16t47.5 92l240 1051q18 80 -6.5 97.5t-130.5 17.5h-37q-111 0 -142.5 -16.5t-48.5 -92.5q-82 -352 -221 -626.5 t-297 -438.5q-59 -63 -34.5 -81.5z" />
<glyph unicode="&#x415;" horiz-adv-x="1220" d="M78 0l12 59l115 13q37 2 54 23.5t30 74.5l246 1081q12 53 1.5 74t-47.5 25l-122 8l14 59h1036l-78 -342h-61q10 92 5 152.5t-59.5 89.5t-179.5 29h-247q-27 0 -38 -11.5t-20 -48.5l-116 -510h268q90 0 136 16.5t68.5 48t51.5 109.5h61l-94 -428h-61q6 109 -23 142.5 t-156 33.5h-268l-104 -448q-16 -72 -14.5 -102.5t24.5 -49.5q35 -27 229 -26q197 0 285 53t164 235h61l-104 -360h-1069z" />
<glyph unicode="&#x416;" horiz-adv-x="2158" d="M74 -31l16 72q129 0 187.5 63.5t140.5 245.5q88 197 221 290t324 114l2 6q-63 29 -103.5 117t-49.5 151.5t-9 108.5q0 240 -90 239q-39 0 -50.5 -12t-11.5 -41q0 -16 9.5 -55t9.5 -56q0 -94 -107 -94q-102 0 -102 137q0 31 9 59.5t31.5 61.5t75 52.5t128.5 19.5 q115 0 153.5 -88t38.5 -260q0 -139 60.5 -230.5t179.5 -91.5h20l107 469q23 96 -45 103l-121 8l14 59h561l-14 -59l-113 -10q-37 -2 -55 -27t-31 -74l-106 -469h18q96 0 210 95.5t175 226.5q84 178 154.5 263t163.5 85q111 0 165 -52.5t54 -127.5q0 -74 -26.5 -112 t-94.5 -38q-35 0 -61.5 21.5t-26.5 52.5q0 33 13 76t13 73q0 35 -47 35q-37 0 -93 -71.5t-105 -182.5q-70 -156 -155 -246t-161 -116l-2 -6q137 -2 239.5 -124t102.5 -280q0 -178 38 -243.5t175 -65.5l-16 -72h-115q-147 0 -215.5 65.5t-70.5 215.5q-2 80 -4.5 125 t-10.5 104.5t-25.5 93t-45 65.5t-71.5 46t-106 14h-88l-121 -528q-23 -96 46 -102l120 -9l-12 -59h-561l12 59l113 13q37 2 56.5 25.5t29.5 72.5l121 528h-90q-154 0 -253.5 -111.5t-197.5 -336.5q-66 -150 -163 -215.5t-247 -65.5h-114z" />
<glyph unicode="&#x417;" horiz-adv-x="1179" d="M127 252q0 76 24.5 123t100.5 47q47 0 74.5 -28.5t27.5 -63.5q0 -37 -11 -79t-11 -69q0 -59 60.5 -100t142.5 -41q174 0 294.5 115.5t120.5 285.5q0 131 -88 202t-241 71h-121l16 78h109q178 0 300 95t122 271q0 102 -82 160.5t-193 58.5q-154 0 -234.5 -70.5 t-164.5 -291.5h-66l78 338q184 94 385 94t341 -85t140 -243q0 -55 -15 -104t-54 -101.5t-119 -92.5t-195 -58l-2 -6q133 -29 218 -116t85 -220q0 -51 -13 -103.5t-56 -118t-112.5 -114.5t-192.5 -83t-285 -34q-133 0 -258 85t-125 198z" />
<glyph unicode="&#x418;" horiz-adv-x="1599" d="M82 0l12 59l113 13q37 2 56.5 25.5t29.5 72.5l246 1077q23 96 -45 103l-121 8l14 59h561l-14 -59l-113 -10q-37 -2 -55 -27t-31 -74l-194 -852l874 791l15 61q23 96 -46 103l-120 8l14 59h561l-14 -59l-113 -10q-37 -2 -55.5 -27t-30.5 -74l-246 -1077q-23 -96 45 -102 l121 -9l-12 -59h-561l12 59l113 13q37 2 56.5 25.5t29.5 72.5l205 897l-875 -791l-25 -106q-23 -96 46 -102l120 -9l-12 -59h-561z" />
<glyph unicode="&#x419;" horiz-adv-x="1599" d="M82 0l12 59l113 13q37 2 56.5 25.5t29.5 72.5l246 1077q23 96 -45 103l-121 8l14 59h561l-14 -59l-113 -10q-37 -2 -55 -27t-31 -74l-194 -852l874 791l15 61q23 96 -46 103l-120 8l14 59h561l-14 -59l-113 -10q-37 -2 -55.5 -27t-30.5 -74l-246 -1077q-23 -96 45 -102 l121 -9l-12 -59h-561l12 59l113 13q37 2 56.5 25.5t29.5 72.5l205 897l-875 -791l-25 -106q-23 -96 46 -102l120 -9l-12 -59h-561zM836 1710q0 68 23.5 121t80.5 53q47 0 78 -22.5t31 -55.5q0 -37 -16.5 -74.5t-16.5 -64.5q0 -63 104 -63q115 0 197 55t201 207l47 -37 q-113 -160 -209 -228.5t-252 -68.5q-121 0 -194.5 57.5t-73.5 120.5z" />
<glyph unicode="&#x41a;" horiz-adv-x="1462" d="M82 0l12 59l113 13q37 2 56.5 25.5t29.5 72.5l246 1077q23 96 -45 103l-121 8l14 59h561l-14 -59l-113 -10q-37 -2 -55 -27t-31 -74l-106 -469h35q104 0 214.5 94.5t174.5 227.5q84 174 157.5 261t165.5 87q111 0 164 -53.5t53 -128.5q0 -147 -114 -148q-41 0 -68 22.5 t-27 53.5q0 27 14.5 74t14.5 73q0 35 -47 35q-39 0 -97.5 -72.5t-107.5 -181.5q-70 -158 -152.5 -248t-162.5 -114v-6q139 -2 239.5 -123t100.5 -281q0 -176 41 -242.5t178 -66.5l-16 -72h-115q-150 0 -220.5 65.5t-72.5 215.5q-4 225 -23 293q-41 139 -202 153q-23 2 -47 2 h-99l-121 -528q-23 -96 46 -102l120 -9l-12 -59h-561z" />
<glyph unicode="&#x41b;" horiz-adv-x="1527" d="M82 172q0 63 30.5 123.5t102.5 60.5q41 0 65.5 -21.5t24.5 -55.5q0 -45 -25.5 -94.5t-25.5 -82.5q0 -55 43 -55q129 0 307 341t291 859q8 39 -2 70t-43 33l-121 8l14 59h1022l-14 -59l-113 -10q-37 -2 -55 -27t-31 -74l-245 -1077q-23 -96 45 -102l121 -9l-13 -59h-561 l12 59l113 13q37 2 56.5 25.5t29.5 72.5l242 1061q18 80 -6.5 97.5t-131.5 17.5h-36q-111 0 -142.5 -16.5t-48.5 -92.5q-133 -575 -322.5 -918.5t-363.5 -343.5q-106 0 -162.5 59.5t-56.5 137.5z" />
<glyph unicode="&#x41c;" horiz-adv-x="1884" d="M63 0l11 59l63 7q49 4 76 22t45 66q37 102 72 254l192 839q23 92 -45 99l-121 12l15 59h397q29 -154 117 -547l114 -567h7l362 553q246 375 354 561h402l-15 -59l-112 -8q-37 -2 -55.5 -26t-30.5 -77l-246 -1077q-12 -49 -2 -72.5t47 -25.5l121 -13l-12 -59h-557l12 59 l112 13q37 2 55.5 23.5t31.5 74.5l251 1071h-6l-796 -1216h-58l-246 1216h-4l-188 -833q-33 -147 -43 -254q-4 -45 18.5 -64.5t75.5 -23.5l80 -7l-10 -59h-484z" />
<glyph unicode="&#x41d;" horiz-adv-x="1587" d="M82 0l12 59l113 13q37 2 55.5 23.5t30.5 74.5l246 1077q20 96 -45 103l-121 8l14 59h561l-14 -59l-113 -10q-37 -2 -55 -25t-31 -76l-108 -471h684l106 471q20 96 -45 103l-121 8l15 59h561l-15 -59l-112 -10q-37 -2 -55.5 -25t-30.5 -76l-246 -1077q-23 -96 45 -102 l121 -9l-12 -59h-561l12 59l112 13q37 2 55.5 23.5t30.5 74.5l121 528h-684l-119 -528q-12 -51 -1.5 -75.5t47.5 -26.5l120 -9l-12 -59h-561z" />
<glyph unicode="&#x41e;" horiz-adv-x="1542" d="M233 553q0 279 142 518q227 377 649 377q268 0 430 -149.5t162 -450.5q0 -256 -129 -490q-98 -178 -251 -283.5t-402 -105.5q-295 0 -448 160t-153 424zM449 471q0 -209 98 -319.5t268 -110.5q332 0 490 410q96 250 96 503q0 211 -97.5 316.5t-271.5 105.5 q-291 0 -457 -344q-126 -268 -126 -561z" />
<glyph unicode="&#x41f;" horiz-adv-x="1572" d="M82 0l12 59l113 13q37 2 56.5 25.5t29.5 72.5l246 1077q23 96 -45 103l-121 8l14 59h1423l-14 -59l-113 -10q-37 -2 -55 -27t-31 -74l-245 -1077q-23 -96 45 -102l121 -9l-13 -59h-561l12 59l113 13q37 2 56.5 25.5t29.5 72.5l242 1061q18 80 -6.5 97.5t-130.5 17.5h-336 q-111 0 -142.5 -16.5t-48.5 -92.5l-244 -1067q-23 -96 46 -102l120 -9l-12 -59h-561z" />
<glyph unicode="&#x420;" horiz-adv-x="1257" d="M82 0l12 59l113 13q37 2 55.5 23.5t30.5 74.5l246 1077q23 94 -45 101l-121 10l14 59h479q233 0 363 -74q166 -94 166 -303q0 -115 -54.5 -213t-152.5 -157q-158 -96 -455 -97h-151l-93 -403q-12 -49 -1.5 -72.5t47.5 -25.5l141 -13l-12 -59h-582zM609 689 q-1 -11 10.5 -24.5t39 -16.5t80.5 -3q211 0 326 108.5t115 323.5q0 268 -308 269q-74 0 -97 -14.5t-34 -57.5l-125 -543q-6 -31 -7 -42z" />
<glyph unicode="&#x421;" horiz-adv-x="1353" d="M233 563q0 287 140 512q100 164 280.5 268.5t446.5 104.5q117 0 243.5 -28.5t208.5 -80.5l-73 -307h-62q8 174 -69.5 259t-264.5 85q-309 0 -483 -291q-72 -119 -109.5 -274.5t-37.5 -300.5q0 -229 111.5 -349t295.5 -120q174 0 273.5 82t195.5 258h62l-101 -326 q-172 -86 -416 -86q-147 0 -260.5 36t-184.5 94.5t-116 138t-62.5 159.5t-17.5 166z" />
<glyph unicode="&#x422;" horiz-adv-x="1241" d="M281 1075l77 342h1164l-78 -342h-62q10 92 4 152.5t-60 89.5t-177 29h-129l-266 -1180q-12 -47 0 -71.5t53 -26.5l149 -9l-14 -59h-631l15 59l133 9q45 2 66.5 25.5t31.5 72.5l266 1180h-141q-150 0 -220.5 -56.5t-119.5 -214.5h-61z" />
<glyph unicode="&#x423;" horiz-adv-x="1376" d="M193 164q0 90 32.5 143t93.5 53q47 0 74 -24.5t27 -65.5q0 -31 -24.5 -83t-24.5 -70q0 -70 67 -70q53 0 121 38t103 97l14 25l-227 964q-4 20 -11.5 50t-9.5 42.5t-8 31t-11.5 25.5t-13.5 15t-19 11.5t-28 3.5l-82 8l15 59h516l-15 -59l-88 -10q-53 -4 -53 -78 q0 -78 72 -385l104 -451h2l299 467q74 115 146.5 253t72.5 165q0 23 -55 29l-98 10l12 59h453l-13 -59q-14 -2 -41.5 -6t-36 -6.5t-27 -7.5t-24.5 -10t-19 -15t-23.5 -25.5t-24.5 -36.5l-676 -1071q-131 -205 -322 -205q-113 0 -181 59.5t-68 129.5z" />
<glyph unicode="&#x424;" horiz-adv-x="1742" d="M244 641q0 74 17.5 142.5t70.5 146.5t137 134t231.5 93t341.5 37l15 61q23 100 -45 103l-133 8l14 59h584l-15 -59l-123 -10q-37 -2 -55 -26.5t-31 -74.5l-14 -61q174 0 296 -36t182.5 -97.5t85 -124t24.5 -131.5q0 -74 -17.5 -142.5t-70.5 -146.5t-138 -134t-232.5 -93 t-342.5 -37l-18 -82q-23 -100 45 -102l133 -9l-12 -59h-584l12 59l123 13q37 2 56.5 25.5t29.5 72.5l18 82q-139 0 -246.5 24.5t-170 63.5t-102.5 93t-53 103.5t-13 104.5zM459 612q0 -147 92 -214.5t297 -67.5l178 786q-172 0 -292 -47t-176 -128t-77.5 -159t-21.5 -170z M1044 330q139 0 245 32.5t165 83t96 121t49.5 133t12.5 134.5q0 147 -92.5 214.5t-296.5 67.5z" />
<glyph unicode="&#x425;" horiz-adv-x="1294" d="M-2 0l12 59q100 10 140 24.5t88 66.5q127 135 483 565q-39 88 -120 286.5t-114 268.5q-23 51 -57.5 65.5t-132.5 22.5l12 59h533l-13 -59l-106 -8q-61 -6 -35 -74q127 -311 168 -408h4q168 193 340 418q43 57 -18 64l-88 8l12 59h471l-12 -59q-139 -10 -197 -60 q-199 -182 -475 -514q254 -571 276 -620q29 -63 66 -79.5t145 -25.5l-12 -59h-553l10 59l107 11q63 6 35 73q-27 68 -61 148t-77 179t-67 155h-8q-238 -293 -379 -496q-35 -51 28 -57l117 -13l-12 -59h-510z" />
<glyph unicode="&#x426;" horiz-adv-x="1568" d="M82 0l14 59l113 11q37 2 55.5 26.5t30.5 73.5l246 1077q23 96 -45 103l-121 8l12 59h561l-12 -59l-113 -12q-37 -2 -56 -26t-30 -73l-241 -1061q-18 -80 6 -97t131 -17h332q111 0 142.5 16t47.5 92l244 1067q23 96 -45 103l-121 8l12 59h561l-12 -59l-113 -12 q-37 -2 -56 -26t-30 -73l-241 -1061q-18 -80 6 -97t131 -17h45l-96 -461h-64q14 125 15 182q0 121 -73 164t-294 43h-942z" />
<glyph unicode="&#x427;" horiz-adv-x="1488" d="M360 1358l15 59h540l-14 -61l-92 -8q-37 -2 -55.5 -26t-30.5 -75l-78 -319q-66 -274 156 -275q113 0 209 17q55 8 128.5 58t86.5 106l94 413q23 100 -45 103l-100 6l14 61h541l-15 -59l-112 -10q-37 -2 -55.5 -27t-30.5 -74l-246 -1077q-23 -96 45 -102l121 -9l-13 -59 h-571l12 59l123 11q37 2 56.5 25.5t29.5 74.5l119 514h-4q-233 -158 -488 -158q-117 0 -182 69t-71.5 172t18.5 222l61 258q23 96 -45 103z" />
<glyph unicode="&#x428;" horiz-adv-x="2179" d="M82 0l14 59l113 11q37 2 55.5 26.5t30.5 73.5l246 1077q23 96 -45 103l-121 8l12 59h561l-12 -59l-113 -12q-37 -2 -56 -26t-30 -73l-241 -1061q-18 -80 6 -97t131 -17h209q111 0 142.5 16t47.5 92l244 1067q6 25 6 45q0 55 -51 58l-121 8l12 59h561l-12 -59l-112 -12 q-37 -2 -56.5 -26t-29.5 -73l-242 -1061q-8 -33 -8 -57q0 -39 28.5 -48t116.5 -9h209q111 0 142.5 16t47.5 92l244 1067q23 96 -45 103l-121 8l13 59h561l-13 -59l-112 -12q-37 -2 -56.5 -26t-29.5 -73l-242 -1061q-18 -80 6.5 -97t130.5 -17h27l-16 -72h-2032z" />
<glyph unicode="&#x429;" horiz-adv-x="2181" d="M82 0l14 59l113 11q37 2 55.5 26.5t30.5 73.5l246 1077q23 96 -45 103l-121 8l12 59h561l-12 -59l-113 -12q-37 -2 -56 -26t-30 -73l-241 -1061q-18 -80 6 -97t131 -17h209q111 0 142.5 16t47.5 92l244 1067q6 25 6 45q0 55 -51 58l-121 8l12 59h561l-12 -59l-112 -12 q-37 -2 -56.5 -26t-29.5 -73l-242 -1061q-8 -33 -8 -57q0 -39 28.5 -48t116.5 -9h209q111 0 142.5 16t47.5 92l244 1067q23 96 -45 103l-121 8l13 59h561l-13 -59l-112 -12q-37 -2 -56.5 -26t-29.5 -73l-242 -1061q-18 -80 6.5 -97t130.5 -17h45l-96 -461h-63q14 125 14 182 q0 121 -72.5 164t-294.5 43h-1554z" />
<glyph unicode="&#x42a;" horiz-adv-x="1558" d="M291 1081l74 336h868l-14 -59l-123 -8q-37 -2 -55.5 -27t-30.5 -76l-107 -469q70 20 223 21q193 0 319 -99.5t126 -255.5q0 -47 -7.5 -92t-42 -113.5t-94 -116.5t-177 -85t-279.5 -37h-625l12 59l119 13q39 2 59.5 25.5t30.5 72.5l242 1061q18 80 -6.5 97.5t-130.5 17.5 h-4q-55 0 -89 -6.5t-79 -30t-80 -79.5t-66 -149h-63zM772 203q-16 -70 18.5 -100.5t174.5 -30.5q111 0 192.5 40t120.5 101t55.5 115.5t16.5 105.5q0 125 -77 209t-208 84q-115 0 -180 -27z" />
<glyph unicode="&#x42b;" horiz-adv-x="1896" d="M82 0l12 59l113 13q37 2 56.5 25.5t29.5 72.5l246 1077q23 96 -45 103l-121 8l14 59h571l-14 -59l-123 -8q-37 -2 -55 -27t-31 -76l-106 -469q70 20 223 21q193 0 318.5 -99.5t125.5 -255.5q0 -47 -7 -92t-42 -113.5t-94 -116.5t-177 -85t-280 -37h-614zM498 203 q-16 -70 18.5 -100.5t173.5 -30.5q111 0 193 40t120.5 101t55 115.5t16.5 105.5q0 125 -76.5 209t-207.5 84q-115 0 -181 -27zM1270 0l12 59l113 13q37 2 56.5 25.5t29.5 72.5l246 1077q23 96 -45 103l-121 8l14 59h561l-14 -59l-113 -10q-37 -2 -55 -27t-31 -74l-246 -1077 q-23 -96 46 -102l120 -9l-12 -59h-561z" />
<glyph unicode="&#x42c;" horiz-adv-x="1284" d="M82 0l12 59l113 13q37 2 56.5 25.5t29.5 72.5l246 1077q23 96 -45 103l-121 8l14 59h571l-14 -59l-123 -8q-37 -2 -55 -27t-31 -76l-106 -469q70 20 223 21q193 0 318.5 -99.5t125.5 -255.5q0 -47 -7 -92t-42 -113.5t-94 -116.5t-177 -85t-280 -37h-614zM498 203 q-16 -70 18.5 -100.5t173.5 -30.5q111 0 193 40t120.5 101t55 115.5t16.5 105.5q0 125 -76.5 209t-207.5 84q-115 0 -181 -27z" />
<glyph unicode="&#x42d;" horiz-adv-x="1234" d="M125 250q0 172 123 172q49 0 76.5 -25.5t27.5 -72.5q0 -31 -10 -78t-10 -64q0 -55 56 -98t159 -43q139 0 252.5 106.5t177 250t94.5 309.5h-590l17 77h585q10 82 11 140q0 182 -92.5 317t-225.5 135q-131 0 -228 -74.5t-177 -285.5h-66l80 348q66 29 108 43t118.5 27.5 t164.5 13.5q246 0 389.5 -174t143.5 -412q0 -152 -54.5 -333t-171.5 -314q-106 -121 -231 -183.5t-330 -62.5q-70 0 -158 29t-163.5 97.5t-75.5 154.5z" />
<glyph unicode="&#x42e;" horiz-adv-x="2146" d="M82 0l12 59l113 13q37 2 56.5 25.5t29.5 72.5l246 1077q23 96 -45 103l-121 8l14 59h561l-14 -59l-113 -10q-37 -2 -55 -27t-31 -74l-106 -471h233q35 156 117 295q227 377 649 377q268 0 430 -149.5t162 -450.5q0 -256 -129 -490q-98 -178 -250.5 -283.5t-402.5 -105.5 q-295 0 -447.5 160t-152.5 424q0 78 10 145h-238l-121 -528q-23 -96 46 -102l120 -9l-12 -59h-561zM1053 471q0 -209 98 -319.5t268 -110.5q332 0 490 410q96 250 96 503q0 211 -97.5 316.5t-271.5 105.5q-291 0 -456 -344q-127 -268 -127 -561z" />
<glyph unicode="&#x42f;" horiz-adv-x="1497" d="M74 -31l16 72q68 0 115 15.5t85 60.5t62.5 92t65.5 141q37 82 75.5 137.5t90 86t88.5 45t106 32.5v6q-119 59 -186.5 140.5t-67.5 226.5q0 162 157 277.5t460 115.5h596l-15 -59l-112 -10q-37 -2 -55.5 -27t-30.5 -74l-246 -1077q-23 -96 45 -102l121 -9l-12 -59h-562 l13 59l112 13q37 2 56.5 25.5t29.5 72.5l103 453h-135q-166 0 -267.5 -85t-183.5 -288q-59 -147 -159.5 -214t-250.5 -67h-114zM739 981q0 -125 76 -206t186 -81h48q96 0 126.5 12.5t43.5 67.5l114 496q10 45 -16.5 60.5t-122.5 15.5h-45q-223 0 -316.5 -97.5t-93.5 -267.5z " />
<glyph unicode="&#x430;" horiz-adv-x="1148" d="M135 219q0 84 27.5 187.5t87 214t141.5 200.5t204 148.5t261 58.5q88 0 150 -43l10 27h172l-217 -817q-31 -113 20 -113q39 0 92.5 71.5t92.5 145.5l49 -29q-57 -129 -144.5 -212t-195.5 -83q-158 0 -90 230l69 233h-4q-264 -463 -528 -463q-98 0 -147.5 71t-49.5 173z M338 225q0 -143 90 -143q133 0 338 311q147 221 219 518q-49 45 -125 45q-113 0 -216 -81.5t-166.5 -199.5t-101.5 -240t-38 -210z" />
<glyph unicode="&#x431;" horiz-adv-x="1110" d="M182 346q0 129 44 344t155 443q137 285 496 309q184 12 251.5 28.5t90.5 65.5h53q-70 -156 -150 -204t-225 -64q-164 -18 -238.5 -39t-118.5 -56.5t-104 -121.5q-35 -49 -88 -232l8 -2q168 211 428 211q68 0 128.5 -17.5t116.5 -55t89 -111.5t33 -174q0 -96 -32 -208 t-96.5 -224.5t-185 -187.5t-278.5 -75q-186 0 -281.5 100.5t-95.5 270.5zM381 264q0 -217 184 -217q80 0 147.5 58.5t110.5 143.5t74 185.5t43 179t12 127.5q0 215 -170 215q-96 0 -176 -75.5t-127 -188t-72.5 -226.5t-25.5 -202z" />
<glyph unicode="&#x432;" horiz-adv-x="993" d="M164 346q0 170 74.5 324.5t217 256t316.5 101.5q113 0 178.5 -57.5t65.5 -118.5q0 -72 -13.5 -103.5t-66.5 -86.5q-72 -76 -197 -109v-4q104 -8 178 -67.5t74 -176.5q0 -141 -138 -235.5t-343 -94.5q-63 0 -118.5 16.5t-110 55.5t-86 116t-31.5 183zM365 373 q0 -72 5 -118t22.5 -95t57 -74t103.5 -25q98 0 169 67t71 194q0 72 -41 121t-99 49q-70 0 -182 -33l-102 -29q0 -8 -2 -29.5t-2 -27.5zM373 496q260 61 367.5 138t107.5 202q0 53 -39 86.5t-94 33.5q-123 0 -219 -136t-123 -324z" />
<glyph unicode="&#x433;" horiz-adv-x="866" d="M164 182q0 76 25.5 132.5t75.5 97.5t100.5 69.5t125 69.5t125.5 80q76 57 76 190q0 63 -37 99t-92 36q-63 0 -119.5 -35.5t-148.5 -115.5l-43 39q117 113 189.5 148.5t162.5 35.5q137 0 193.5 -58.5t56.5 -125.5q0 -86 -31.5 -140.5t-73.5 -78t-130.5 -72.5t-158 -102.5 t-91 -116t-21.5 -148.5q0 -37 7 -63.5t43 -51t102 -24.5q88 0 158.5 55.5t181.5 186.5l39 -39q-121 -152 -204 -213.5t-206 -61.5q-141 0 -223 59.5t-82 147.5z" />
<glyph unicode="&#x434;" horiz-adv-x="1126" d="M172 346q0 59 15.5 138t57.5 177.5t103.5 178.5t164.5 134t232 54q115 0 177.5 -56.5t68.5 -129.5l8 2q20 63 21 250q0 176 -66.5 265t-189.5 89q-184 0 -313 -215l-48 35q147 252 355 252q401 0 401 -514q0 -164 -38 -388.5t-117 -353.5q-178 -289 -463 -289 q-186 0 -277.5 99.5t-91.5 271.5zM371 264q0 -217 176 -217q80 0 147.5 58.5t110.5 143.5t73.5 185.5t43 179t12.5 127.5q0 215 -170 215q-96 0 -175 -75.5t-124 -188t-69.5 -225.5t-24.5 -203z" />
<glyph unicode="&#x435;" horiz-adv-x="927" d="M164 311q0 274 170 484q188 233 448 233q121 0 187.5 -59.5t66.5 -145.5q0 -111 -86 -196q-160 -147 -581 -234q-2 -14 -2 -33q0 -285 186 -284q55 0 105.5 21.5t95.5 61.5t72.5 71.5t64.5 78.5l47 -41q-180 -293 -469 -293q-51 0 -98 13.5t-97.5 46.5t-80 103.5 t-29.5 172.5zM373 463q244 51 357.5 152.5t113.5 220.5q0 53 -33 86.5t-86 33.5q-119 0 -222 -150t-130 -343z" />
<glyph unicode="&#x436;" horiz-adv-x="2011" d="M102 131q0 51 35 83t90 32q27 0 43.5 -21.5t16.5 -50.5q0 -49 3 -70.5t20.5 -39t56.5 -17.5q76 0 147.5 97.5t114.5 239.5t43 275q0 141 -25.5 205t-105.5 64q-129 0 -301 -234l-50 39q96 160 210 227.5t212 67.5q90 0 169 -93t79 -263q0 -53 -10 -119h182l109 451 l188 24l-112 -475h180q59 199 195.5 337t303.5 138q90 0 158 -48t68 -108q0 -51 -35 -82.5t-90 -31.5q-27 0 -43.5 21.5t-16.5 49.5q0 49 -3 71t-20.5 39t-55.5 17q-76 0 -148 -97t-115 -239.5t-43 -275.5q0 -141 26 -204.5t105 -63.5q129 0 302 233l49 -39 q-96 -160 -210 -227.5t-212 -67.5q-90 0 -169 93.5t-79 263.5q0 72 16 149h-182l-115 -481l-188 -25l121 506h-180q-53 -209 -193.5 -357.5t-314.5 -148.5q-90 0 -158 48.5t-68 107.5z" />
<glyph unicode="&#x437;" horiz-adv-x="915" d="M111 256q0 51 29.5 88t80.5 37q78 0 78 -70q0 -12 -2 -35.5t-2 -33.5q0 -195 184 -195q100 0 167 85t67 185q0 88 -44 142.5t-128 54.5h-129l16 72h121q127 0 174 68.5t47 158.5q0 66 -49 104.5t-113 38.5q-172 0 -321 -204l-51 39q76 117 171 177t236 60 q139 0 229.5 -57.5t90.5 -182.5q0 -158 -256 -223v-6q98 -27 151 -95.5t53 -158.5q0 -137 -129 -233.5t-315 -96.5q-170 0 -263 81t-93 200z" />
<glyph unicode="&#x438;" horiz-adv-x="1265" d="M258 922l12 49l373 57l10 -10l-196 -756q-47 -180 51 -180q117 0 237.5 147.5t200.5 331.5q59 139 146 443l182 24l-219 -835q-29 -111 26 -111q61 0 189 217l49 -31q-59 -125 -148.5 -209t-193.5 -84q-158 0 -94 222l67 233h-4q-98 -190 -245.5 -322.5t-288.5 -132.5 q-215 0 -138 297l142 541q14 47 9 71.5t-40 26.5z" />
<glyph unicode="&#x439;" horiz-adv-x="1265" d="M258 922l12 49l373 57l10 -10l-196 -756q-47 -180 51 -180q117 0 237.5 147.5t200.5 331.5q59 139 146 443l182 24l-219 -835q-29 -111 26 -111q61 0 189 217l49 -31q-59 -125 -148.5 -209t-193.5 -84q-158 0 -94 222l67 233h-4q-98 -190 -245.5 -322.5t-288.5 -132.5 q-215 0 -138 297l142 541q14 47 9 71.5t-40 26.5zM625 1378q0 139 125 140q82 0 81 -72q0 -20 -7 -46t-7 -50q0 -59 24.5 -87t80.5 -28q61 0 122.5 69.5t135.5 227.5l53 -23q-106 -346 -346 -346q-119 0 -190.5 77t-71.5 138z" />
<glyph unicode="&#x43a;" horiz-adv-x="1191" d="M201 -25l198 834q16 59 10 78.5t-51 23.5l-112 13l12 47l365 57l10 -10l-148 -598h9l43 47q31 82 112.5 211t159.5 209q137 141 256 141q158 0 158 -100q0 -41 -30 -80t-71 -39q-39 0 -72.5 47t-62.5 47q-63 0 -119 -55q-115 -115 -250 -344v-6q88 57 191 57 q92 0 128 -44t36 -126q0 -51 -16.5 -125t-16.5 -86q0 -92 57 -92q68 0 181 217l49 -29q-57 -131 -141.5 -213t-186.5 -82q-61 0 -94 53.5t-33 121.5q0 27 12.5 99.5t12.5 119.5q0 55 -13.5 83.5t-56.5 28.5q-39 0 -127 -56t-123 -122q-23 -39 -76 -256l-12 -47z" />
<glyph unicode="&#x43b;" horiz-adv-x="1130" d="M35 88q0 45 27.5 77t70.5 32q37 0 67.5 -35t55.5 -35q96 0 219 289q35 82 69 195.5t50 187.5l14 71q14 59 -47 72l-119 21l11 41h663l-205 -809q-29 -113 21 -113q39 0 92 71.5t92 145.5l49 -29q-57 -129 -142 -212t-189 -83q-80 0 -106 54.5t-1 146.5l178 692 q14 63 -51 64h-72q-51 0 -74.5 -30t-39.5 -99q-25 -104 -39.5 -162.5t-44 -159t-54 -160t-63.5 -133t-80 -114.5t-95 -70t-116 -29q-59 0 -100 34t-41 79z" />
<glyph unicode="&#x43c;" horiz-adv-x="1536" d="M41 88q0 41 26.5 71.5t65.5 30.5q35 0 66.5 -31.5t56.5 -31.5q31 0 61.5 28.5t56 82t47 111t42 137t35 139t32 136.5t25.5 109q6 29 -8.5 47.5t-38.5 24.5l-119 21l10 41h398l57 -762h6l440 762h226l-209 -809q-29 -113 20 -113q39 0 92.5 71.5t92.5 145.5l49 -29 q-57 -129 -142.5 -212t-189.5 -83q-80 0 -105.5 54.5t-0.5 146.5l182 692h-4l-512 -868h-101l-59 895h-4q-6 -25 -17 -76q-20 -90 -29 -135t-28.5 -126t-32 -124t-33 -108.5t-38 -101.5t-42 -83t-49 -71.5t-54 -49t-63.5 -35t-73 -10.5q-59 0 -97 33t-38 80z" />
<glyph unicode="&#x43d;" horiz-adv-x="1253" d="M201 -25l198 834q16 59 10 78.5t-51 23.5l-112 13l12 47l365 57l10 -10l-111 -465h424l117 451l182 24l-211 -833q-31 -113 21 -113q39 0 92 71.5t92 145.5l49 -29q-57 -129 -142 -212t-190 -83q-80 0 -105.5 54.5t-0.5 146.5l78 305h-424l-115 -481z" />
<glyph unicode="&#x43e;" horiz-adv-x="1099" d="M172 346q0 61 15.5 139t57.5 176.5t106.5 178.5t175 134t247.5 54q68 0 128.5 -17.5t116.5 -55t89 -111.5t33 -174q0 -229 -129 -432q-166 -262 -463 -263q-186 0 -281.5 100.5t-95.5 270.5zM371 264q0 -217 184 -217q80 0 147.5 58.5t110.5 143.5t74 185.5t43 179 t12 127.5q0 215 -170 215q-96 0 -176 -75.5t-127 -188t-72.5 -226.5t-25.5 -202z" />
<glyph unicode="&#x43f;" horiz-adv-x="1265" d="M201 -25l215 838q16 49 10 72.5t-41 25.5l-127 11l12 49l375 57l10 -10l-133 -447h6q98 190 245 323.5t288 133.5q119 0 153.5 -88t-8.5 -209l-159 -536q-31 -113 20 -113q39 0 92 71.5t92 145.5l49 -29q-57 -129 -143 -212t-194 -83q-80 0 -107 57.5t2 143.5l176 600 q18 59 1 102.5t-68 43.5q-78 0 -170 -85t-159 -188.5t-110 -202.5q-63 -152 -147 -446z" />
<glyph unicode="&#x440;" horiz-adv-x="1208" d="M117 -496l286 1309q8 35 9.5 52.5t-7 30.5t-32.5 15l-127 11l12 49l371 57l10 -10l-117 -432h6q113 211 253.5 326.5t262.5 115.5q227 0 228 -274q0 -55 -17.5 -141.5t-64.5 -200t-114.5 -208.5t-184.5 -162t-258 -67q-147 0 -221 45l-113 -491zM432 109q72 -61 180 -62 q117 0 211.5 86t144.5 208t75.5 230.5t25.5 180.5q0 170 -111 170q-82 0 -183 -98.5t-181 -237.5q-101 -178 -162 -477z" />
<glyph unicode="&#x441;" horiz-adv-x="903" d="M166 303q0 172 70.5 336t210 276.5t313.5 112.5q115 0 189.5 -52t74.5 -130q0 -47 -45 -81t-86 -34q-53 0 -59 62q-16 164 -123 163q-90 0 -171 -98t-126 -238.5t-45 -275.5q0 -125 38.5 -196.5t141.5 -71.5q152 0 328 239l49 -39q-180 -301 -467 -301q-123 0 -208 78 t-85 250z" />
<glyph unicode="&#x442;" horiz-adv-x="1867" d="M201 -25l211 838q14 49 10 72.5t-39 25.5l-125 11l12 49l371 57l10 -10l-129 -424h6q109 199 246 316.5t275 117.5q106 0 138 -79t-16 -226l-41 -129h9q113 203 248 318.5t270 115.5q82 0 125 -41t44 -107.5t-20 -148.5l-157 -536q-31 -113 20 -113q39 0 92.5 71.5 t91.5 145.5l50 -29q-57 -129 -143.5 -212t-190.5 -83q-78 0 -105.5 53.5t-1.5 147.5l176 602q20 66 1 105t-70 39q-80 0 -171 -84t-155.5 -184.5t-107.5 -200.5q-51 -119 -146 -453l-178 -25l53 201l152 574q45 172 -62 172q-115 0 -245.5 -162t-194.5 -324 q-39 -100 -135 -436z" />
<glyph unicode="&#x443;" horiz-adv-x="958" d="M-10 -383q0 45 32.5 83t71.5 40q35 0 72 -49q47 -63 84 -64q31 0 66.5 40t64.5 106q49 119 49 254q0 238 -68 716q-12 84 -25 113t-46 27l-139 -4l-7 51l344 98l17 -8q53 -281 82 -895h6q250 430 289 569q31 111 26 283q76 51 160 51q8 0 16.5 -13.5t14.5 -41t6 -60.5 q0 -16 -6 -39.5t-22.5 -57.5t-31 -61.5t-42 -74.5t-44 -74.5t-51.5 -84t-49 -81.5q-57 -92 -117.5 -196.5t-112.5 -194.5t-61 -104q-68 -117 -99.5 -169t-77.5 -118t-79.5 -91.5t-78 -44t-95.5 -18.5q-66 0 -107.5 35t-41.5 78z" />
<glyph unicode="&#x444;" horiz-adv-x="1540" d="M172 326q0 174 69.5 335.5t194.5 264t273 102.5q68 0 108.5 -16.5t73.5 -63.5h4q12 57 14 70l17 72q16 70 30.5 117.5t45 112t67.5 103.5t97.5 68t136.5 29q86 0 146 -55.5t60 -112.5q0 -90 -100 -90q-18 0 -35.5 14t-19.5 33q-10 84 -32 111.5t-69 27.5 q-43 0 -74.5 -69.5t-70.5 -241.5l-35 -152l-31 -125h5q37 74 115.5 121t148.5 47q117 0 193.5 -98.5t76.5 -251.5q0 -174 -69.5 -336t-194.5 -264.5t-273 -102.5q-68 0 -108.5 16.5t-73.5 63.5h-4q-12 -57 -14 -69l-13 -52q-16 -70 -30.5 -117.5t-45 -112t-67.5 -103.5 t-97.5 -68t-135.5 -29q-86 0 -146.5 55.5t-60.5 112.5q0 90 100 90q18 0 35.5 -14t19.5 -33q10 -84 32 -111.5t69 -27.5q43 0 74.5 69.5t70.5 241.5l31 131l31 125h-4q-37 -74 -116 -121t-149 -47q-117 0 -193.5 98.5t-76.5 252.5zM371 268q0 -111 22.5 -166t95.5 -55 q72 0 159 110.5t116 225.5l98 428q-16 80 -51 112.5t-96 32.5q-102 0 -184 -116.5t-121 -272.5t-39 -299zM891 193q16 -80 51 -113t96 -33q102 0 184.5 117t121 272.5t38.5 298.5q0 111 -22.5 166t-95.5 55q-72 0 -159 -110.5t-116 -224.5z" />
<glyph unicode="&#x445;" horiz-adv-x="1056" d="M63 80q0 39 25 70.5t64 31.5q20 0 81 -30q33 -18 60 -19q61 0 213 256l57 98l-74 297q-16 68 -30.5 86.5t-42.5 16.5l-154 -10l-6 49l338 102l12 -8l82 -344h4l90 139q133 213 273 213q104 0 104 -88q0 -41 -26.5 -69.5t-61.5 -28.5q-25 0 -65 16q-31 16 -58 16 q-72 0 -237 -294l65 -269q35 -141 53.5 -185t47.5 -44q20 0 40.5 15.5t45 53t36 58t39.5 74.5l54 -29q-31 -63 -52.5 -99t-57.5 -84t-81 -72t-98 -24q-74 0 -112 59.5t-70 192.5l-37 160h-4l-82 -135q-39 -61 -52.5 -84t-49.5 -71t-60.5 -66.5t-62 -37t-78.5 -18.5 q-59 0 -95.5 30t-36.5 75z" />
<glyph unicode="&#x446;" horiz-adv-x="1265" d="M258 922l12 49l373 57l10 -10l-196 -756q-47 -180 51 -180q117 0 237.5 147.5t200.5 331.5q59 139 146 443l182 24l-219 -835q-29 -111 26 -111q61 0 189 217l49 -31q-45 -92 -98 -157q-55 -111 -56 -160q0 -33 9.5 -89.5t9.5 -92.5q0 -78 -73 -125t-214 -84l-14 51 q98 39 134 74.5t36 85.5q0 10 -2 37.5t-2 39.5q0 49 38.5 94.5t38.5 65.5q0 14 -16 6q-66 -39 -133 -39q-158 0 -94 222l67 233h-4q-98 -190 -245.5 -322.5t-288.5 -132.5q-215 0 -138 297l142 541q14 47 9 71.5t-40 26.5z" />
<glyph unicode="&#x447;" horiz-adv-x="1198" d="M244 922l12 49l373 57l10 -10l-109 -424q-27 -90 -12.5 -135t74.5 -45q82 0 170 73.5t160 229.5q16 33 36 104q25 72 37 127l13 56l182 24l-217 -833q-31 -113 26 -113q39 0 92.5 71.5t92.5 145.5l49 -29q-57 -129 -142 -212t-190 -83q-82 0 -109.5 55.5t-0.5 145.5 l108 381h-4q-113 -133 -195 -191.5t-194 -58.5q-76 0 -119 56.5t-44 132t15 151.5l48 166q14 47 9 71.5t-40 26.5z" />
<glyph unicode="&#x448;" horiz-adv-x="1882" d="M258 922l12 49l373 57l10 -10l-209 -793q-16 -68 1.5 -105.5t68.5 -37.5q80 0 171 84t155.5 184.5t107.5 200.5q51 119 146 453l178 24l-205 -774q-45 -172 61 -172q115 0 246 162t195 323q39 100 135 437l178 24l-211 -835q-29 -111 27 -111q61 0 188 217l49 -31 q-59 -125 -148 -209t-194 -84q-158 0 -94 222l62 213h-7q-109 -199 -246 -317t-274 -118q-106 0 -138 79t15 227l41 129h-8q-113 -203 -248 -319t-270 -116q-121 0 -155.5 87.5t3.5 209.5l142 541q14 47 9 71.5t-40 26.5z" />
<glyph unicode="&#x449;" horiz-adv-x="1882" d="M258 922l12 49l373 57l10 -10l-209 -793q-16 -68 1.5 -105.5t68.5 -37.5q80 0 171 84t155.5 184.5t107.5 200.5q51 119 146 453l178 24l-205 -774q-45 -172 61 -172q115 0 246 162t195 323q39 100 135 437l178 24l-211 -835q-29 -111 27 -111q61 0 188 217l49 -31 q-45 -92 -98 -157q-55 -111 -55 -160q0 -33 9 -89.5t9 -92.5q0 -78 -72.5 -125t-214.5 -84l-14 51q98 39 134 74.5t36 85.5q0 10 -2 37.5t-2 39.5q0 49 39 94.5t39 65.5q0 14 -17 6q-66 -39 -133 -39q-158 0 -94 222l62 213h-7q-109 -199 -246 -317t-274 -118 q-106 0 -138 79t15 227l41 129h-8q-113 -203 -248 -319t-270 -116q-121 0 -155.5 87.5t3.5 209.5l142 541q14 47 9 71.5t-40 26.5z" />
<glyph unicode="&#x44a;" horiz-adv-x="1306" d="M139 737q188 291 355 291q61 0 145 -31.5t141 -31.5q94 0 205 63l53 -35q-233 -221 -305 -372q-12 -25 -37 -111h4q117 133 281 133q342 0 342 -281q0 -147 -146.5 -267t-398.5 -120q-147 0 -233 84t-86 201q0 160 129 348.5t254 300.5h-25q-10 -4 -43 -22.5t-63.5 -29.5 t-61.5 -11q-29 0 -125 24.5t-129 24.5q-31 0 -98.5 -63.5t-110.5 -131.5zM651 242q0 -195 180 -195q35 0 81 17.5t95.5 55.5t83 110.5t33.5 166.5q0 78 -49 126t-137 48q-76 0 -156 -53t-120 -153q-11 -39 -11 -123z" />
<glyph unicode="&#x44b;" horiz-adv-x="1662" d="M258 922l12 49l373 57l10 -10l-147 -508h4q117 133 270 133q342 0 342 -281q0 -147 -146.5 -267t-397.5 -120q-188 0 -264 128t-27 286l129 424q16 47 10 71.5t-41 26.5zM452 275.5q-3 -50.5 6 -105.5t53 -89t120 -34q35 0 81 17.5t95 55.5t83 110.5t34 166.5 q0 78 -49.5 126t-137.5 48q-72 0 -147.5 -49t-120.5 -143q-14 -53 -17 -103.5zM1260 176l213 828l182 24l-211 -833q-31 -113 20 -113q39 0 92.5 71.5t92.5 145.5l49 -29q-57 -129 -142.5 -212t-189.5 -83q-80 0 -105.5 54.5t-0.5 146.5z" />
<glyph unicode="&#x44c;" horiz-adv-x="1105" d="M258 922l12 49l373 57l10 -10l-147 -508h4q117 133 270 133q342 0 342 -281q0 -147 -146.5 -267t-397.5 -120q-188 0 -264 128t-27 286l129 424q16 47 10 71.5t-41 26.5zM452 275.5q-3 -50.5 6 -105.5t53 -89t120 -34q35 0 81 17.5t95 55.5t83 110.5t34 166.5 q0 78 -49.5 126t-137.5 48q-72 0 -147.5 -49t-120.5 -143q-14 -53 -17 -103.5z" />
<glyph unicode="&#x44d;" horiz-adv-x="923" d="M106 236q0 59 29 96t84 37q74 0 74 -82q0 -55 1 -82t7 -64t19.5 -53t38 -28.5t61.5 -12.5q111 0 189.5 129t119.5 311h-381l17 72h378q20 104 21 178q0 117 -47 168t-142 51q-145 0 -288 -204l-51 39q74 113 158.5 175t205.5 62q365 0 365 -356q0 -70 -17.5 -156 t-58.5 -182t-101.5 -175t-156.5 -131.5t-211 -52.5q-150 0 -232 78.5t-82 182.5z" />
<glyph unicode="&#x44e;" horiz-adv-x="1607" d="M201 -25l198 834q16 59 10 78.5t-51 23.5l-112 13l12 47l365 57l10 -10l-111 -465h191q25 88 66.5 165t108 150.5t168 116.5t226.5 43q68 0 128 -17.5t116.5 -55t89.5 -111.5t33 -174q0 -229 -129 -432q-166 -262 -463 -263q-186 0 -281.5 100.5t-95.5 270.5q0 61 14 135 h-190l-115 -481zM879 264q0 -217 184 -217q80 0 147.5 58.5t110.5 143.5t73.5 185.5t43 179t12.5 127.5q0 215 -170 215q-96 0 -176 -75.5t-127 -188t-72.5 -226.5t-25.5 -202z" />
<glyph unicode="&#x44f;" horiz-adv-x="1173" d="M45 88q0 39 24.5 70.5t63.5 31.5q37 0 67.5 -31.5t55.5 -31.5q31 0 55.5 27.5t65.5 109.5t85 120t120 67l2 12q-104 12 -190.5 80.5t-86.5 158.5q0 133 132 217.5t354 84.5h366l-205 -809q-29 -113 21 -113q39 0 92 71.5t92 145.5l49 -29q-57 -129 -142 -212t-189 -83 q-80 0 -106 54.5t-1 146.5l68 262h-47q-106 0 -179 -68.5t-143 -209.5q-49 -98 -117.5 -141.5t-175.5 -43.5q-59 0 -95 33t-36 80zM508 682q0 -78 51 -125t158 -47h139l96 375q6 20 -6 33.5t-35 13.5h-51q-174 0 -263 -56.5t-89 -193.5z" />
<glyph unicode="&#x450;" horiz-adv-x="927" d="M164 311q0 274 170 484q188 233 448 233q121 0 187.5 -59.5t66.5 -145.5q0 -111 -86 -196q-160 -147 -581 -234q-2 -14 -2 -33q0 -285 186 -284q55 0 105.5 21.5t95.5 61.5t72.5 71.5t64.5 78.5l47 -41q-180 -293 -469 -293q-51 0 -98 13.5t-97.5 46.5t-80 103.5 t-29.5 172.5zM373 463q244 51 357.5 152.5t113.5 220.5q0 53 -33 86.5t-86 33.5q-119 0 -222 -150t-130 -343zM490 1393q0 29 27.5 58.5t52.5 29.5q49 0 131 -84l243 -246l-30 -41l-310 172q-114 62 -114 111z" />
<glyph unicode="&#x451;" horiz-adv-x="927" d="M164 311q0 274 170 484q188 233 448 233q121 0 187.5 -59.5t66.5 -145.5q0 -111 -86 -196q-160 -147 -581 -234q-2 -14 -2 -33q0 -285 186 -284q55 0 105.5 21.5t95.5 61.5t72.5 71.5t64.5 78.5l47 -41q-180 -293 -469 -293q-51 0 -98 13.5t-97.5 46.5t-80 103.5 t-29.5 172.5zM373 463q244 51 357.5 152.5t113.5 220.5q0 53 -33 86.5t-86 33.5q-119 0 -222 -150t-130 -343zM430 1272q0 55 34.5 90t86.5 35q45 0 71.5 -30t26.5 -71q0 -53 -33 -89t-86 -36q-47 0 -73.5 28t-26.5 73zM856 1272q0 55 34.5 90t86.5 35q45 0 71.5 -30 t26.5 -71q0 -53 -33 -89t-86 -36q-47 0 -73.5 28t-26.5 73z" />
<glyph unicode="&#x452;" horiz-adv-x="1175" d="M188 -25l215 957h-147l16 72h148l67 305q12 59 5 77.5t-46 22.5l-116 14l12 47l369 50l10 -11l-121 -505h469l-16 -72h-471l-136 -567h5q92 174 223 272t235 98q115 0 180.5 -101.5t65.5 -236.5q0 -461 -756 -893l-22 52q578 350 577 888q0 184 -108 185 q-106 0 -222 -119t-165 -254q-27 -63 -92 -256z" />
<glyph unicode="&#x453;" horiz-adv-x="944" d="M217 -25l213 893q16 66 -45 74l-119 21l10 41h854l-71 -314h-60q18 139 -24.5 190.5t-194.5 51.5q-96 0 -127.5 -17.5t-50.5 -91.5l-196 -823zM592 1151l244 246q82 84 131 84q25 0 52.5 -30t27.5 -58q0 -49 -115 -111l-309 -172z" />
<glyph unicode="&#x454;" horiz-adv-x="882" d="M166 303q0 172 70.5 336t210 276.5t313.5 112.5q115 0 189.5 -52t74.5 -130q0 -47 -45 -81t-86 -34q-53 0 -59 62q-16 164 -123 163q-100 0 -185.5 -115.5t-128.5 -281.5h383l-16 -72h-383q-12 -74 -12 -143q0 -125 38.5 -196.5t141.5 -71.5q61 0 125.5 40t99.5 77.5 t88 101.5l49 -37q-184 -283 -452 -283q-123 0 -208 78t-85 250z" />
<glyph unicode="&#x455;" horiz-adv-x="796" d="M111 170q0 43 30.5 77t75.5 34q47 0 66 -62q25 -80 76 -126t108 -46q66 0 106.5 41t40.5 113q0 127 -141 239q-180 145 -180 287q0 129 90 215t242 86q125 0 192.5 -51t67.5 -109q0 -43 -32 -68.5t-67 -25.5q-41 0 -57 41q-63 141 -164 141q-55 0 -91 -41t-36 -92 q0 -106 146 -225q102 -84 145 -155.5t43 -157.5q0 -131 -96 -220.5t-258 -89.5q-137 0 -222 61.5t-85 133.5z" />
<glyph unicode="&#x456;" horiz-adv-x="649" d="M246 176l172 641q14 53 6 72.5t-49 21.5l-117 11l12 49l373 57l10 -10l-223 -823q-31 -113 21 -113q39 0 92 71.5t92 145.5l49 -29q-57 -129 -142 -212t-190 -83q-80 0 -105.5 54.5t-0.5 146.5zM500 1329q0 53 35.5 94t97.5 41q47 0 78.5 -28.5t31.5 -83.5 q0 -61 -35.5 -99.5t-95.5 -38.5q-49 0 -80.5 30t-31.5 85z" />
<glyph unicode="&#x457;" horiz-adv-x="649" d="M242 1272q0 55 34.5 90t86.5 35q45 0 71.5 -30t26.5 -71q0 -53 -33 -89t-86 -36q-47 0 -73.5 28t-26.5 73zM246 176l172 641q14 53 6 72.5t-49 21.5l-117 11l12 49l373 57l10 -10l-223 -823q-31 -113 21 -113q39 0 92 71.5t92 145.5l49 -29q-57 -129 -142 -212t-190 -83 q-80 0 -105.5 54.5t-0.5 146.5zM668 1272q0 55 34.5 90t86.5 35q45 0 71.5 -30t26.5 -71q0 -53 -33 -89t-86 -36q-47 0 -73.5 28t-26.5 73z" />
<glyph unicode="&#x458;" horiz-adv-x="632" d="M-123 -377q0 39 28.5 71t63.5 32q27 0 54 -41q74 -109 116 -109q33 0 47 64l250 1169q14 53 9 76.5t-39 25.5l-127 11l12 49l366 57l11 -10l-232 -1024q-63 -281 -145 -387q-82 -102 -219 -103q-80 0 -136.5 34t-58.5 85zM504 1329q0 53 35.5 94t97.5 41q47 0 79 -28.5 t32 -83.5q0 -61 -36 -99.5t-96 -38.5q-49 0 -80.5 30t-31.5 85z" />
<glyph unicode="&#x459;" horiz-adv-x="1581" d="M35 88q0 45 27.5 77t70.5 32q37 0 67.5 -35t55.5 -35q96 0 219 289q35 82 69 195.5t50 187.5l14 71q14 59 -47 72l-119 21l11 41h671l-143 -494h4q117 133 270 133q342 0 342 -281q0 -147 -146 -267t-398 -120q-188 0 -263 128t-28 286l143 479q18 63 -51 64h-72 q-51 0 -74.5 -30t-39.5 -99q-25 -104 -39.5 -162.5t-44 -159t-54 -160t-63.5 -133t-80 -114.5t-95 -70t-116 -29q-59 0 -100 34t-41 79zM926 275.5q-4 -52.5 6 -106.5t54 -88t120 -34q35 0 81 17.5t95 55.5t83 110.5t34 166.5q0 78 -49.5 126t-137.5 48q-72 0 -147.5 -49 t-120.5 -143q-14 -51 -18 -103.5z" />
<glyph unicode="&#x45a;" horiz-adv-x="1712" d="M201 -25l198 834q16 59 10 78.5t-51 23.5l-112 13l12 47l365 57l10 -10l-111 -465h420l137 451l183 24l-150 -518h4q117 133 270 133q342 0 343 -281q0 -147 -146.5 -267t-398.5 -120q-188 0 -264 128t-27 286l29 92h-418l-115 -481zM1057 275.5q-4 -52.5 6 -106.5 t54 -88t120 -34q35 0 81 17.5t95 55.5t83 110.5t34 166.5q0 78 -49 126t-138 48q-72 0 -147.5 -49t-120.5 -143q-14 -51 -18 -103.5z" />
<glyph unicode="&#x45b;" horiz-adv-x="1243" d="M188 -25l215 957h-147l16 72h148l67 305q12 59 5 77.5t-46 22.5l-116 14l12 47l369 50l10 -11l-121 -505h469l-16 -72h-471l-136 -567h5q96 182 229 276t283 94q119 0 152.5 -88t-9.5 -209l-84 -243q-39 -113 20 -113q39 0 92.5 71.5t92.5 145.5l49 -29 q-57 -129 -141 -212t-185 -83q-86 0 -113.5 59.5t7.5 162.5l90 288q18 63 1 103.5t-67 40.5q-125 0 -241.5 -117t-167.5 -256q-27 -63 -92 -256z" />
<glyph unicode="&#x45c;" horiz-adv-x="1191" d="M201 -25l198 834q16 59 10 78.5t-51 23.5l-112 13l12 47l365 57l10 -10l-148 -598h9l43 47q31 82 112.5 211t159.5 209q137 141 256 141q158 0 158 -100q0 -41 -30 -80t-71 -39q-39 0 -72.5 47t-62.5 47q-63 0 -119 -55q-115 -115 -250 -344v-6q88 57 191 57 q92 0 128 -44t36 -126q0 -51 -16.5 -125t-16.5 -86q0 -92 57 -92q68 0 181 217l49 -29q-57 -131 -141.5 -213t-186.5 -82q-61 0 -94 53.5t-33 121.5q0 27 12.5 99.5t12.5 119.5q0 55 -13.5 83.5t-56.5 28.5q-39 0 -127 -56t-123 -122q-23 -39 -76 -256l-12 -47zM612 1151 l244 246q82 84 131 84q25 0 52.5 -30t27.5 -58q0 -49 -115 -111l-309 -172z" />
<glyph unicode="&#x45d;" horiz-adv-x="1265" d="M258 922l12 49l373 57l10 -10l-196 -756q-47 -180 51 -180q117 0 237.5 147.5t200.5 331.5q59 139 146 443l182 24l-219 -835q-29 -111 26 -111q61 0 189 217l49 -31q-59 -125 -148.5 -209t-193.5 -84q-158 0 -94 222l67 233h-4q-98 -190 -245.5 -322.5t-288.5 -132.5 q-215 0 -138 297l142 541q14 47 9 71.5t-40 26.5zM564 1393q0 29 27.5 58.5t52.5 29.5q49 0 131 -84l243 -246l-30 -41l-310 172q-114 62 -114 111z" />
<glyph unicode="&#x45e;" horiz-adv-x="958" d="M-10 -383q0 45 32.5 83t71.5 40q35 0 72 -49q47 -63 84 -64q31 0 66.5 40t64.5 106q49 119 49 254q0 238 -68 716q-12 84 -25 113t-46 27l-139 -4l-7 51l344 98l17 -8q53 -281 82 -895h6q250 430 289 569q31 111 26 283q76 51 160 51q8 0 16.5 -13.5t14.5 -41t6 -60.5 q0 -16 -6 -39.5t-22.5 -57.5t-31 -61.5t-42 -74.5t-44 -74.5t-51.5 -84t-49 -81.5q-57 -92 -117.5 -196.5t-112.5 -194.5t-61 -104q-68 -117 -99.5 -169t-77.5 -118t-79.5 -91.5t-78 -44t-95.5 -18.5q-66 0 -107.5 35t-41.5 78zM473 1378q0 139 125 140q82 0 81 -72 q0 -20 -7 -46t-7 -50q0 -59 24.5 -87t80.5 -28q61 0 122.5 69.5t135.5 227.5l53 -23q-106 -346 -346 -346q-119 0 -190.5 77t-71.5 138z" />
<glyph unicode="&#x45f;" horiz-adv-x="1265" d="M258 922l12 49l373 57l10 -10l-196 -756q-47 -180 51 -180q117 0 237.5 147.5t200.5 331.5q59 139 146 443l182 24l-219 -835q-29 -111 26 -111q61 0 189 217l49 -31q-57 -125 -147.5 -209t-194.5 -84q-158 0 -94 222l67 233h-4q-98 -193 -245.5 -324t-288.5 -131 q-215 0 -138 297l142 541q14 47 10 71.5t-41 26.5zM432 -389q96 41 133 73.5t37 77.5q0 8 -2 37t-2 41q0 96 125 211l35 -43q-29 -37 -35 -53t-6 -49t8 -70t8 -76q0 -74 -73.5 -118.5t-213.5 -81.5z" />
<glyph unicode="&#x462;" horiz-adv-x="1579" d="M256 928l80 315h498l2 10q2 8 4 18.5t1 25t-5.5 24.5t-16.5 18.5t-31 10.5l-120 8l14 59h561l-14 -59l-113 -10q-35 -2 -56.5 -30t-25.5 -47.5t-4 -27.5h498l-74 -315h-57q14 147 -32 195t-187 48q-111 0 -141.5 -17t-49.5 -95l-63 -281q70 20 223 21q193 0 318.5 -99.5 t125.5 -255.5q0 -47 -7 -92t-42 -113.5t-94 -116.5t-177 -85t-280 -37h-624l12 59l119 13q39 2 59.5 25.5t30.5 72.5l203 889q18 78 -4.5 95t-133.5 17q-143 0 -212.5 -47t-127.5 -196h-57zM793 203q-16 -70 18.5 -100.5t173.5 -30.5q111 0 193 40t120.5 101t55 115.5 t16.5 105.5q0 125 -76.5 209t-208.5 84q-115 0 -180 -27z" />
<glyph unicode="&#x463;" horiz-adv-x="1710" d="M201 -25l211 838q14 49 10 72.5t-39 25.5l-125 11l12 49l371 57l10 -10l-137 -457h6q115 209 252 338t277 129q106 0 140 -79t-13 -226l-64 -213h4q117 133 268 133q342 0 342 -281q0 -147 -146 -267t-398 -120q-190 0 -268 129t-23 285l125 361q45 172 -62 172 q-80 0 -175 -99.5t-164.5 -221.5t-120.5 -247q-47 -113 -115 -354zM1053 273.5q-4 -52.5 7 -105.5t55 -87t120 -34q35 0 81 17.5t95 55.5t83 110.5t34 166.5q0 78 -49 126t-138 48q-72 0 -147.5 -49t-120.5 -143q-16 -53 -20 -105.5z" />
<glyph unicode="&#x46a;" horiz-adv-x="2158" d="M74 -31l16 72q129 0 187.5 63.5t140.5 245.5q88 197 200.5 288t276.5 126q94 20 233 20v2l-272 488q-37 70 -82 76l-78 8l15 59h1390l-14 -59l-80 -8q-47 -6 -117 -76l-497 -488v-2q119 0 198 -18q117 -27 208 -145.5t91 -270.5q0 -178 38 -243.5t175 -65.5l-16 -72h-115 q-147 0 -215.5 65.5t-70.5 215.5q-2 96 -6.5 149.5t-18.5 123t-40 104.5t-75 60.5t-119 25.5h-88l-125 -543q-23 -96 46 -102l120 -9l-12 -59h-561l12 59l113 13q37 2 56.5 25.5t29.5 72.5l125 543h-90q-152 0 -253.5 -118t-201.5 -345q-66 -150 -163 -215.5t-247 -65.5 h-114zM1030 1343l287 -509h2l520 509v3h-809v-3z" />
<glyph unicode="&#x46b;" horiz-adv-x="1724" d="M57 -25l15 60q80 0 131 43t110 170q137 291 551 291v2l-196 336q-31 59 -76 65l-80 10l12 52h1151l-12 -52l-66 -8q-51 -6 -112 -67l-352 -336v-2q78 0 122 -7q141 -16 205 -98t64 -194.5t40 -158.5t122 -46l-15 -60h-41q-274 0 -282 201q-2 88 -9.5 132t-28 86 t-63.5 57.5t-117 15.5h-57l-108 -467l-189 -25l115 492h-49q-76 0 -124 -13.5t-89 -53.5t-66.5 -84t-73.5 -136q-104 -205 -391 -205h-41zM831 930l211 -371h2l388 371v2h-601v-2z" />
<glyph unicode="&#x472;" horiz-adv-x="1542" d="M233 553q0 166 53.5 324.5t152 286.5t251 206t334.5 78q268 0 430 -149.5t162 -450.5q0 -256 -129 -490q-98 -178 -251 -283.5t-402 -105.5q-295 0 -448 160t-153 424zM449 471q0 -209 98 -319.5t268 -110.5q332 0 490 410q47 123 71 247h-907q-20 -110 -20 -227z M485 776h904q12 104 12 178q0 211 -97.5 316.5t-271.5 105.5q-111 0 -205 -52t-159.5 -142t-109.5 -190.5t-73 -215.5z" />
<glyph unicode="&#x473;" horiz-adv-x="1099" d="M172 346q0 61 15.5 139t57.5 176.5t106.5 178.5t175 134t247.5 54q68 0 128.5 -17.5t116.5 -55t89 -111.5t33 -174q0 -229 -129 -432q-166 -262 -463 -263q-186 0 -281.5 100.5t-95.5 270.5zM371 264q0 -217 184 -217q66 0 123 38t98 104.5t71 138t52 153.5h-500 q-28 -127 -28 -217zM418 553h500q25 119 24 188q0 215 -170 215q-123 0 -213 -116.5t-141 -286.5z" />
<glyph unicode="&#x474;" horiz-adv-x="1570" d="M268 1358l11 59h512l-11 -59l-131 -12q-41 -4 -35 -68q25 -266 62 -528l72 -545h4l520 895q80 131 121 192.5t96 108.5t110 47q102 0 166 -59.5t64 -133.5q0 -193 -135 -192q-37 0 -64.5 22.5t-27.5 65.5q0 33 19 84t19 82q0 59 -45 59q-39 0 -76.5 -47t-132.5 -207 l-657 -1122h-141l-162 1251q-8 53 -23.5 72.5t-52.5 24.5z" />
<glyph unicode="&#x475;" horiz-adv-x="1175" d="M145 930l344 98l17 -8q92 -475 96 -873h4l340 601q90 160 168 220t178 60q162 0 162 -98q0 -39 -27.5 -80t-72.5 -41q-41 0 -73 47t-64 47q-61 0 -119 -76.5t-238 -386.5l-258 -440h-151q0 119 -89 743q-12 84 -25 113t-46 27l-139 -4z" />
<glyph unicode="&#x490;" horiz-adv-x="1083" d="M78 0l12 59l115 11q35 2 54.5 24.5t29.5 69.5l246 1089q20 86 -46 93l-120 12l12 59h608q178 0 263 62.5t143 230.5h61l-102 -444h-62q-6 37 -16 50t-50 21.5t-130 8.5h-297q-29 0 -40 -11.5t-20 -50.5l-254 -1120q-20 -88 47 -94l154 -11l-12 -59h-596z" />
<glyph unicode="&#x491;" horiz-adv-x="888" d="M217 -25l213 893q16 66 -45 74l-119 21l10 41h457q115 0 178.5 23.5t105.5 76.5t95 172h57l-77 -344h-312q-96 0 -127.5 -17.5t-50.5 -91.5l-196 -823z" />
<glyph unicode="&#x492;" horiz-adv-x="1128" d="M86 0l12 59l115 11q35 2 54.5 24.5t29.5 69.5l143 635h-172l17 78h172l86 376q20 86 -45 93l-121 12l12 59h1030l-80 -350h-61q10 92 2 153.5t-66.5 93.5t-179.5 32h-227q-29 0 -40 -11.5t-19 -50.5l-93 -407h455l-16 -78h-457l-143 -635q-20 -88 47 -94l153 -11l-12 -59 h-596z" />
<glyph unicode="&#x493;" horiz-adv-x="866" d="M164 182q0 55 16.5 102.5t36 77t64.5 63.5t71.5 50.5t87.5 48.5l-139 80l41 72l182 -107q45 29 92 62q76 57 76 190q0 63 -37 99t-92 36q-63 0 -119.5 -35.5t-148.5 -115.5l-43 39q117 113 189.5 148.5t162.5 35.5q137 0 193.5 -58.5t56.5 -125.5q0 -57 -9 -96t-42 -72 t-49.5 -45.5t-81 -47t-86.5 -48.5l170 -99l-41 -71l-207 120q-14 -10 -47 -34q-70 -53 -91.5 -116t-21.5 -149q0 -37 7 -63.5t43 -51t102 -24.5q88 0 158.5 55.5t181.5 186.5l39 -39q-121 -152 -204 -213.5t-206 -61.5q-141 0 -223 59.5t-82 147.5z" />
<glyph unicode="&#x494;" horiz-adv-x="1312" d="M80 0l12 59l113 13q37 2 55.5 23.5t30.5 74.5l244 1083q20 86 -46 93l-120 12l12 59h1030l-80 -350h-61q10 92 2 153.5t-66.5 93.5t-179.5 32h-227q-29 0 -40 -11.5t-20 -50.5l-116 -514h135q254 0 371.5 -132t117.5 -357q0 -176 -71.5 -352.5t-215 -299.5t-317.5 -123 q-160 0 -268.5 53.5t-108.5 151.5q0 45 41 78t84 33q47 0 67.5 -38t24.5 -84t44 -84t120 -38q104 0 196.5 123t141.5 294t49 329q0 375 -315 374h-113l-119 -528q-12 -51 -1.5 -75.5t46.5 -26.5l121 -9l-12 -59h-561z" />
<glyph unicode="&#x495;" horiz-adv-x="1177" d="M217 -25l213 893q16 66 -45 74l-119 21l10 41h854l-71 -314h-60q18 139 -24.5 190.5t-194.5 51.5q-96 0 -127.5 -17.5t-50.5 -91.5l-65 -270h61q512 0 512 -447q0 -137 -61.5 -272t-185.5 -231.5t-275 -96.5q-158 0 -241 45.5t-83 124.5q0 43 34 70t79 27t67.5 -31 t26.5 -66.5t21.5 -66.5t54.5 -31q94 0 167.5 61.5t114.5 153.5t62.5 184.5t21.5 169.5q0 334 -338 334h-55l-114 -481z" />
<glyph unicode="&#x496;" horiz-adv-x="2166" d="M74 -31l16 72q129 0 187.5 63.5t140.5 245.5q88 197 221 290t324 114l2 6q-63 29 -103.5 117t-49.5 151.5t-9 108.5q0 240 -90 239q-39 0 -50.5 -12t-11.5 -41q0 -16 9.5 -55t9.5 -56q0 -94 -107 -94q-102 0 -102 137q0 31 9 59.5t31.5 61.5t75 52.5t128.5 19.5 q115 0 153.5 -88t38.5 -260q0 -139 60.5 -230.5t179.5 -91.5h20l107 469q23 96 -45 103l-121 8l14 59h561l-14 -59l-113 -10q-37 -2 -55 -27t-31 -74l-106 -469h18q96 0 210 95.5t175 226.5q84 178 154.5 263t163.5 85q111 0 165 -52.5t54 -127.5q0 -74 -26.5 -112 t-94.5 -38q-35 0 -61.5 21.5t-26.5 52.5q0 33 13 76t13 73q0 35 -47 35q-37 0 -93 -71.5t-105 -182.5q-70 -156 -155 -246t-161 -116l-2 -6q137 -2 239.5 -124t102.5 -280q0 -178 38 -243.5t175 -65.5h17l-90 -430h-64q14 125 14 182q0 92 -36.5 133t-100.5 60 q-152 47 -157 264q-2 82 -4.5 125t-11.5 104.5t-25.5 93t-44 65.5t-71.5 47t-106 13h-88l-121 -528q-23 -96 46 -102l120 -9l-12 -59h-561l12 59l113 13q37 2 56.5 25.5t29.5 72.5l121 528h-90q-154 0 -253.5 -111.5t-197.5 -336.5q-66 -150 -163 -215.5t-247 -65.5h-114z " />
<glyph unicode="&#x497;" horiz-adv-x="2011" d="M102 131q0 51 35 83t90 32q27 0 43.5 -21.5t16.5 -50.5q0 -49 3 -70.5t20.5 -39t56.5 -17.5q76 0 147.5 97.5t114.5 239.5t43 275q0 141 -25.5 205t-105.5 64q-129 0 -301 -234l-50 39q96 160 210 227.5t212 67.5q90 0 169 -93t79 -263q0 -53 -10 -119h182l109 451 l188 24l-112 -475h180q59 199 195.5 337t303.5 138q90 0 158 -48t68 -108q0 -51 -35 -82.5t-90 -31.5q-27 0 -43.5 21.5t-16.5 49.5q0 49 -3 71t-20.5 39t-55.5 17q-76 0 -148 -97t-115 -239.5t-43 -275.5q0 -141 26 -204.5t105 -63.5q129 0 302 233l49 -39 q-66 -109 -146 -178q-59 -66 -59 -141q0 -33 9 -89.5t9 -92.5q0 -78 -72.5 -125t-213.5 -84l-15 51q98 39 134 74.5t36 85.5q0 10 -2 37.5t-2 39.5q0 49 39 94.5t39 65.5q0 16 -16 8q-88 -41 -162 -41q-90 0 -169 93.5t-79 263.5q0 72 16 149h-182l-115 -481l-188 -25 l121 506h-180q-53 -209 -193.5 -357.5t-314.5 -148.5q-90 0 -158 48.5t-68 107.5z" />
<glyph unicode="&#x49a;" horiz-adv-x="1470" d="M82 0l12 59l113 13q37 2 56.5 25.5t29.5 72.5l246 1077q23 96 -45 103l-121 8l14 59h561l-14 -59l-113 -10q-37 -2 -55 -27t-31 -74l-106 -469h35q104 0 214.5 94.5t174.5 227.5q84 174 157.5 261t165.5 87q111 0 164 -53.5t53 -128.5q0 -147 -114 -148q-41 0 -68 22.5 t-27 53.5q0 27 14.5 74t14.5 73q0 35 -47 35q-39 0 -97.5 -72.5t-107.5 -181.5q-70 -158 -152.5 -248t-162.5 -114l-2 -6q139 -2 240.5 -123t101.5 -281q0 -176 41 -242.5t178 -66.5h16l-90 -430h-63q14 125 14 182q0 92 -36 132t-103 61q-156 47 -162 264q-6 223 -23 287 q-37 137 -186 157q-29 4 -63 4h-99l-121 -528q-23 -96 46 -102l120 -9l-12 -59h-561z" />
<glyph unicode="&#x49b;" horiz-adv-x="1191" d="M201 -25l198 834q16 59 10 78.5t-51 23.5l-112 13l12 47l365 57l10 -10l-148 -598h9l43 47q31 82 112.5 211t159.5 209q137 141 256 141q158 0 158 -100q0 -41 -30 -80t-71 -39q-39 0 -72.5 47t-62.5 47q-63 0 -119 -55q-115 -115 -250 -344v-6q88 57 191 57 q92 0 128 -44t36 -126q0 -51 -16.5 -125t-16.5 -86q0 -92 57 -92q68 0 181 217l49 -29q-41 -94 -88 -153q-53 -104 -54 -166q0 -33 9.5 -89.5t9.5 -92.5q0 -78 -73 -125t-214 -84l-14 51q98 39 134 74.5t36 85.5q0 10 -2 37.5t-2 39.5q0 49 39 94.5t39 65.5q0 14 -19 4 q-57 -37 -129 -37q-61 0 -94 53.5t-33 121.5q0 27 12.5 99.5t12.5 119.5q0 55 -13.5 83.5t-56.5 28.5q-39 0 -127 -56t-123 -122q-23 -39 -76 -256l-12 -47z" />
<glyph unicode="&#x49e;" horiz-adv-x="1472" d="M92 0l12 59l113 13q37 2 56.5 25.5t29.5 72.5l215 942h-199l17 78h201l12 57q23 96 -45 103l-121 8l14 59h561l-14 -59l-113 -10q-37 -2 -55 -27t-31 -74l-12 -57h207l-16 -78h-209l-76 -334h35q104 0 214.5 94.5t174.5 227.5q84 174 157.5 261t165.5 87 q111 0 164.5 -53.5t53.5 -128.5q0 -147 -115 -148q-41 0 -67.5 22.5t-26.5 53.5q0 27 14 74t14 73q0 35 -47 35q-39 0 -97 -72.5t-108 -181.5q-70 -158 -152.5 -248t-162.5 -114l-2 -6q139 -2 240.5 -123t101.5 -281q0 -176 41 -242.5t178 -66.5l-16 -72h-115 q-150 0 -220.5 65.5t-72.5 215.5q-4 225 -22 293q-41 139 -203 153q-23 2 -47 2h-98l-121 -528q-23 -96 45 -102l121 -9l-13 -59h-561z" />
<glyph unicode="&#x49f;" horiz-adv-x="1191" d="M197 -25l278 1160h-170l17 71h170l24 103q12 59 5 77.5t-46 22.5l-117 14l13 47l368 50l11 -11l-74 -303h403l-16 -71h-406l-176 -715h8l43 47q31 82 113 211t160 209q137 141 256 141q158 0 158 -100q0 -41 -30 -80t-71 -39q-39 0 -72.5 47t-62.5 47q-63 0 -119 -55 q-115 -115 -250 -344v-6q88 57 191 57q92 0 128 -44t36 -126q0 -51 -16.5 -125t-16.5 -86q0 -92 57 -92q68 0 181 217l49 -29q-57 -131 -141.5 -213t-186.5 -82q-61 0 -94 53.5t-33 121.5q0 27 12.5 99.5t12.5 119.5q0 55 -13.5 83.5t-56.5 28.5q-39 0 -127 -56t-123 -122 q-23 -39 -76 -256l-12 -47z" />
<glyph unicode="&#x4a2;" horiz-adv-x="1589" d="M82 0l12 59l113 13q37 2 55.5 23.5t30.5 74.5l246 1077q20 96 -45 103l-121 8l14 59h561l-14 -59l-113 -10q-37 -2 -55 -25t-31 -76l-108 -471h684l106 471q20 96 -45 103l-121 8l15 59h561l-15 -59l-112 -10q-37 -2 -55.5 -25t-30.5 -76l-246 -1077q-23 -96 45 -102 l121 -9h18l-94 -448h-63q14 125 14 182q0 121 -72.5 164t-294.5 43h-81l12 59l112 13q37 2 55.5 23.5t30.5 74.5l121 528h-684l-119 -528q-12 -51 -1.5 -75.5t47.5 -26.5l120 -9l-12 -59h-561z" />
<glyph unicode="&#x4a3;" horiz-adv-x="1253" d="M201 -25l198 834q16 59 10 78.5t-51 23.5l-112 13l12 47l365 57l10 -10l-111 -465h424l117 451l182 24l-211 -833q-31 -113 21 -113q39 0 92 71.5t92 145.5l49 -29q-39 -88 -92 -155q-53 -106 -53 -164q0 -33 9 -89.5t9 -92.5q0 -78 -72.5 -125t-214.5 -84l-14 51 q98 39 134 74.5t36 85.5q0 10 -2 37.5t-2 39.5q0 49 39 94.5t39 65.5q0 14 -12 8q-63 -41 -136 -41q-80 0 -105.5 54.5t-0.5 146.5l78 305h-424l-115 -481z" />
<glyph unicode="&#x4a4;" horiz-adv-x="2002" d="M82 0l12 59l113 13q37 2 55.5 23.5t30.5 74.5l246 1077q20 96 -45 103l-121 8l14 59h561l-14 -59l-113 -10q-37 -2 -55 -25t-31 -76l-108 -471h684l106 471q20 96 -45 103l-121 8l15 59h1028l-80 -350h-62q10 92 2 153.5t-66 93.5t-179 32h-228q-29 0 -40 -11.5 t-19 -50.5l-254 -1120q-20 -88 47 -94l154 -11l-13 -59h-595l12 59l112 13q37 2 55.5 23.5t30.5 74.5l121 528h-684l-119 -528q-12 -51 -1.5 -75.5t47.5 -26.5l120 -9l-12 -59h-561z" />
<glyph unicode="&#x4a5;" horiz-adv-x="1536" d="M201 -25l198 834q16 59 10 78.5t-51 23.5l-112 13l12 47l365 57l10 -10l-111 -465h424l117 451h659l-71 -314h-60q18 139 -24.5 190.5t-194.5 51.5q-96 0 -128 -17.5t-50 -91.5l-160 -628q-29 -113 21 -113q39 0 92 71.5t92 145.5l49 -29q-57 -129 -142 -212t-190 -83 q-80 0 -105.5 54.5t-0.5 146.5l78 305h-424l-115 -481z" />
<glyph unicode="&#x4a8;" horiz-adv-x="1730" d="M233 557q0 59 9.5 129t35 158t65.5 170t106.5 162.5t152.5 139t210 95.5t271 37l-16 -72q-135 0 -245.5 -65.5t-178.5 -166t-113 -227t-63 -241.5t-18 -219q0 -215 102 -315.5t278 -100.5q92 0 175 31q-197 145 -197 444q0 248 90 442.5t217 288.5t258 94 q176 0 270.5 -107.5t94.5 -361.5q0 -268 -120 -488t-351 -329q45 -14 110 -14q94 0 158.5 29.5t157.5 97.5l34 -43q-92 -84 -180 -120t-196 -36q-121 0 -224 37q-129 -37 -284 -37q-315 0 -462 161t-147 427zM1022 465q0 -211 108 -326q178 125 285 369t107 504 q0 139 -32 199.5t-116 60.5q-119 0 -235.5 -236.5t-116.5 -570.5z" />
<glyph unicode="&#x4a9;" horiz-adv-x="1302" d="M172 344q0 82 19.5 169t66.5 181t114.5 167t175 120t236.5 47l-16 -72q-98 0 -178 -78.5t-126 -194.5t-69.5 -228.5t-23.5 -198.5q0 -115 55 -162t172 -47q66 0 123 12q-127 94 -127 277q0 272 134 428t302 156q119 0 201 -83t82 -229q0 -188 -86 -334.5t-252 -222.5 q27 -4 94 -4q106 0 207 86l29 -35q-78 -68 -137.5 -95.5t-137.5 -27.5q-106 0 -196 29q-119 -29 -252 -29q-109 0 -189 27t-121 64.5t-65.5 93t-29.5 95.5t-5 89zM793 365q0 -193 53 -256q127 70 197.5 214t70.5 345q0 100 -18.5 140t-85.5 40q-59 0 -111.5 -88t-79 -198.5 t-26.5 -196.5z" />
<glyph unicode="&#x4aa;" horiz-adv-x="1353" d="M233 563q0 287 140 512q100 164 280.5 268.5t446.5 104.5q117 0 243.5 -28.5t208.5 -80.5l-73 -307h-62q8 174 -69.5 259t-264.5 85q-309 0 -483 -291q-72 -119 -109.5 -274.5t-37.5 -300.5q0 -229 111.5 -349t295.5 -120q174 0 273.5 82t195.5 258h62l-101 -326 q-172 -86 -416 -86h-14l-67 -92q74 -10 117.5 -66.5t29.5 -132.5q-14 -68 -78.5 -108.5t-148.5 -40.5t-135 20l8 50q82 -10 141 11t59 89q0 43 -30.5 73.5t-81.5 32.5l-6 19l104 151q-123 10 -218 52.5t-154.5 99.5t-98.5 132t-53.5 149.5t-14.5 154.5z" />
<glyph unicode="&#x4ab;" horiz-adv-x="903" d="M166 303q0 172 70.5 336t210 276.5t313.5 112.5q115 0 189.5 -52t74.5 -130q0 -47 -45 -81t-86 -34q-53 0 -59 62q-16 164 -123 163q-90 0 -171 -98t-126 -238.5t-45 -275.5q0 -125 38.5 -196.5t141.5 -71.5q152 0 328 239l49 -39q-150 -252 -379 -292l-78 -107 q74 -10 118 -66.5t29 -132.5q-14 -68 -78.5 -108.5t-148.5 -40.5t-135 20l8 50q82 -10 141.5 11t59.5 89q0 43 -31 73.5t-82 32.5l-6 19l107 151q-121 2 -203 80t-82 248z" />
<glyph unicode="&#x4ac;" horiz-adv-x="1241" d="M281 1075l77 342h1164l-78 -342h-62q10 92 4 152.5t-60 89.5t-177 29h-129l-266 -1180q-12 -47 0 -71.5t53 -26.5l149 -9h19l-94 -448h-64q14 125 14 182q0 121 -72.5 164t-293.5 43h-154l15 59l133 9q45 2 66.5 25.5t31.5 72.5l266 1180h-141q-150 0 -220.5 -56.5 t-119.5 -214.5h-61z" />
<glyph unicode="&#x4ad;" horiz-adv-x="1867" d="M201 -25l211 838q14 49 10 72.5t-39 25.5l-125 11l12 49l371 57l10 -10l-129 -424h6q109 199 246 316.5t275 117.5q106 0 138 -79t-16 -226l-41 -129h9q113 203 248 318.5t270 115.5q82 0 125 -41t44 -107.5t-20 -148.5l-157 -536q-31 -113 20 -113q39 0 92.5 71.5 t91.5 145.5l50 -29q-39 -88 -93 -155q-53 -106 -53 -164q0 -33 9.5 -89.5t9.5 -92.5q0 -78 -73 -125t-214 -84l-14 51q98 39 134 74.5t36 85.5q0 10 -2.5 37.5t-2.5 39.5q0 49 39 94.5t39 65.5q0 14 -16 6q-66 -39 -133 -39q-78 0 -105.5 53.5t-1.5 147.5l176 602 q20 66 1 105t-70 39q-80 0 -171 -84t-155.5 -184.5t-107.5 -200.5q-51 -119 -146 -453l-178 -25l205 775q45 172 -62 172q-115 0 -245.5 -162t-194.5 -324q-39 -100 -135 -436z" />
<glyph unicode="&#x4ae;" horiz-adv-x="1210" d="M268 1358l13 59h510l-13 -59l-112 -10q-51 -6 -39 -60l186 -629h6q307 416 432 631q31 57 -30 60l-107 8l12 59h469l-12 -59q-86 -6 -123 -24.5t-92 -80.5q-190 -217 -471 -624q-41 -55 -57 -123l-78 -346q-10 -45 0 -65.5t47 -22.5l156 -13l-13 -59h-635l13 59l147 15 q39 4 56.5 23.5t27.5 62.5l78 344q14 59 0 108q-158 528 -201 652q-20 59 -46 72.5t-124 21.5z" />
<glyph unicode="&#x4af;" horiz-adv-x="962" d="M145 930l344 98l17 -8q25 -123 51.5 -408.5t30.5 -507.5h6q236 434 277.5 547t41.5 326q76 51 160 51q8 0 16.5 -13.5t14.5 -41t6 -60.5q0 -84 -240 -473l-260 -436l-108 -475l-183 -25l115 500q0 231 -72 739q-12 84 -25 113t-46 27l-139 -4z" />
<glyph unicode="&#x4b0;" horiz-adv-x="1210" d="M268 1358l13 59h510l-13 -59l-112 -10q-51 -6 -39 -60l186 -629h6q307 416 432 631q31 57 -30 60l-107 8l12 59h469l-12 -59q-86 -6 -123 -24.5t-92 -80.5q-190 -217 -471 -624q-41 -55 -57 -123l-9 -39h252l-16 -78h-254l-51 -229q-10 -45 0 -65.5t47 -22.5l156 -13 l-13 -59h-635l13 59l147 15q39 4 56.5 23.5t27.5 62.5l51 229h-252l17 78h254l8 37q14 59 0 108q-158 528 -201 652q-20 59 -46 72.5t-124 21.5z" />
<glyph unicode="&#x4b1;" horiz-adv-x="962" d="M145 930l344 98l17 -8q25 -123 51.5 -408.5t30.5 -507.5h6q236 434 277.5 547t41.5 326q76 51 160 51q8 0 16.5 -13.5t14.5 -41t6 -60.5q0 -84 -240 -473l-260 -436l-10 -45h248l-21 -82h-245l-80 -348l-183 -25l87 373h-248l20 82h246l10 45q0 231 -72 739 q-12 84 -25 113t-46 27l-139 -4z" />
<glyph unicode="&#x4b2;" horiz-adv-x="1355" d="M-2 0l12 59q100 10 140 24.5t88 66.5q127 135 483 565q-39 88 -120 286.5t-114 268.5q-23 51 -57.5 65.5t-132.5 22.5l12 59h533l-13 -59l-106 -8q-61 -6 -35 -74q127 -311 168 -408h4q168 193 340 418q43 57 -18 64l-88 8l12 59h471l-12 -59q-139 -10 -197 -60 q-199 -182 -475 -514q254 -571 276 -620q29 -63 66 -79.5t145 -25.5h17l-94 -448h-64q14 125 14 182q0 121 -72.5 164t-293.5 43h-72l10 59l107 11q63 6 35 73q-27 68 -61 148t-77 179t-67 155h-8q-238 -293 -379 -496q-35 -51 28 -57l117 -13l-12 -59h-510z" />
<glyph unicode="&#x4b3;" horiz-adv-x="1069" d="M63 80q0 39 25 70.5t64 31.5q31 0 71.5 -24.5t69.5 -24.5q61 0 213 256l57 98l-74 297q-16 68 -30.5 86.5t-42.5 16.5l-154 -10l-6 49l338 102l12 -8l82 -344h4l90 139q133 213 273 213q104 0 104 -88q0 -41 -26.5 -69.5t-61.5 -28.5q-23 0 -63.5 16t-59.5 16 q-72 0 -237 -294l65 -269q35 -141 53.5 -185t47.5 -44q20 0 40.5 15.5t45 53t36 58t39.5 74.5l54 -29q-43 -86 -70 -127q-43 -92 -43 -176q0 -33 9 -89.5t9 -92.5q0 -78 -72.5 -125t-213.5 -84l-15 51q98 39 134 74.5t36 85.5q0 10 -2 37.5t-2 39.5q0 49 39 94.5t39 65.5 q0 16 -18 6q-55 -39 -119 -39q-74 0 -112 59.5t-70 192.5l-37 160h-4l-82 -135q-39 -61 -52.5 -84t-49.5 -71t-60.5 -66.5t-62 -37t-78.5 -18.5q-59 0 -95.5 30t-36.5 75z" />
<glyph unicode="&#x4b4;" horiz-adv-x="1849" d="M281 0l14 59l113 11q37 2 55 26.5t31 73.5l268 1176h-76q-150 0 -220.5 -56.5t-119.5 -214.5h-61l77 342h1033l-78 -342h-62q10 92 4 152.5t-60 89.5t-177 29h-64l-264 -1160q-18 -80 6.5 -97t130.5 -17h414q111 0 142.5 16t48.5 92l243 1067q23 96 -45 103l-98 8l12 59 h539l-12 -59l-113 -12q-37 -2 -56.5 -26t-29.5 -73l-242 -1061q-18 -80 6.5 -97t131.5 -17h45l-97 -461h-63q14 125 14 182q0 121 -72.5 164t-293.5 43h-1024z" />
<glyph unicode="&#x4b5;" horiz-adv-x="1265" d="M258 922l12 49l373 57l10 -10l-196 -756q-47 -180 51 -180q117 0 237.5 147.5t200.5 331.5q59 139 146 443l182 24l-219 -835q-29 -111 26 -111q61 0 189 217l49 -31q-45 -92 -98 -157q-55 -111 -56 -160q2 -33 10.5 -90.5t8.5 -91.5q0 -78 -74 -125t-213 -84l-14 51 q96 37 133 73.5t37 86.5q0 8 -2 36.5t-2 40.5q0 49 38.5 94.5t38.5 65.5q0 14 -16 6q-66 -39 -133 -39q-158 0 -94 222l67 233h-4q-98 -193 -245.5 -324t-288.5 -131q-215 0 -138 297l142 541q14 47 10 71.5t-41 26.5zM502 1157l16 72h799l-17 -72h-798z" />
<glyph unicode="&#x4b6;" horiz-adv-x="1490" d="M360 1358l15 59h540l-14 -61l-92 -8q-37 -2 -55.5 -26t-30.5 -75l-78 -319q-66 -274 156 -275q113 0 209 17q55 8 128.5 58t86.5 106l94 413q23 100 -45 103l-100 6l14 61h541l-15 -59l-112 -10q-37 -2 -55.5 -27t-30.5 -74l-246 -1077q-23 -96 45 -102l121 -9h18 l-94 -448h-64q14 125 15 182q0 121 -73 164t-294 43h-92l12 59l123 11q37 2 56.5 25.5t29.5 74.5l119 514h-4q-233 -158 -488 -158q-117 0 -182 69t-71.5 172t18.5 222l61 258q23 96 -45 103z" />
<glyph unicode="&#x4b7;" horiz-adv-x="1198" d="M244 922l12 49l373 57l10 -10l-109 -424q-27 -90 -12.5 -135t74.5 -45q82 0 170 73.5t160 229.5q16 33 36 104q25 72 37 127l13 56l182 24l-217 -833q-31 -113 26 -113q39 0 92.5 71.5t92.5 145.5l49 -29q-39 -88 -92 -155q-53 -106 -54 -164q0 -33 9.5 -89.5t9.5 -92.5 q0 -78 -72.5 -125t-214.5 -84l-14 51q98 39 134 74.5t36 85.5q0 10 -2 37.5t-2 39.5q0 49 39 94.5t39 65.5q0 14 -13 8q-63 -41 -135 -41q-82 0 -109.5 55.5t-0.5 145.5l108 381h-4q-113 -133 -195 -191.5t-194 -58.5q-76 0 -119 56.5t-44 132t15 151.5l48 166q14 47 9 71.5 t-40 26.5z" />
<glyph unicode="&#x4ba;" horiz-adv-x="1492" d="M82 0l14 59l113 11q37 2 55.5 26.5t30.5 73.5l246 1077q23 96 -45 103l-121 8l12 59h571l-12 -59l-123 -10q-37 -2 -56 -26t-30 -75l-119 -514h5q233 158 489 158q117 0 183.5 -68.5t72.5 -172t-18 -222.5l-62 -258q-23 -96 45 -102l121 -9l-14 -59h-541l14 61l93 9 q37 2 55 25.5t31 74.5l77 319q66 274 -157 275q-115 0 -211 -16q-55 -8 -129 -58.5t-86 -105.5l-94 -414q-23 -100 45 -102l100 -7l-14 -61h-541z" />
<glyph unicode="&#x4bb;" horiz-adv-x="1243" d="M188 -25l299 1334q12 59 5 77.5t-46 22.5l-116 14l12 47l369 50l10 -11l-229 -938h6q102 195 252.5 326t289.5 131q119 0 153 -88t-9 -209l-162 -536q-35 -113 20 -113q39 0 92.5 71.5t92.5 145.5l49 -29q-57 -129 -141 -212t-185 -83q-170 0 -106 222l168 581 q18 63 0.5 103.5t-66.5 40.5q-82 0 -178 -87t-162.5 -190.5t-101.5 -193.5q-53 -135 -137 -451z" />
<glyph unicode="&#x4bc;" horiz-adv-x="1728" d="M197 956q0 176 104 177q43 0 78 -21.5t35 -58.5t-21.5 -86t-21.5 -62q0 -88 151 -90q23 94 59.5 179t99 170t142.5 146.5t193.5 99.5t249.5 38q127 0 226 -41t155.5 -101.5t93.5 -139.5t49 -146.5t12 -130.5q0 -76 -22.5 -114t-89.5 -38h-957q-27 -129 -26 -260 q0 -227 97 -331.5t308 -104.5q82 0 147.5 18.5t108.5 42t86 73.5t66.5 87t64.5 107h62l-97 -312q-176 -88 -448 -88q-156 0 -271.5 41t-179 100.5t-101.5 146.5t-48 159.5t-10 156.5q0 80 14 164q-170 2 -239.5 65.5t-69.5 153.5zM752 815h766q41 0 55 28.5t14 129.5 q0 43 -10 98t-38 130t-94.5 125t-162.5 50q-203 0 -327.5 -145.5t-202.5 -415.5z" />
<glyph unicode="&#x4bd;" horiz-adv-x="1239" d="M186 655q0 84 27 140.5t82 56.5q45 0 73.5 -24.5t28.5 -61.5q0 -16 -37.5 -74.5t-37.5 -113.5q0 -72 38.5 -113t124.5 -29q41 244 211 418t398 174q121 0 187.5 -59.5t66.5 -145.5q0 -141 -149.5 -247.5t-518.5 -182.5q-2 -14 -2 -33q0 -285 186 -284q55 0 105.5 21.5 t95.5 61.5t72.5 71.5t64.5 78.5l47 -41q-180 -293 -469 -293q-51 0 -98 13.5t-97 46.5t-80 103.5t-30 172.5q0 39 2 60q-84 -12 -145.5 17.5t-91 82.5t-42 100t-12.5 84zM684 463q244 51 357.5 152.5t113.5 220.5q0 53 -32.5 86.5t-86.5 33.5q-119 0 -222 -150t-130 -343z " />
<glyph unicode="&#x4be;" horiz-adv-x="1728" d="M197 956q0 176 104 177q43 0 78 -21.5t35 -58.5t-21.5 -86t-21.5 -62q0 -88 151 -90q23 94 59.5 179t99 170t142.5 146.5t193.5 99.5t249.5 38q127 0 226 -41t155.5 -101.5t93.5 -139.5t49 -146.5t12 -130.5q0 -76 -22.5 -114t-89.5 -38h-957q-27 -129 -26 -260 q0 -227 97 -331.5t308 -104.5q82 0 147.5 18.5t108.5 42t86 73.5t66.5 87t64.5 107h62l-97 -312q-109 -55 -237 -75q-119 -25 -171 -93.5t-104 -277.5h-65q14 125 14 182q0 94 -37 138t-114 75q-344 113 -344 567q0 80 14 164q-170 2 -239.5 65.5t-69.5 153.5zM752 815h766 q41 0 55 28.5t14 129.5q0 43 -10 98t-38 130t-94.5 125t-162.5 50q-203 0 -327.5 -145.5t-202.5 -415.5z" />
<glyph unicode="&#x4bf;" horiz-adv-x="1239" d="M186 655q0 84 27 140.5t82 56.5q45 0 73.5 -24.5t28.5 -61.5q0 -16 -37.5 -74.5t-37.5 -113.5q0 -72 38.5 -113t124.5 -29q41 244 211 418t398 174q121 0 187.5 -59.5t66.5 -145.5q0 -141 -149.5 -247.5t-518.5 -182.5q-2 -14 -2 -33q0 -285 186 -284q55 0 105.5 21.5 t95.5 61.5t72.5 71.5t64.5 78.5l47 -41q-84 -133 -186 -205q-68 -59 -68 -126q0 -33 9.5 -86.5t9.5 -90.5q0 -78 -71 -120.5t-216 -79.5l-14 51q100 39 135 70.5t35 80.5q0 10 -2 36t-2 38q0 51 38.5 95t38.5 61q0 12 -24 6q-70 -23 -152 -23q-51 0 -98 13.5t-97 46.5 t-80 103.5t-30 172.5q0 39 2 60q-84 -12 -145.5 17.5t-91 82.5t-42 100t-12.5 84zM684 463q244 51 357.5 152.5t113.5 220.5q0 53 -32.5 86.5t-86.5 33.5q-119 0 -222 -150t-130 -343z" />
<glyph unicode="&#x4c0;" horiz-adv-x="706" d="M82 0l12 59l113 13q37 2 56.5 25.5t29.5 72.5l246 1077q23 96 -45 103l-121 8l14 59h561l-14 -59l-113 -10q-37 -2 -55 -27t-31 -74l-246 -1077q-23 -96 46 -102l120 -9l-12 -59h-561z" />
<glyph unicode="&#x4c1;" horiz-adv-x="2158" d="M74 -31l16 72q129 0 187.5 63.5t140.5 245.5q88 197 221 290t324 114l2 6q-63 29 -103.5 117t-49.5 151.5t-9 108.5q0 240 -90 239q-39 0 -50.5 -12t-11.5 -41q0 -16 9.5 -55t9.5 -56q0 -94 -107 -94q-102 0 -102 137q0 31 9 59.5t31.5 61.5t75 52.5t128.5 19.5 q115 0 153.5 -88t38.5 -260q0 -139 60.5 -230.5t179.5 -91.5h20l107 469q23 96 -45 103l-121 8l14 59h561l-14 -59l-113 -10q-37 -2 -55 -27t-31 -74l-106 -469h18q96 0 210 95.5t175 226.5q84 178 154.5 263t163.5 85q111 0 165 -52.5t54 -127.5q0 -74 -26.5 -112 t-94.5 -38q-35 0 -61.5 21.5t-26.5 52.5q0 33 13 76t13 73q0 35 -47 35q-37 0 -93 -71.5t-105 -182.5q-70 -156 -155 -246t-161 -116l-2 -6q137 -2 239.5 -124t102.5 -280q0 -178 38 -243.5t175 -65.5l-16 -72h-115q-147 0 -215.5 65.5t-70.5 215.5q-2 80 -4.5 125 t-10.5 104.5t-25.5 93t-45 65.5t-71.5 46t-106 14h-88l-121 -528q-23 -96 46 -102l120 -9l-12 -59h-561l12 59l113 13q37 2 56.5 25.5t29.5 72.5l121 528h-90q-154 0 -253.5 -111.5t-197.5 -336.5q-66 -150 -163 -215.5t-247 -65.5h-114zM1177 1782h58q-2 -16 6 -37 t28.5 -41.5t67.5 -34.5t113 -14q123 0 189.5 42t82.5 85h57q-25 -104 -109.5 -176t-248.5 -72t-216.5 72t-27.5 176z" />
<glyph unicode="&#x4c2;" horiz-adv-x="2011" d="M102 131q0 51 35 83t90 32q27 0 43.5 -21.5t16.5 -50.5q0 -49 3 -70.5t20.5 -39t56.5 -17.5q76 0 147.5 97.5t114.5 239.5t43 275q0 141 -25.5 205t-105.5 64q-129 0 -301 -234l-50 39q96 160 210 227.5t212 67.5q90 0 169 -93t79 -263q0 -53 -10 -119h182l109 451 l188 24l-112 -475h180q59 199 195.5 337t303.5 138q90 0 158 -48t68 -108q0 -51 -35 -82.5t-90 -31.5q-27 0 -43.5 21.5t-16.5 49.5q0 49 -3 71t-20.5 39t-55.5 17q-76 0 -148 -97t-115 -239.5t-43 -275.5q0 -141 26 -204.5t105 -63.5q129 0 302 233l49 -39 q-96 -160 -210 -227.5t-212 -67.5q-90 0 -169 93.5t-79 263.5q0 72 16 149h-182l-115 -481l-188 -25l121 506h-180q-53 -209 -193.5 -357.5t-314.5 -148.5q-90 0 -158 48.5t-68 107.5zM1035 1323q0 55 22 107h49q-2 -20 2 -40t18.5 -44.5t55.5 -40t104 -15.5q180 0 256 140 h54q-29 -125 -103.5 -196t-242.5 -71q-215 0 -215 160z" />
<glyph unicode="&#x4c3;" horiz-adv-x="1419" d="M82 0l12 59l113 13q37 2 56.5 25.5t29.5 72.5l246 1077q23 96 -45 103l-121 8l14 59h561l-14 -59l-113 -10q-37 -2 -55 -27t-31 -74l-106 -469h35q104 0 214.5 94.5t174.5 227.5q84 174 157.5 261t165.5 87q111 0 164 -53.5t53 -128.5q0 -147 -114 -148q-41 0 -68 22.5 t-27 53.5q0 27 14.5 74t14.5 73q0 35 -47 35q-39 0 -97.5 -72.5t-107.5 -181.5q-127 -285 -301 -354v-6q248 -8 365.5 -135t117.5 -346q0 -176 -72.5 -352.5t-217 -299.5t-318.5 -123q-160 0 -268.5 53.5t-108.5 151.5q0 45 41 78t84 33q47 0 67.5 -38t25 -84t44 -84 t119.5 -38q104 0 197.5 123t143.5 294t50 329q0 375 -319 374h-201l-121 -528q-23 -96 46 -102l120 -9l-12 -59h-561z" />
<glyph unicode="&#x4c4;" horiz-adv-x="1191" d="M201 -25l198 834q16 59 10 78.5t-51 23.5l-112 13l12 47l365 57l10 -10l-148 -598h9l41 47q31 82 113.5 210t160.5 210q137 141 256 141q158 0 158 -100q0 -41 -30 -80t-71 -39q-39 0 -72.5 47t-62.5 47q-63 0 -119 -55q-119 -119 -250 -336v-6q74 49 164 49 q162 0 245 -114.5t83 -334.5q0 -137 -61.5 -272t-185.5 -231.5t-275 -96.5q-158 0 -241 45.5t-83 124.5q0 43 34 70t79 27t67.5 -31t26.5 -66.5t21.5 -66.5t54.5 -31q94 0 167.5 61.5t114.5 153.5t62.5 184.5t21.5 169.5q0 168 -50 251t-136 83q-55 0 -134 -54t-116 -124 q-14 -27 -76 -256l-12 -47z" />
<glyph unicode="&#x4c7;" horiz-adv-x="1576" d="M82 0l12 59l113 13q37 2 55.5 23.5t30.5 74.5l246 1077q20 96 -45 103l-121 8l14 59h561l-14 -59l-113 -10q-37 -2 -55 -25t-31 -76l-108 -471h684l106 471q20 96 -45 103l-121 8l15 59h561l-15 -59l-112 -10q-37 -2 -55.5 -25t-30.5 -76l-266 -1165 q-72 -305 -186.5 -441.5t-289.5 -136.5q-319 0 -319 170q0 39 44 68t85 29q31 0 49.5 -31t25.5 -66.5t33.5 -66.5t71.5 -31q109 0 166 109.5t109 334.5l155 678h-684l-119 -528q-12 -51 -1.5 -75.5t47.5 -26.5l120 -9l-12 -59h-561z" />
<glyph unicode="&#x4c8;" horiz-adv-x="1206" d="M201 -25l198 834q16 59 10 78.5t-51 23.5l-112 13l12 47l365 57l10 -10l-111 -465h422l109 451l188 24l-231 -969q-74 -307 -158 -431t-238 -124q-82 0 -133 32t-51 87q0 39 28.5 71t63.5 32q31 0 81 -73t83 -73q43 0 53 62l107 495l82 344h-424l-115 -481z" />
<glyph unicode="&#x4cf;" horiz-adv-x="626" d="M238 176l280 1133q14 59 6 77.5t-47 22.5l-117 14l13 47l366 50l11 -11l-330 -1316q-27 -111 20 -111q35 0 92.5 69.5t96.5 147.5l49 -29q-53 -125 -142.5 -210t-191.5 -85q-155 0 -106 201z" />
<glyph unicode="&#x4d0;" horiz-adv-x="1277" d="M-47 0l12 59l68 9q49 4 83 30.5t81 104.5q6 10 350 610l344 604h145l152 -1233q8 -68 22.5 -91t59.5 -27l78 -7l-13 -59h-504l13 59l108 11q33 4 44.5 20t7.5 60l-48 397h-458q-59 -109 -211 -402q-31 -70 26 -75l113 -11l-12 -59h-461zM539 625h407l-72 602h-4 q-245 -442 -331 -602zM747 1782h58q-2 -16 6 -37t28.5 -41.5t67.5 -34.5t113 -14q123 0 189.5 42t82.5 85h57q-25 -104 -109.5 -176t-248.5 -72t-216.5 72t-27.5 176z" />
<glyph unicode="&#x4d1;" horiz-adv-x="1148" d="M135 219q0 84 27.5 187.5t87 214t141.5 200.5t204 148.5t261 58.5q88 0 150 -43l10 27h172l-217 -817q-31 -113 20 -113q39 0 92.5 71.5t92.5 145.5l49 -29q-57 -129 -144.5 -212t-195.5 -83q-158 0 -90 230l69 233h-4q-264 -463 -528 -463q-98 0 -147.5 71t-49.5 173z M338 225q0 -143 90 -143q133 0 338 311q147 221 219 518q-49 45 -125 45q-113 0 -216 -81.5t-166.5 -199.5t-101.5 -240t-38 -210zM660 1323q0 55 22 107h49q-2 -20 2 -40t18.5 -44.5t55.5 -40t104 -15.5q180 0 256 140h54q-29 -125 -103.5 -196t-242.5 -71q-215 0 -215 160 z" />
<glyph unicode="&#x4d2;" horiz-adv-x="1277" d="M-47 0l12 59l68 9q49 4 83 30.5t81 104.5q6 10 350 610l344 604h145l152 -1233q8 -68 22.5 -91t59.5 -27l78 -7l-13 -59h-504l13 59l108 11q33 4 44.5 20t7.5 60l-48 397h-458q-59 -109 -211 -402q-31 -70 26 -75l113 -11l-12 -59h-461zM539 625h407l-72 602h-4 q-245 -442 -331 -602zM655 1612q0 55 34.5 90t86.5 35q45 0 71.5 -30t26.5 -71q0 -53 -33 -89t-86 -36q-47 0 -73.5 28t-26.5 73zM1081 1612q0 55 34.5 90t86.5 35q45 0 71.5 -30t26.5 -71q0 -53 -33 -89t-86 -36q-47 0 -73.5 28t-26.5 73z" />
<glyph unicode="&#x4d3;" horiz-adv-x="1148" d="M135 219q0 84 27.5 187.5t87 214t141.5 200.5t204 148.5t261 58.5q88 0 150 -43l10 27h172l-217 -817q-31 -113 20 -113q39 0 92.5 71.5t92.5 145.5l49 -29q-57 -129 -144.5 -212t-195.5 -83q-158 0 -90 230l69 233h-4q-264 -463 -528 -463q-98 0 -147.5 71t-49.5 173z M338 225q0 -143 90 -143q133 0 338 311q147 221 219 518q-49 45 -125 45q-113 0 -216 -81.5t-166.5 -199.5t-101.5 -240t-38 -210zM541 1272q0 55 34.5 90t86.5 35q45 0 71.5 -30t26.5 -71q0 -53 -33 -89t-86 -36q-47 0 -73.5 28t-26.5 73zM967 1272q0 55 34.5 90t86.5 35 q45 0 71.5 -30t26.5 -71q0 -53 -33 -89t-86 -36q-47 0 -73.5 28t-26.5 73z" />
<glyph unicode="&#x4d4;" horiz-adv-x="1802" d="M-109 0l17 59l69 7q41 4 69 24.5t65 65.5q246 299 815 1071q86 115 24 119l-137 12l18 59h1168l-78 -342h-61q10 92 5 152.5t-59.5 89.5t-179.5 29h-248q-27 0 -38 -11.5t-19 -48.5l-117 -510h269q90 0 136 16.5t68.5 48t51.5 109.5h61l-94 -428h-62q6 109 -22.5 142.5 t-155.5 33.5h-268l-105 -448q-16 -72 -14 -102.5t25 -49.5q35 -27 229 -26q197 0 285 53t164 235h61l-104 -360h-1070l13 59l114 13q37 2 54.5 23.5t29.5 74.5l119 528h-342q-238 -317 -387 -553q-45 -70 14 -75l121 -11l-16 -59h-488zM702 776h306l129 563h-11z" />
<glyph unicode="&#x4d5;" horiz-adv-x="1595" d="M141 219q0 78 27 176.5t85 206t139 196.5t205 147.5t265 58.5q80 0 160 -35l72 84h75l-51 -152l4 -4q145 131 322 131q125 0 192.5 -59.5t67.5 -145.5q0 -98 -90 -188q-160 -152 -576 -242q0 -4 -1 -16t-1 -17q0 -285 185 -284q72 0 141.5 42t108 86t85.5 107l48 -43 q-180 -293 -469 -293q-53 0 -99.5 13.5t-94.5 46.5t-76.5 103.5t-28.5 172.5q0 6 8 88h-4q-61 -104 -130 -191t-172.5 -160t-201.5 -73q-96 0 -145.5 71t-49.5 173zM344 225q0 -143 84 -143q72 0 167 93t183 235q139 223 207 483q-49 39 -131 39q-143 0 -266 -132 t-183.5 -293t-60.5 -282zM1042 463q242 51 355.5 152.5t113.5 218.5q0 55 -31.5 88.5t-86.5 33.5q-119 0 -221.5 -150t-129.5 -343z" />
<glyph unicode="&#x4d6;" horiz-adv-x="1220" d="M78 0l12 59l115 13q37 2 54 23.5t30 74.5l246 1081q12 53 1.5 74t-47.5 25l-122 8l14 59h1036l-78 -342h-61q10 92 5 152.5t-59.5 89.5t-179.5 29h-247q-27 0 -38 -11.5t-20 -48.5l-116 -510h268q90 0 136 16.5t68.5 48t51.5 109.5h61l-94 -428h-61q6 109 -23 142.5 t-156 33.5h-268l-104 -448q-16 -72 -14.5 -102.5t24.5 -49.5q35 -27 229 -26q197 0 285 53t164 235h61l-104 -360h-1069zM721 1782h58q-2 -16 6 -37t28.5 -41.5t67.5 -34.5t113 -14q123 0 189.5 42t82.5 85h57q-25 -104 -109.5 -176t-248.5 -72t-216.5 72t-27.5 176z" />
<glyph unicode="&#x4d7;" horiz-adv-x="927" d="M164 311q0 274 170 484q188 233 448 233q121 0 187.5 -59.5t66.5 -145.5q0 -111 -86 -196q-160 -147 -581 -234q-2 -14 -2 -33q0 -285 186 -284q55 0 105.5 21.5t95.5 61.5t72.5 71.5t64.5 78.5l47 -41q-180 -293 -469 -293q-51 0 -98 13.5t-97.5 46.5t-80 103.5 t-29.5 172.5zM373 463q244 51 357.5 152.5t113.5 220.5q0 53 -33 86.5t-86 33.5q-119 0 -222 -150t-130 -343zM586 1323q0 55 22 107h49q-2 -20 2 -40t18.5 -44.5t55.5 -40t104 -15.5q180 0 256 140h54q-29 -125 -103.5 -196t-242.5 -71q-215 0 -215 160z" />
<glyph unicode="&#x4d8;" horiz-adv-x="1441" d="M231 528q0 104 28 140.5t89 36.5h930q23 104 22 249q0 215 -100 319.5t-305 104.5q-63 0 -134 -28.5t-157 -116.5t-137 -221h-80l86 338q227 98 412 98q631 0 631 -600q0 -66 -14.5 -148t-45.5 -184t-89 -196.5t-136 -174t-199 -128t-264 -48.5q-270 0 -403.5 152.5 t-133.5 406.5zM446 446q0 -197 77 -301t227 -104q133 0 240.5 88t171 214t100.5 284h-730q-53 0 -69.5 -35t-16.5 -146z" />
<glyph unicode="&#x4d9;" horiz-adv-x="974" d="M123 211q0 166 154.5 262t535.5 158v12q0 285 -186 285q-184 0 -340 -183l-47 43q172 240 471 240q53 0 100 -13.5t97 -46t79 -103t29 -173.5q0 -276 -180.5 -496.5t-438.5 -220.5q-123 0 -198.5 69t-75.5 167zM315 199q0 -66 42 -109t98 -43q121 0 223 150.5t131 363.5 q-494 -92 -494 -362z" />
<glyph unicode="&#x4da;" horiz-adv-x="1441" d="M231 528q0 104 28 140.5t89 36.5h930q23 104 22 249q0 215 -100 319.5t-305 104.5q-63 0 -134 -28.5t-157 -116.5t-137 -221h-80l86 338q227 98 412 98q631 0 631 -600q0 -66 -14.5 -148t-45.5 -184t-89 -196.5t-136 -174t-199 -128t-264 -48.5q-270 0 -403.5 152.5 t-133.5 406.5zM446 446q0 -197 77 -301t227 -104q133 0 240.5 88t171 214t100.5 284h-730q-53 0 -69.5 -35t-16.5 -146zM602 1612q0 55 34.5 90t86.5 35q45 0 71.5 -30t26.5 -71q0 -53 -33 -89t-86 -36q-47 0 -73.5 28t-26.5 73zM1028 1612q0 55 34.5 90t86.5 35 q45 0 71.5 -30t26.5 -71q0 -53 -33 -89t-86 -36q-47 0 -73.5 28t-26.5 73z" />
<glyph unicode="&#x4db;" horiz-adv-x="974" d="M123 211q0 166 154.5 262t535.5 158v12q0 285 -186 285q-184 0 -340 -183l-47 43q172 240 471 240q53 0 100 -13.5t97 -46t79 -103t29 -173.5q0 -276 -180.5 -496.5t-438.5 -220.5q-123 0 -198.5 69t-75.5 167zM315 199q0 -66 42 -109t98 -43q121 0 223 150.5t131 363.5 q-494 -92 -494 -362zM447 1272q0 55 34.5 90t86.5 35q45 0 71.5 -30t26.5 -71q0 -53 -33 -89t-86 -36q-47 0 -73.5 28t-26.5 73zM873 1272q0 55 34.5 90t86.5 35q45 0 71.5 -30t26.5 -71q0 -53 -33 -89t-86 -36q-47 0 -73.5 28t-26.5 73z" />
<glyph unicode="&#x4dc;" horiz-adv-x="2158" d="M74 -31l16 72q129 0 187.5 63.5t140.5 245.5q88 197 221 290t324 114l2 6q-63 29 -103.5 117t-49.5 151.5t-9 108.5q0 240 -90 239q-39 0 -50.5 -12t-11.5 -41q0 -16 9.5 -55t9.5 -56q0 -94 -107 -94q-102 0 -102 137q0 31 9 59.5t31.5 61.5t75 52.5t128.5 19.5 q115 0 153.5 -88t38.5 -260q0 -139 60.5 -230.5t179.5 -91.5h20l107 469q23 96 -45 103l-121 8l14 59h561l-14 -59l-113 -10q-37 -2 -55 -27t-31 -74l-106 -469h18q96 0 210 95.5t175 226.5q84 178 154.5 263t163.5 85q111 0 165 -52.5t54 -127.5q0 -74 -26.5 -112 t-94.5 -38q-35 0 -61.5 21.5t-26.5 52.5q0 33 13 76t13 73q0 35 -47 35q-37 0 -93 -71.5t-105 -182.5q-70 -156 -155 -246t-161 -116l-2 -6q137 -2 239.5 -124t102.5 -280q0 -178 38 -243.5t175 -65.5l-16 -72h-115q-147 0 -215.5 65.5t-70.5 215.5q-2 80 -4.5 125 t-10.5 104.5t-25.5 93t-45 65.5t-71.5 46t-106 14h-88l-121 -528q-23 -96 46 -102l120 -9l-12 -59h-561l12 59l113 13q37 2 56.5 25.5t29.5 72.5l121 528h-90q-154 0 -253.5 -111.5t-197.5 -336.5q-66 -150 -163 -215.5t-247 -65.5h-114zM1118 1612q0 55 34.5 90t86.5 35 q45 0 71.5 -30t26.5 -71q0 -53 -33 -89t-86 -36q-47 0 -73.5 28t-26.5 73zM1544 1612q0 55 34.5 90t86.5 35q45 0 71.5 -30t26.5 -71q0 -53 -33 -89t-86 -36q-47 0 -73.5 28t-26.5 73z" />
<glyph unicode="&#x4dd;" horiz-adv-x="2011" d="M102 131q0 51 35 83t90 32q27 0 43.5 -21.5t16.5 -50.5q0 -49 3 -70.5t20.5 -39t56.5 -17.5q76 0 147.5 97.5t114.5 239.5t43 275q0 141 -25.5 205t-105.5 64q-129 0 -301 -234l-50 39q96 160 210 227.5t212 67.5q90 0 169 -93t79 -263q0 -53 -10 -119h182l109 451 l188 24l-112 -475h180q59 199 195.5 337t303.5 138q90 0 158 -48t68 -108q0 -51 -35 -82.5t-90 -31.5q-27 0 -43.5 21.5t-16.5 49.5q0 49 -3 71t-20.5 39t-55.5 17q-76 0 -148 -97t-115 -239.5t-43 -275.5q0 -141 26 -204.5t105 -63.5q129 0 302 233l49 -39 q-96 -160 -210 -227.5t-212 -67.5q-90 0 -169 93.5t-79 263.5q0 72 16 149h-182l-115 -481l-188 -25l121 506h-180q-53 -209 -193.5 -357.5t-314.5 -148.5q-90 0 -158 48.5t-68 107.5zM967 1272q0 55 34.5 90t86.5 35q45 0 71.5 -30t26.5 -71q0 -53 -33 -89t-86 -36 q-47 0 -73.5 28t-26.5 73zM1393 1272q0 55 34.5 90t86.5 35q45 0 71.5 -30t26.5 -71q0 -53 -33 -89t-86 -36q-47 0 -73.5 28t-26.5 73z" />
<glyph unicode="&#x4de;" horiz-adv-x="1179" d="M127 252q0 76 24.5 123t100.5 47q47 0 74.5 -28.5t27.5 -63.5q0 -37 -11 -79t-11 -69q0 -59 60.5 -100t142.5 -41q174 0 294.5 115.5t120.5 285.5q0 131 -88 202t-241 71h-121l16 78h109q178 0 300 95t122 271q0 102 -82 160.5t-193 58.5q-154 0 -234.5 -70.5 t-164.5 -291.5h-66l78 338q184 94 385 94t341 -85t140 -243q0 -55 -15 -104t-54 -101.5t-119 -92.5t-195 -58l-2 -6q133 -29 218 -116t85 -220q0 -51 -13 -103.5t-56 -118t-112.5 -114.5t-192.5 -83t-285 -34q-133 0 -258 85t-125 198zM490 1612q0 55 34.5 90t86.5 35 q45 0 71.5 -30t26.5 -71q0 -53 -33 -89t-86 -36q-47 0 -73.5 28t-26.5 73zM916 1612q0 55 34.5 90t86.5 35q45 0 71.5 -30t26.5 -71q0 -53 -33 -89t-86 -36q-47 0 -73.5 28t-26.5 73z" />
<glyph unicode="&#x4df;" horiz-adv-x="915" d="M111 256q0 51 29.5 88t80.5 37q78 0 78 -70q0 -12 -2 -35.5t-2 -33.5q0 -195 184 -195q100 0 167 85t67 185q0 88 -44 142.5t-128 54.5h-129l16 72h121q127 0 174 68.5t47 158.5q0 66 -49 104.5t-113 38.5q-172 0 -321 -204l-51 39q76 117 171 177t236 60 q139 0 229.5 -57.5t90.5 -182.5q0 -158 -256 -223v-6q98 -27 151 -95.5t53 -158.5q0 -137 -129 -233.5t-315 -96.5q-170 0 -263 81t-93 200zM379 1272q0 55 34.5 90t86.5 35q45 0 71.5 -30t26.5 -71q0 -53 -33 -89t-86 -36q-47 0 -73.5 28t-26.5 73zM805 1272q0 55 34.5 90 t86.5 35q45 0 71.5 -30t26.5 -71q0 -53 -33 -89t-86 -36q-47 0 -73.5 28t-26.5 73z" />
<glyph unicode="&#x4e0;" horiz-adv-x="1126" d="M127 252q0 76 24.5 123t100.5 47q47 0 74.5 -28.5t27.5 -63.5q0 -37 -11 -79t-11 -69q0 -59 60.5 -100t144.5 -41q166 0 264 110.5t98 288.5q0 268 -190 269q-111 0 -174 -31l-39 65l10 31l549 481v7h-273q-188 0 -272 -45.5t-135 -194.5h-64l92 395h867l14 -35l-20 -39 q-25 -49 -134 -143l-464 -403l2 -4q29 12 106 12q180 0 262 -102.5t82 -278.5q0 -199 -149.5 -327t-458.5 -128q-133 0 -258 85t-125 198z" />
<glyph unicode="&#x4e1;" horiz-adv-x="1024" d="M18 -326q0 45 27 74t80 29q35 0 53.5 -32t25.5 -68.5t45 -68.5t105 -32q158 0 257.5 146.5t99.5 318.5q0 96 -48.5 157.5t-136.5 61.5q-100 0 -159 -29l-29 64l14 31l549 516v6h-389q-96 0 -135 -37t-88 -145l-51 22q31 98 76.5 191.5t74.5 124.5h694l21 -29l-21 -45 q-25 -55 -122 -148l-469 -434l4 -4q14 12 96 12q164 0 240.5 -94t76.5 -244q0 -238 -149.5 -376t-429.5 -138q-160 0 -236 48t-76 122z" />
<glyph unicode="&#x4e2;" horiz-adv-x="1599" d="M82 0l12 59l113 13q37 2 56.5 25.5t29.5 72.5l246 1077q23 96 -45 103l-121 8l14 59h561l-14 -59l-113 -10q-37 -2 -55 -27t-31 -74l-194 -852l874 791l15 61q23 96 -46 103l-120 8l14 59h561l-14 -59l-113 -10q-37 -2 -55.5 -27t-30.5 -74l-246 -1077q-23 -96 45 -102 l121 -9l-12 -59h-561l12 59l113 13q37 2 56.5 25.5t29.5 72.5l205 897l-875 -791l-25 -106q-23 -96 46 -102l120 -9l-12 -59h-561zM842 1554l28 121h627l-29 -121h-626z" />
<glyph unicode="&#x4e3;" horiz-adv-x="1265" d="M258 922l12 49l373 57l10 -10l-196 -756q-47 -180 51 -180q117 0 237.5 147.5t200.5 331.5q59 139 146 443l182 24l-219 -835q-29 -111 26 -111q61 0 189 217l49 -31q-59 -125 -148.5 -209t-193.5 -84q-158 0 -94 222l67 233h-4q-98 -190 -245.5 -322.5t-288.5 -132.5 q-215 0 -138 297l142 541q14 47 9 71.5t-40 26.5zM613 1223l37 120h569l-37 -120h-569z" />
<glyph unicode="&#x4e4;" horiz-adv-x="1599" d="M82 0l12 59l113 13q37 2 56.5 25.5t29.5 72.5l246 1077q23 96 -45 103l-121 8l14 59h561l-14 -59l-113 -10q-37 -2 -55 -27t-31 -74l-194 -852l874 791l15 61q23 96 -46 103l-120 8l14 59h561l-14 -59l-113 -10q-37 -2 -55.5 -27t-30.5 -74l-246 -1077q-23 -96 45 -102 l121 -9l-12 -59h-561l12 59l113 13q37 2 56.5 25.5t29.5 72.5l205 897l-875 -791l-25 -106q-23 -96 46 -102l120 -9l-12 -59h-561zM848 1612q0 55 34.5 90t86.5 35q45 0 71.5 -30t26.5 -71q0 -53 -33 -89t-86 -36q-47 0 -73.5 28t-26.5 73zM1274 1612q0 55 34.5 90t86.5 35 q45 0 71.5 -30t26.5 -71q0 -53 -33 -89t-86 -36q-47 0 -73.5 28t-26.5 73z" />
<glyph unicode="&#x4e5;" horiz-adv-x="1265" d="M258 922l12 49l373 57l10 -10l-196 -756q-47 -180 51 -180q117 0 237.5 147.5t200.5 331.5q59 139 146 443l182 24l-219 -835q-29 -111 26 -111q61 0 189 217l49 -31q-59 -125 -148.5 -209t-193.5 -84q-158 0 -94 222l67 233h-4q-98 -190 -245.5 -322.5t-288.5 -132.5 q-215 0 -138 297l142 541q14 47 9 71.5t-40 26.5zM592 1272q0 55 34.5 90t86.5 35q45 0 71.5 -30t26.5 -71q0 -53 -33 -89t-86 -36q-47 0 -73.5 28t-26.5 73zM1018 1272q0 55 34.5 90t86.5 35q45 0 71.5 -30t26.5 -71q0 -53 -33 -89t-86 -36q-47 0 -73.5 28t-26.5 73z" />
<glyph unicode="&#x4e6;" horiz-adv-x="1542" d="M233 553q0 279 142 518q227 377 649 377q268 0 430 -149.5t162 -450.5q0 -256 -129 -490q-98 -178 -251 -283.5t-402 -105.5q-295 0 -448 160t-153 424zM449 471q0 -209 98 -319.5t268 -110.5q332 0 490 410q96 250 96 503q0 211 -97.5 316.5t-271.5 105.5 q-291 0 -457 -344q-126 -268 -126 -561zM789 1612q0 55 34.5 90t86.5 35q45 0 71.5 -30t26.5 -71q0 -53 -33 -89t-86 -36q-47 0 -73.5 28t-26.5 73zM1215 1612q0 55 34.5 90t86.5 35q45 0 71.5 -30t26.5 -71q0 -53 -33 -89t-86 -36q-47 0 -73.5 28t-26.5 73z" />
<glyph unicode="&#x4e7;" horiz-adv-x="1099" d="M172 346q0 61 15.5 139t57.5 176.5t106.5 178.5t175 134t247.5 54q68 0 128.5 -17.5t116.5 -55t89 -111.5t33 -174q0 -229 -129 -432q-166 -262 -463 -263q-186 0 -281.5 100.5t-95.5 270.5zM371 264q0 -217 184 -217q80 0 147.5 58.5t110.5 143.5t74 185.5t43 179 t12 127.5q0 215 -170 215q-96 0 -176 -75.5t-127 -188t-72.5 -226.5t-25.5 -202zM516 1272q0 55 34.5 90t86.5 35q45 0 71.5 -30t26.5 -71q0 -53 -33 -89t-86 -36q-47 0 -73.5 28t-26.5 73zM942 1272q0 55 34.5 90t86.5 35q45 0 71.5 -30t26.5 -71q0 -53 -33 -89t-86 -36 q-47 0 -73.5 28t-26.5 73z" />
<glyph unicode="&#x4e8;" horiz-adv-x="1542" d="M233 553q0 166 53.5 324.5t152 286.5t251 206t334.5 78q268 0 430 -149.5t162 -450.5q0 -256 -129 -490q-98 -178 -251 -283.5t-402 -105.5q-295 0 -448 160t-153 424zM449 471q0 -209 98 -319.5t268 -110.5q332 0 490 410q47 123 71 247h-907q-20 -110 -20 -227z M485 776h904q12 104 12 178q0 211 -97.5 316.5t-271.5 105.5q-111 0 -205 -52t-159.5 -142t-109.5 -190.5t-73 -215.5z" />
<glyph unicode="&#x4e9;" horiz-adv-x="1099" d="M172 346q0 61 15.5 139t57.5 176.5t106.5 178.5t175 134t247.5 54q68 0 128.5 -17.5t116.5 -55t89 -111.5t33 -174q0 -229 -129 -432q-166 -262 -463 -263q-186 0 -281.5 100.5t-95.5 270.5zM371 264q0 -217 184 -217q66 0 123 38t98 104.5t71 138t52 153.5h-500 q-28 -127 -28 -217zM418 553h500q25 119 24 188q0 215 -170 215q-123 0 -213 -116.5t-141 -286.5z" />
<glyph unicode="&#x4ea;" horiz-adv-x="1542" d="M233 553q0 166 53.5 324.5t152 286.5t251 206t334.5 78q268 0 430 -149.5t162 -450.5q0 -256 -129 -490q-98 -178 -251 -283.5t-402 -105.5q-295 0 -448 160t-153 424zM449 471q0 -209 98 -319.5t268 -110.5q332 0 490 410q47 123 71 247h-907q-20 -110 -20 -227z M485 776h904q12 104 12 178q0 211 -97.5 316.5t-271.5 105.5q-111 0 -205 -52t-159.5 -142t-109.5 -190.5t-73 -215.5zM742 1612q0 55 34.5 90t86.5 35q45 0 71.5 -30t26.5 -71q0 -53 -33 -89t-86 -36q-47 0 -73.5 28t-26.5 73zM1168 1612q0 55 34.5 90t86.5 35 q45 0 71.5 -30t26.5 -71q0 -53 -33 -89t-86 -36q-47 0 -73.5 28t-26.5 73z" />
<glyph unicode="&#x4eb;" horiz-adv-x="1099" d="M172 346q0 61 15.5 139t57.5 176.5t106.5 178.5t175 134t247.5 54q68 0 128.5 -17.5t116.5 -55t89 -111.5t33 -174q0 -229 -129 -432q-166 -262 -463 -263q-186 0 -281.5 100.5t-95.5 270.5zM371 264q0 -217 184 -217q66 0 123 38t98 104.5t71 138t52 153.5h-500 q-28 -127 -28 -217zM418 553h500q25 119 24 188q0 215 -170 215q-123 0 -213 -116.5t-141 -286.5zM510 1272q0 55 34.5 90t86.5 35q45 0 71.5 -30t26.5 -71q0 -53 -33 -89t-86 -36q-47 0 -73.5 28t-26.5 73zM936 1272q0 55 34.5 90t86.5 35q45 0 71.5 -30t26.5 -71 q0 -53 -33 -89t-86 -36q-47 0 -73.5 28t-26.5 73z" />
<glyph unicode="&#x4ec;" horiz-adv-x="1234" d="M125 250q0 172 123 172q49 0 76.5 -25.5t27.5 -72.5q0 -31 -10 -78t-10 -64q0 -55 56 -98t159 -43q139 0 252.5 106.5t177 250t94.5 309.5h-590l17 77h585q10 82 11 140q0 182 -92.5 317t-225.5 135q-131 0 -228 -74.5t-177 -285.5h-66l80 348q66 29 108 43t118.5 27.5 t164.5 13.5q246 0 389.5 -174t143.5 -412q0 -152 -54.5 -333t-171.5 -314q-106 -121 -231 -183.5t-330 -62.5q-70 0 -158 29t-163.5 97.5t-75.5 154.5zM494 1612q0 55 34.5 90t86.5 35q45 0 71.5 -30t26.5 -71q0 -53 -33 -89t-86 -36q-47 0 -73.5 28t-26.5 73zM920 1612 q0 55 34.5 90t86.5 35q45 0 71.5 -30t26.5 -71q0 -53 -33 -89t-86 -36q-47 0 -73.5 28t-26.5 73z" />
<glyph unicode="&#x4ed;" horiz-adv-x="923" d="M106 236q0 59 29 96t84 37q74 0 74 -82q0 -55 1 -82t7 -64t19.5 -53t38 -28.5t61.5 -12.5q111 0 189.5 129t119.5 311h-381l17 72h378q20 104 21 178q0 117 -47 168t-142 51q-145 0 -288 -204l-51 39q74 113 158.5 175t205.5 62q365 0 365 -356q0 -70 -17.5 -156 t-58.5 -182t-101.5 -175t-156.5 -131.5t-211 -52.5q-150 0 -232 78.5t-82 182.5zM336 1272q0 55 34.5 90t86.5 35q45 0 71.5 -30t26.5 -71q0 -53 -33 -89t-86 -36q-47 0 -73.5 28t-26.5 73zM762 1272q0 55 34.5 90t86.5 35q45 0 71.5 -30t26.5 -71q0 -53 -33 -89t-86 -36 q-47 0 -73.5 28t-26.5 73z" />
<glyph unicode="&#x4ee;" horiz-adv-x="1376" d="M193 164q0 90 32.5 143t93.5 53q47 0 74 -24.5t27 -65.5q0 -31 -24.5 -83t-24.5 -70q0 -70 67 -70q53 0 121 38t103 97l14 25l-227 964q-4 20 -11.5 50t-9.5 42.5t-8 31t-11.5 25.5t-13.5 15t-19 11.5t-28 3.5l-82 8l15 59h516l-15 -59l-88 -10q-53 -4 -53 -78 q0 -78 72 -385l104 -451h2l299 467q74 115 146.5 253t72.5 165q0 23 -55 29l-98 10l12 59h453l-13 -59q-14 -2 -41.5 -6t-36 -6.5t-27 -7.5t-24.5 -10t-19 -15t-23.5 -25.5t-24.5 -36.5l-676 -1071q-131 -205 -322 -205q-113 0 -181 59.5t-68 129.5zM685 1554l28 121h627 l-29 -121h-626z" />
<glyph unicode="&#x4ef;" horiz-adv-x="958" d="M-10 -383q0 45 32.5 83t71.5 40q35 0 72 -49q47 -63 84 -64q31 0 66.5 40t64.5 106q49 119 49 254q0 238 -68 716q-12 84 -25 113t-46 27l-139 -4l-7 51l344 98l17 -8q53 -281 82 -895h6q250 430 289 569q31 111 26 283q76 51 160 51q8 0 16.5 -13.5t14.5 -41t6 -60.5 q0 -16 -6 -39.5t-22.5 -57.5t-31 -61.5t-42 -74.5t-44 -74.5t-51.5 -84t-49 -81.5q-57 -92 -117.5 -196.5t-112.5 -194.5t-61 -104q-68 -117 -99.5 -169t-77.5 -118t-79.5 -91.5t-78 -44t-95.5 -18.5q-66 0 -107.5 35t-41.5 78zM520 1223l37 120h569l-37 -120h-569z" />
<glyph unicode="&#x4f0;" horiz-adv-x="1376" d="M193 164q0 90 32.5 143t93.5 53q47 0 74 -24.5t27 -65.5q0 -31 -24.5 -83t-24.5 -70q0 -70 67 -70q53 0 121 38t103 97l14 25l-227 964q-4 20 -11.5 50t-9.5 42.5t-8 31t-11.5 25.5t-13.5 15t-19 11.5t-28 3.5l-82 8l15 59h516l-15 -59l-88 -10q-53 -4 -53 -78 q0 -78 72 -385l104 -451h2l299 467q74 115 146.5 253t72.5 165q0 23 -55 29l-98 10l12 59h453l-13 -59q-14 -2 -41.5 -6t-36 -6.5t-27 -7.5t-24.5 -10t-19 -15t-23.5 -25.5t-24.5 -36.5l-676 -1071q-131 -205 -322 -205q-113 0 -181 59.5t-68 129.5zM690 1612q0 55 34.5 90 t86.5 35q45 0 71.5 -30t26.5 -71q0 -53 -33 -89t-86 -36q-47 0 -73.5 28t-26.5 73zM1116 1612q0 55 34.5 90t86.5 35q45 0 71.5 -30t26.5 -71q0 -53 -33 -89t-86 -36q-47 0 -73.5 28t-26.5 73z" />
<glyph unicode="&#x4f1;" horiz-adv-x="958" d="M-10 -383q0 45 32.5 83t71.5 40q35 0 72 -49q47 -63 84 -64q31 0 66.5 40t64.5 106q49 119 49 254q0 238 -68 716q-12 84 -25 113t-46 27l-139 -4l-7 51l344 98l17 -8q53 -281 82 -895h6q250 430 289 569q31 111 26 283q76 51 160 51q8 0 16.5 -13.5t14.5 -41t6 -60.5 q0 -16 -6 -39.5t-22.5 -57.5t-31 -61.5t-42 -74.5t-44 -74.5t-51.5 -84t-49 -81.5q-57 -92 -117.5 -196.5t-112.5 -194.5t-61 -104q-68 -117 -99.5 -169t-77.5 -118t-79.5 -91.5t-78 -44t-95.5 -18.5q-66 0 -107.5 35t-41.5 78zM500 1272q0 55 34.5 90t86.5 35 q45 0 71.5 -30t26.5 -71q0 -53 -33 -89t-86 -36q-47 0 -73.5 28t-26.5 73zM926 1272q0 55 34.5 90t86.5 35q45 0 71.5 -30t26.5 -71q0 -53 -33 -89t-86 -36q-47 0 -73.5 28t-26.5 73z" />
<glyph unicode="&#x4f2;" horiz-adv-x="1376" d="M193 164q0 90 32.5 143t93.5 53q47 0 74 -24.5t27 -65.5q0 -31 -24.5 -83t-24.5 -70q0 -70 67 -70q53 0 121 38t103 97l14 25l-227 964q-4 20 -11.5 50t-9.5 42.5t-8 31t-11.5 25.5t-13.5 15t-19 11.5t-28 3.5l-82 8l15 59h516l-15 -59l-88 -10q-53 -4 -53 -78 q0 -78 72 -385l104 -451h2l299 467q74 115 146.5 253t72.5 165q0 23 -55 29l-98 10l12 59h453l-13 -59q-14 -2 -41.5 -6t-36 -6.5t-27 -7.5t-24.5 -10t-19 -15t-23.5 -25.5t-24.5 -36.5l-676 -1071q-131 -205 -322 -205q-113 0 -181 59.5t-68 129.5zM770 1569l143 182 q63 80 109 80q31 0 60.5 -33t29.5 -65q0 -25 -19.5 -43.5t-76.5 -51.5l-207 -114zM1118 1569l143 182q63 80 109 80q31 0 60.5 -33t29.5 -65q0 -25 -19.5 -43.5t-76.5 -51.5l-207 -114z" />
<glyph unicode="&#x4f3;" horiz-adv-x="958" d="M-10 -383q0 45 32.5 83t71.5 40q35 0 72 -49q47 -63 84 -64q31 0 66.5 40t64.5 106q49 119 49 254q0 238 -68 716q-12 84 -25 113t-46 27l-139 -4l-7 51l344 98l17 -8q53 -281 82 -895h6q250 430 289 569q31 111 26 283q76 51 160 51q8 0 16.5 -13.5t14.5 -41t6 -60.5 q0 -16 -6 -39.5t-22.5 -57.5t-31 -61.5t-42 -74.5t-44 -74.5t-51.5 -84t-49 -81.5q-57 -92 -117.5 -196.5t-112.5 -194.5t-61 -104q-68 -117 -99.5 -169t-77.5 -118t-79.5 -91.5t-78 -44t-95.5 -18.5q-66 0 -107.5 35t-41.5 78zM594 1145l94 295q16 49 34 72.5t50 23.5 q41 0 72 -22.5t31 -55.5q0 -43 -64 -127l-168 -213zM885 1145l94 295q16 49 33.5 72.5t50.5 23.5q41 0 72 -22.5t31 -55.5q0 -43 -64 -127l-168 -213z" />
<glyph unicode="&#x4f4;" horiz-adv-x="1488" d="M360 1358l15 59h540l-14 -61l-92 -8q-37 -2 -55.5 -26t-30.5 -75l-78 -319q-66 -274 156 -275q113 0 209 17q55 8 128.5 58t86.5 106l94 413q23 100 -45 103l-100 6l14 61h541l-15 -59l-112 -10q-37 -2 -55.5 -27t-30.5 -74l-246 -1077q-23 -96 45 -102l121 -9l-13 -59 h-571l12 59l123 11q37 2 56.5 25.5t29.5 74.5l119 514h-4q-233 -158 -488 -158q-117 0 -182 69t-71.5 172t18.5 222l61 258q23 96 -45 103zM787 1612q0 55 34.5 90t86.5 35q45 0 71.5 -30t26.5 -71q0 -53 -33 -89t-86 -36q-47 0 -73.5 28t-26.5 73zM1213 1612q0 55 34.5 90 t86.5 35q45 0 71.5 -30t26.5 -71q0 -53 -33 -89t-86 -36q-47 0 -73.5 28t-26.5 73z" />
<glyph unicode="&#x4f5;" horiz-adv-x="1198" d="M244 922l12 49l373 57l10 -10l-109 -424q-27 -90 -12.5 -135t74.5 -45q82 0 170 73.5t160 229.5q16 33 36 104q25 72 37 127l13 56l182 24l-217 -833q-31 -113 26 -113q39 0 92.5 71.5t92.5 145.5l49 -29q-57 -129 -142 -212t-190 -83q-82 0 -109.5 55.5t-0.5 145.5 l108 381h-4q-113 -133 -195 -191.5t-194 -58.5q-76 0 -119 56.5t-44 132t15 151.5l48 166q14 47 9 71.5t-40 26.5zM574 1272q0 55 34.5 90t86.5 35q45 0 71.5 -30t26.5 -71q0 -53 -33 -89t-86 -36q-47 0 -73.5 28t-26.5 73zM1000 1272q0 55 34.5 90t86.5 35q45 0 71.5 -30 t26.5 -71q0 -53 -33 -89t-86 -36q-47 0 -73.5 28t-26.5 73z" />
<glyph unicode="&#x4f6;" horiz-adv-x="1120" d="M78 0l12 59l115 11q35 2 54.5 24.5t29.5 69.5l246 1089q20 86 -46 93l-120 12l12 59h1030l-80 -350h-61q10 92 2 153.5t-66.5 93.5t-179.5 32h-227q-29 0 -40 -11.5t-20 -50.5l-254 -1120q-20 -88 47 -94l154 -11h19l-95 -448h-63q14 125 14 182q0 121 -72.5 164 t-293.5 43h-117z" />
<glyph unicode="&#x4f7;" horiz-adv-x="866" d="M164 182q0 76 25.5 132.5t75.5 97.5t100.5 69.5t125 69.5t125.5 80q76 57 76 190q0 63 -37 99t-92 36q-63 0 -119.5 -35.5t-148.5 -115.5l-43 39q117 113 189.5 148.5t162.5 35.5q137 0 193.5 -58.5t56.5 -125.5q0 -86 -31.5 -140.5t-73.5 -78t-130.5 -72.5t-158 -102.5 t-91 -116t-21.5 -148.5q0 -37 7 -63.5t43 -51t102 -24.5q88 0 158.5 55.5t181.5 186.5l39 -39q-78 -98 -129 -150q-55 -72 -56 -149q0 -33 9.5 -89.5t9.5 -92.5q0 -78 -73 -125t-214 -84l-14 51q98 39 134 74.5t36 85.5q0 10 -2 37.5t-2 39.5q0 49 38.5 94.5t38.5 65.5 q0 16 -16 8q-76 -41 -170 -41q-141 0 -223 59.5t-82 147.5z" />
<glyph unicode="&#x4f8;" horiz-adv-x="1896" d="M82 0l12 59l113 13q37 2 56.5 25.5t29.5 72.5l246 1077q23 96 -45 103l-121 8l14 59h571l-14 -59l-123 -8q-37 -2 -55 -27t-31 -76l-106 -469q70 20 223 21q193 0 318.5 -99.5t125.5 -255.5q0 -47 -7 -92t-42 -113.5t-94 -116.5t-177 -85t-280 -37h-614zM498 203 q-16 -70 18.5 -100.5t173.5 -30.5q111 0 193 40t120.5 101t55 115.5t16.5 105.5q0 125 -76.5 209t-207.5 84q-115 0 -181 -27zM995 1612q0 55 34.5 90t86.5 35q45 0 71.5 -30t26.5 -71q0 -53 -33 -89t-86 -36q-47 0 -73.5 28t-26.5 73zM1270 0l12 59l113 13q37 2 56.5 25.5 t29.5 72.5l246 1077q23 96 -45 103l-121 8l14 59h561l-14 -59l-113 -10q-37 -2 -55 -27t-31 -74l-246 -1077q-23 -96 46 -102l120 -9l-12 -59h-561zM1421 1612q0 55 34.5 90t86.5 35q45 0 71.5 -30t26.5 -71q0 -53 -33 -89t-86 -36q-47 0 -73.5 28t-26.5 73z" />
<glyph unicode="&#x4f9;" horiz-adv-x="1662" d="M258 922l12 49l373 57l10 -10l-147 -508h4q117 133 270 133q342 0 342 -281q0 -147 -146.5 -267t-397.5 -120q-188 0 -264 128t-27 286l129 424q16 47 10 71.5t-41 26.5zM452 275.5q-3 -50.5 6 -105.5t53 -89t120 -34q35 0 81 17.5t95 55.5t83 110.5t34 166.5 q0 78 -49.5 126t-137.5 48q-72 0 -147.5 -49t-120.5 -143q-14 -53 -17 -103.5zM779 1272q0 55 34.5 90t86.5 35q45 0 71.5 -30t26.5 -71q0 -53 -33 -89t-86 -36q-47 0 -73.5 28t-26.5 73zM1205 1272q0 55 34.5 90t86.5 35q45 0 71.5 -30t26.5 -71q0 -53 -33 -89t-86 -36 q-47 0 -73.5 28t-26.5 73zM1260 176l213 828l182 24l-211 -833q-31 -113 20 -113q39 0 92.5 71.5t92.5 145.5l49 -29q-57 -129 -142.5 -212t-189.5 -83q-80 0 -105.5 54.5t-0.5 146.5z" />
<glyph unicode="&#x2000;" horiz-adv-x="942" />
<glyph unicode="&#x2001;" horiz-adv-x="1884" />
<glyph unicode="&#x2002;" horiz-adv-x="942" />
<glyph unicode="&#x2003;" horiz-adv-x="1884" />
<glyph unicode="&#x2004;" horiz-adv-x="628" />
<glyph unicode="&#x2005;" horiz-adv-x="471" />
<glyph unicode="&#x2006;" horiz-adv-x="314" />
<glyph unicode="&#x2007;" horiz-adv-x="314" />
<glyph unicode="&#x2008;" horiz-adv-x="235" />
<glyph unicode="&#x2009;" horiz-adv-x="376" />
<glyph unicode="&#x200a;" horiz-adv-x="104" />
<glyph unicode="&#x2010;" horiz-adv-x="802" d="M240 442l28 144h502l-29 -144h-501z" />
<glyph unicode="&#x2011;" horiz-adv-x="802" d="M240 442l28 144h502l-29 -144h-501z" />
<glyph unicode="&#x2012;" horiz-adv-x="802" d="M240 442l28 144h502l-29 -144h-501z" />
<glyph unicode="&#x2013;" horiz-adv-x="1024" d="M96 453l25 118h1024l-25 -118h-1024z" />
<glyph unicode="&#x2014;" horiz-adv-x="2048" d="M96 453l25 118h2048l-25 -118h-2048z" />
<glyph unicode="&#x2018;" horiz-adv-x="442" d="M338 1130q0 49 20.5 101.5t40 84.5t72.5 84t69.5 65.5t77.5 66.5l33 -35q-127 -123 -137 -221q-4 -39 21 -96q25 -59 24 -78q0 -41 -31.5 -72t-76.5 -31q-51 -2 -82 39t-31 92z" />
<glyph unicode="&#x2019;" horiz-adv-x="442" d="M301 1022q127 123 137 221q4 39 -20 96q-25 59 -25 78q0 41 32 72t77 31q51 2 81.5 -39t30.5 -92q0 -49 -20.5 -101.5t-39.5 -84.5t-72.5 -84t-70 -65.5t-77.5 -66.5z" />
<glyph unicode="&#x201a;" horiz-adv-x="442" d="M57 -188q127 123 137 221q4 39 -20 96q-25 59 -25 78q0 41 32 72t77 31q51 2 81.5 -39t30.5 -92q0 -49 -20.5 -101.5t-39.5 -84.5t-72.5 -84t-70 -65.5t-77.5 -66.5z" />
<glyph unicode="&#x201c;" horiz-adv-x="823" d="M346 1130q0 49 20.5 101.5t40 84.5t72.5 84t69.5 65.5t77.5 66.5l33 -35q-127 -123 -137 -221q-4 -39 21 -96q25 -59 24 -78q0 -41 -31.5 -72t-76.5 -31q-51 -2 -82 39t-31 92zM727 1130q0 49 20.5 101.5t40 84.5t72.5 84t69.5 65.5t77.5 66.5l33 -35 q-127 -123 -137 -221q-4 -39 21 -96q25 -59 24 -78q0 -41 -31.5 -72t-76.5 -31q-51 -2 -82 39t-31 92z" />
<glyph unicode="&#x201d;" horiz-adv-x="823" d="M291 1026q127 123 137 221q4 39 -20 96q-25 59 -25 78q0 41 32 72t77 31q51 2 81.5 -39t30.5 -92q0 -49 -20.5 -101.5t-39.5 -84.5t-72.5 -84t-70 -65.5t-77.5 -66.5zM672 1026q127 123 137 221q4 39 -20 96q-25 59 -25 78q0 41 32 72t77 31q51 2 81.5 -39t30.5 -92 q0 -49 -20.5 -101.5t-39.5 -84.5t-72.5 -84t-70 -65.5t-77.5 -66.5z" />
<glyph unicode="&#x201e;" horiz-adv-x="823" d="M58 -188q127 123 137 221q4 39 -20 96q-25 59 -25 78q0 41 32 72t77 31q51 2 81.5 -39t30.5 -92q0 -49 -20.5 -101.5t-39.5 -84.5t-72.5 -84t-70 -65.5t-77.5 -66.5zM439 -188q127 123 137 221q4 39 -20 96q-25 59 -25 78q0 41 32 72t77 31q51 2 81.5 -39t30.5 -92 q0 -49 -20.5 -101.5t-39.5 -84.5t-72.5 -84t-70 -65.5t-77.5 -66.5z" />
<glyph unicode="&#x2020;" horiz-adv-x="1024" d="M282.5 948.5q14.5 71.5 69.5 71.5q25 0 127.5 -16.5t192.5 -22.5q6 86 11 186.5t8 152.5t9 75q14 74 115 73q57 0 74.5 -18t11.5 -55q-6 -25 -24.5 -76t-56.5 -152.5t-66 -185.5q96 6 204.5 22.5t131.5 16.5q55 0 40.5 -71.5t-69.5 -71.5q-23 0 -125 16t-195 22 q14 -195 -2 -268q-6 -29 -41.5 -148.5t-98 -332.5t-116.5 -422h-57q35 213 61.5 422t41 333t18.5 148q16 76 112 268q-94 -6 -203.5 -22t-131.5 -16q-56 0 -41.5 71.5z" />
<glyph unicode="&#x2021;" horiz-adv-x="1003" d="M154 299q14 68 69 68q20 0 128 -16.5t173 -18.5q10 109 14.5 205t10.5 133q8 39 20.5 72.5t40 99t41.5 102.5q-66 -2 -179.5 -18.5t-133.5 -16.5q-55 0 -41 68q12 68 70 67q20 0 127.5 -16t171.5 -18q6 74 10 162t7 143t9 82q14 78 115 71q53 2 72.5 -16t13.5 -55 q-6 -27 -26.5 -82t-53.5 -143.5t-57 -161.5q66 2 180.5 18t134.5 16q53 0 41 -67q-14 -68 -70 -68q-20 0 -127.5 16.5t-173.5 18.5v-86v-68.5t-3 -59.5t-9 -60q-6 -33 -18.5 -68t-40 -109.5t-56.5 -160.5q66 2 179.5 18.5t134.5 16.5q55 0 41 -68q-12 -68 -68 -68 q-20 0 -127.5 16.5t-173.5 18.5q-8 -90 -15 -191.5t-11.5 -160.5t-10.5 -86q-14 -78 -114 -72q-53 -2 -73 16.5t-14 55.5q6 27 27 86t56.5 159.5t64.5 192.5q-66 -2 -179.5 -18.5t-133.5 -16.5q-55 0 -43 68z" />
<glyph unicode="&#x2022;" horiz-adv-x="1024" d="M297 721q0 133 97.5 230.5t230.5 97.5t229 -97.5t96 -230.5q0 -135 -96 -231.5t-229 -96.5t-230.5 96.5t-97.5 231.5z" />
<glyph unicode="&#x2026;" horiz-adv-x="2048" d="M246 92q0 63 37 101t96 38q53 0 85 -33.5t32 -80.5q0 -63 -37 -102.5t-96 -39.5q-53 0 -85 33t-32 84zM928 92q0 63 37 101t96 38q53 0 85 -33.5t32 -80.5q0 -63 -37 -102.5t-96 -39.5q-53 0 -85 33t-32 84zM1610 92q0 63 37 101t96 38q53 0 85 -33.5t32 -80.5 q0 -63 -37 -102.5t-96 -39.5q-53 0 -85 33t-32 84z" />
<glyph unicode="&#x202f;" horiz-adv-x="376" />
<glyph unicode="&#x2030;" horiz-adv-x="2457" d="M272 915q0 72 22.5 150t68 153.5t129 125t190.5 49.5q121 0 219 -74q33 -27 94 -27h367q86 6 174 94l51 52l62 -49l-1239 -1440l-64 57l1045 1217h-443q10 -39 10 -111q0 -55 -12 -112.5t-40.5 -123t-74.5 -116.5q-43 -51 -114.5 -84t-159.5 -33q-145 0 -215 79.5 t-70 192.5zM430 868q0 -164 129 -163q68 0 119 57t75.5 139t37 151.5t10.5 114.5q0 164 -121 164q-63 0 -115 -57q-49 -57 -77.5 -139t-43 -152t-14.5 -115zM1014 248q0 72 22.5 149.5t67.5 153.5t129 125t190 49q137 0 207 -78t70 -203q0 -55 -12.5 -112.5t-41 -123 t-73.5 -116.5q-43 -51 -115 -84t-160 -33q-145 0 -214.5 80t-69.5 193zM1171 201q0 -164 129 -164q68 0 119 57.5t76 139t37 151.5t10 115q0 164 -121 164q-63 0 -114 -58q-49 -57 -78 -139t-43.5 -151.5t-14.5 -114.5zM1782 248q0 72 22.5 149.5t67.5 153.5t129 125t190 49 q137 0 207 -78t70 -203q0 -55 -12 -112q-14 -57 -43 -123t-72 -117t-115 -84t-160 -33q-145 0 -214.5 80t-69.5 193zM1939 201q0 -164 129 -164q68 0 119 57.5t76 138.5q23 82 35 152t12 115q0 164 -121 164q-63 0 -114.5 -57.5t-80 -139.5t-40.5 -152q-15 -69 -15 -114z " />
<glyph unicode="&#x2039;" horiz-adv-x="567" d="M223 457q-23 33 8 63l347 371l40 -35l-208 -334q-20 -33 -9 -69l113 -338l-47 -31z" />
<glyph unicode="&#x203a;" horiz-adv-x="567" d="M162 119l209 334q20 33 8 69l-113 338l47 31l244 -373q23 -33 -8 -63l-346 -371z" />
<glyph unicode="&#x2044;" horiz-adv-x="204" d="M-340 12l1098 1418l69 -56l-1099 -1423z" />
<glyph unicode="&#x205f;" horiz-adv-x="471" />
<glyph unicode="&#x20ac;" d="M139 573l33 72h109q12 68 30 133h-125l33 72h115q82 236 240.5 389.5t394.5 153.5q219 0 327 -58l-65 -276h-62q0 166 -48 214t-173 48q-129 0 -236.5 -132t-179.5 -339h494l-33 -72h-483q-27 -100 -35 -133h459l-33 -72h-440q-18 -113 -19 -211q0 -133 50.5 -224 t169.5 -91q227 0 380 315h62l-98 -309q-217 -78 -349 -78q-182 0 -290.5 112t-108.5 341q0 57 10 145h-129z" />
<glyph unicode="&#x2122;" horiz-adv-x="2252" d="M258 1210v207h780v-207h-43q-16 96 -52 124t-144 28h-70v-668q0 -49 21.5 -61t119.5 -19v-47h-442v47q98 6 119.5 18.5t21.5 61.5v668h-65q-113 0 -150 -27.5t-53 -124.5h-43zM1110 567v47q61 4 87 16.5t30 47.5q6 61 6 151v461q0 47 -17.5 59.5t-97.5 20.5v47h312 q18 -45 149 -327l137 -291h4l138 293q119 254 149 325h305v-47q-80 -8 -97 -20.5t-17 -59.5v-596q0 -49 17 -61t97 -19v-47h-385v47q80 6 97.5 18.5t17.5 61.5v611h-8l-342 -715h-43l-340 715h-9v-476q0 -70 9 -151q4 -35 32.5 -46t110.5 -18v-47h-342z" />
<glyph unicode="&#x25fc;" horiz-adv-x="1024" d="M0 0v1024h1024v-1024h-1024z" />
</font>
</defs>
</svg>
